<svg width="767" height="46" viewBox="0 0 767 46" fill="none" xmlns="http://www.w3.org/2000/svg">
<path fill-rule="evenodd" clip-rule="evenodd" d="M703.432 0.0825112C702.58 0.742511 646.474 1.84051 634.762 1.42651C633.937 1.39751 620.078 1.5105 603.965 1.6785C579.391 1.9345 574.517 2.22351 573.73 3.46751C572.988 4.64151 572.789 4.66451 572.777 3.57851C572.766 2.55051 572.428 2.48251 571.434 3.30751C570.623 3.98051 568.969 4.11251 567.184 3.64651C565.577 3.22651 559.918 2.89851 554.608 2.91651C549.298 2.93551 545.188 2.5715 545.474 2.1085C545.76 1.6455 543.129 1.52551 539.628 1.84251C523.876 3.26751 466.413 3.9705 464.458 2.7625C463.905 2.4215 463.755 2.62951 464.124 3.22651C464.493 3.82351 464.337 4.59451 463.778 4.94051C463.219 5.28551 462.762 5.09151 462.762 4.50951C462.762 3.92751 462.285 3.45051 461.703 3.45051C461.121 3.45051 460.922 3.90051 461.262 4.45051C461.602 5.00051 461.43 5.45051 460.88 5.45051C460.33 5.45051 459.602 5.00051 459.262 4.45051C458.922 3.90051 458.108 3.45751 457.453 3.46551C456.737 3.47551 456.861 3.86851 457.762 4.45051C459.483 5.56251 458.818 5.71251 453.262 5.46751C451.062 5.37051 448.835 4.87751 448.312 4.37051C446.88 2.98351 412.762 3.17751 412.762 4.57251C412.762 5.39851 412.407 5.4005 411.42 4.5815C410.682 3.9695 409.876 3.66951 409.63 3.91651C409.383 4.16251 404.367 4.43451 398.483 4.52051C391.742 4.61951 388.01 5.04251 388.394 5.66351C388.729 6.20651 388.049 6.13951 386.883 5.51551C385.716 4.89051 384.763 4.7335 384.764 5.1655C384.766 6.0155 373.217 5.70851 370.762 4.79351C369.937 4.48551 358.912 4.39051 346.262 4.58351C333.612 4.77551 312.321 4.9365 298.95 4.9415C285.578 4.9465 275.678 5.24351 276.95 5.60051C278.255 5.96751 276.08 6.29451 271.953 6.35051C267.694 6.40851 264.885 6.8415 265.222 7.3865C265.577 7.9595 264.637 7.98851 262.795 7.45951C261.142 6.98551 259.553 6.98051 259.264 7.44751C258.975 7.91551 257.169 8.15251 255.25 7.97351C253.332 7.79551 251.762 7.9685 251.762 8.3585C251.762 8.7495 251.086 9.94151 250.26 11.0095C249.007 12.6275 248.859 12.6595 249.367 11.2005C249.773 10.0325 249.469 9.45051 248.452 9.45051C247.614 9.45051 246.741 8.88851 246.512 8.20051C245.623 5.53151 118.814 5.70751 99.0228 8.40551C95.8538 8.83751 89.3568 9.27151 84.5838 9.36951C79.8108 9.46851 74.6358 9.89351 73.0838 10.3145C71.5318 10.7355 68.7998 11.0025 67.0118 10.9075C65.2238 10.8135 63.7618 11.1215 63.7618 11.5935C63.7618 12.0645 63.2368 12.4505 62.5948 12.4505C61.9538 12.4505 61.7258 12.1535 62.0888 11.7905C62.4518 11.4275 61.8718 10.5155 60.8008 9.76551C59.2628 8.68751 55.4168 8.51851 42.5568 8.96251C33.5948 9.27151 23.6558 9.88451 20.4708 10.3255C15.6588 10.9915 14.5288 10.8585 13.7878 9.5385C12.9918 8.1205 12.8228 8.14051 12.2118 9.72651C11.7438 10.9425 11.1608 11.1965 10.3618 10.5335C9.63679 9.93251 8.63879 9.91651 7.72779 10.4925C6.92179 11.0025 6.71179 11.4335 7.26179 11.4505C7.81179 11.4675 7.62478 11.8845 6.84478 12.3775C6.02678 12.8955 4.45879 12.9055 3.13079 12.4005C0.395791 11.3605 -0.531218 12.4355 0.286782 15.6955C0.848782 17.9335 4.76179 19.4135 4.76179 17.3885C4.76179 16.8725 5.46379 16.4505 6.32079 16.4505C7.17779 16.4505 7.60179 16.0005 7.26179 15.4505C6.92179 14.9005 7.34578 14.4505 8.20278 14.4505C10.0368 14.4505 10.1168 14.9185 8.72678 17.5165C7.85178 19.1505 8.02579 19.4505 9.84879 19.4505C11.7498 19.4505 11.8438 19.6515 10.6338 21.1425C9.85278 22.1065 9.76979 22.5295 10.4428 22.1265C11.0918 21.7365 11.9058 21.8755 12.2518 22.4345C12.5968 22.9935 12.3188 23.4505 11.6318 23.4505C10.9278 23.4505 11.3038 24.3065 12.4948 25.4165C13.6558 26.4985 14.8938 28.2905 15.2458 29.4005C15.6948 30.8155 16.5408 31.2965 18.0738 31.0095C19.2778 30.7835 20.2618 30.5325 20.2618 30.4505C20.2618 30.3685 21.3778 30.0975 22.7428 29.8475C25.1438 29.4075 25.1598 29.4405 23.2428 30.8895C21.3078 32.3515 21.3188 32.3875 23.7028 32.4185C26.0798 32.4495 26.0928 32.4915 24.2028 34.0245C23.1358 34.8905 22.8148 35.3195 23.4918 34.9785C24.1678 34.6365 26.6688 35.0185 29.0488 35.8265C34.3428 37.6235 55.9818 37.2915 56.6108 35.4035C56.8628 34.6465 56.2888 34.4655 54.9638 34.8865C53.8458 35.2415 52.6408 35.0635 52.2868 34.4915C51.8678 33.8135 53.7788 33.4505 57.7618 33.4505C61.5858 33.4505 63.6478 33.0755 63.2618 32.4505C62.1858 30.7095 77.6508 31.1975 79.4138 32.9595C80.9288 34.4755 83.2578 34.0615 82.2638 32.4535C81.9718 31.9815 82.6958 31.2885 83.8718 30.9155C85.9168 30.2665 88.1608 31.9955 87.2298 33.5025C87.0098 33.8585 88.9648 33.9455 91.5738 33.6945C94.5578 33.4075 97.6928 33.8125 100.019 34.7845C102.053 35.6345 103.961 35.9375 104.258 35.4575C104.554 34.9775 106.145 34.6235 107.793 34.6705C109.442 34.7175 111.106 34.4395 111.492 34.0535C111.878 33.6675 109.734 33.4065 106.728 33.4725C103.722 33.5395 99.1188 33.2775 96.4988 32.8905C92.5058 32.3015 91.9288 31.9545 92.9288 30.7495C93.5918 29.9515 95.0198 29.5465 96.1398 29.8395C97.2498 30.1295 98.8298 29.8235 99.6518 29.1585C100.656 28.3465 100.921 28.3255 100.461 29.0945C99.9618 29.9275 103.351 30.2615 112.95 30.3255C123.194 30.3945 125.859 30.1475 124.926 29.2145C124.266 28.5545 122.497 27.9245 120.994 27.8135C119.492 27.7035 117.925 27.5765 117.512 27.5315C117.099 27.4875 116.762 27.0675 116.762 26.5985C116.762 26.1295 120.474 25.9095 125.012 26.1085C129.55 26.3075 133.937 26.1795 134.762 25.8235C137.313 24.7235 141.28 25.0515 140.996 26.3385C140.85 27.0025 141.3 27.4705 141.996 27.3795C144.965 26.9905 153.045 27.5005 152.502 28.0435C151.703 28.8425 134.182 28.7185 131.587 27.8955C130.109 27.4255 129.654 27.6235 129.981 28.5955C130.31 29.5725 132.047 29.8715 136.208 29.6685C139.611 29.5025 142.568 29.8745 143.413 30.5755C144.499 31.4775 145.128 31.4845 146.004 30.6085C146.641 29.9715 148.31 29.4955 149.712 29.5505L152.262 29.6495L149.762 30.4505C146.538 31.4835 147.067 31.5605 160.762 32.0485C174.162 32.5275 174.795 32.6845 174.272 35.4005C173.893 37.3655 174.327 37.4505 184.76 37.4505C190.746 37.4505 195.857 37.7945 196.116 38.2155C196.376 38.6355 199.89 38.9025 203.925 38.8085C207.961 38.7145 216.212 38.5475 222.262 38.4365C228.312 38.3265 234.162 37.7525 235.262 37.1615C237.852 35.7705 241.762 35.3415 241.762 36.4495C241.762 37.7025 245.804 38.1505 249.154 37.2695C250.745 36.8505 252.507 36.7925 253.069 37.1405C254.71 38.1545 259.762 38.3005 259.762 37.3345C259.762 36.8485 260.662 36.4505 261.762 36.4505C262.862 36.4505 263.762 36.0005 263.762 35.4505C263.762 34.9005 264.914 34.4505 266.321 34.4505C267.728 34.4505 268.648 34.8255 268.365 35.2835C268.082 35.7425 268.393 36.1245 269.056 36.1325C269.719 36.1415 271.69 36.4695 273.435 36.8625C276.297 37.5055 276.555 37.3735 276.068 35.5125C275.587 33.6715 274.71 33.4375 267.895 33.3255C261.074 33.2135 260.738 33.1235 264.738 32.4785C267.2 32.0805 270.083 31.9835 271.144 32.2605C272.602 32.6415 272.867 32.4215 272.226 31.3585C271.517 30.1815 271.668 30.1855 273.146 31.3865C274.683 32.6335 275.048 32.6335 275.933 31.3865C276.771 30.2035 276.858 30.2415 276.426 31.6015C275.617 34.1445 278.675 34.4805 296.172 33.7705C308.148 33.2845 311.904 33.4125 311.363 34.2875C310.967 34.9275 311.072 35.4505 311.596 35.4505C312.12 35.4505 312.807 34.7755 313.124 33.9505C313.44 33.1255 314.276 32.4575 314.981 32.4655C315.889 32.4765 315.825 32.7895 314.762 33.5415C313.429 34.4845 313.429 34.5545 314.762 34.1695C315.587 33.9305 316.205 33.0315 316.136 32.1715C316.052 31.1255 316.548 30.8095 317.636 31.2165C319.099 31.7635 319.111 31.6325 317.762 29.9045C316.301 28.0345 316.331 28.0295 318.937 29.6915C320.698 30.8155 321.739 31.0195 321.982 30.2895C322.355 29.1705 328.034 29.1195 340.512 30.1245C347.171 30.6615 349.204 32.4505 343.155 32.4505C340.429 32.4505 339.683 32.8015 340.1 33.8885C340.422 34.7265 339.945 35.5015 338.957 35.7475C338.025 35.9795 339.512 35.9415 342.262 35.6625C345.012 35.3835 347.805 35.1465 348.468 35.1365C349.131 35.1255 349.442 34.7425 349.159 34.2835C348.876 33.8255 350.358 33.4955 352.453 33.5505C355.675 33.6345 355.878 33.7565 353.772 34.3425C352.077 34.8145 351.678 35.2805 352.522 35.8025C353.204 36.2235 354.212 36.2905 354.762 35.9505C355.312 35.6105 355.769 35.9215 355.777 36.6415C355.79 37.6845 355.967 37.6745 356.652 36.5935C357.291 35.5865 357.699 35.5395 358.238 36.4115C358.638 37.0585 359.702 37.3035 360.603 36.9575C361.505 36.6125 364.459 36.1115 367.168 35.8465C369.877 35.5805 372.464 35.1345 372.916 34.8555C373.369 34.5755 373.471 35.0445 373.144 35.8985C372.766 36.8825 373.105 37.4505 374.072 37.4505C374.91 37.4505 375.822 36.8885 376.1 36.2005C376.503 35.2005 376.62 35.2005 376.683 36.2005C376.726 36.8885 377.464 37.4505 378.321 37.4505C379.302 37.4505 379.602 36.9875 379.129 36.2005C378.546 35.2305 378.73 35.2355 379.95 36.2235C381.524 37.4985 391.328 37.7485 393.262 36.5635C393.812 36.2265 401.067 35.9005 409.384 35.8385C417.701 35.7775 425.083 35.3695 425.789 34.9345C426.588 34.4395 426.824 34.5405 426.416 35.2015C425.512 36.6645 443.237 36.8025 445.943 35.3535C447.076 34.7475 447.74 34.6775 447.417 35.1985C447.072 35.7575 449.385 36.1475 453.047 36.1485L459.262 36.1495L455.262 34.9045C450.781 33.5105 450.789 33.4905 456.043 32.9375C458.38 32.6925 459.59 32.9195 459.211 33.5325C458.841 34.1325 460.013 34.4285 462.18 34.2825C464.15 34.1505 465.762 33.7345 465.762 33.3595C465.762 32.9845 476.337 32.7385 489.261 32.8135C502.186 32.8895 512.761 33.3145 512.761 33.7595C512.762 34.2045 512.343 34.3095 511.831 33.9935C511.319 33.6765 510.574 33.9465 510.175 34.5915C509.638 35.4595 510.697 35.5945 514.245 35.1075C516.883 34.7465 520.355 34.4505 521.961 34.4505C524.03 34.4505 524.661 34.0865 524.129 33.2005C523.582 32.2895 523.819 32.3075 525.006 33.2695C526.182 34.2235 527.164 34.3055 528.545 33.5665C529.703 32.9465 530.817 32.9055 531.372 33.4605C532.551 34.6395 540.062 32.1345 539.021 30.9095C538.604 30.4185 539.075 30.6405 540.068 31.4025C541.609 32.5845 541.83 32.5845 541.568 31.4005C541.328 30.3115 542.718 30.0425 548 30.1555C551.705 30.2355 554.994 29.8835 555.309 29.3755C555.623 28.8665 554.841 28.4435 553.571 28.4355C551.713 28.4225 551.555 28.2305 552.762 27.4505C553.926 26.6985 553.59 26.4475 551.262 26.3295C548.711 26.2005 548.616 26.1105 550.627 25.7295C551.928 25.4825 553.481 25.7695 554.077 26.3655C555.44 27.7285 557.091 27.7925 556.262 26.4505C555.907 25.8765 556.815 25.4505 558.394 25.4505C560.945 25.4505 561.011 25.5475 559.302 26.7975C558.025 27.7315 557.813 28.3635 558.611 28.8565C559.244 29.2485 559.762 29.0395 559.762 28.3925C559.762 27.7095 560.599 27.4365 561.761 27.7395C562.86 28.0275 564.012 27.8545 564.32 27.3565C564.628 26.8585 564.066 26.4055 563.071 26.3505C561.79 26.2805 561.991 26.0175 563.762 25.4505C565.564 24.8735 564.331 24.6225 559.345 24.5505C552.025 24.4445 551.069 23.8765 556.798 23.0375C558.703 22.7585 562.085 22.1385 564.312 21.6615C566.54 21.1835 569.352 20.8655 570.562 20.9545C571.891 21.0525 572.762 20.5425 572.762 19.6665C572.762 18.6595 573.525 18.3635 575.262 18.6955C576.885 19.0055 577.762 18.7205 577.762 17.8815C577.762 17.1705 576.749 16.3815 575.512 16.1265C574.275 15.8725 575.287 15.6375 577.762 15.6065C580.237 15.5745 589.462 15.2405 598.262 14.8655C607.062 14.4895 614.037 14.4285 613.762 14.7295C613.071 15.4855 602.999 16.5305 592.427 16.9425C587.568 17.1315 583.331 17.5485 583.011 17.8685C582.691 18.1885 583.404 18.4505 584.595 18.4505C585.787 18.4505 586.762 18.9705 586.762 19.6055C586.762 20.2605 587.628 19.9765 588.762 18.9505C589.862 17.9555 590.762 17.5975 590.762 18.1565C590.762 18.7155 591.999 18.9585 593.512 18.6965C596.18 18.2335 596.203 18.2665 594.262 19.8135C592.383 21.3105 592.609 21.3845 598.012 21.0325C601.175 20.8275 603.762 21.0625 603.762 21.5545C603.762 22.0475 602.749 22.4865 601.512 22.5295C600.275 22.5725 599.825 22.8355 600.512 23.1125C602.789 24.0315 601.809 25.3195 598.589 25.6375C594.632 26.0275 593.479 28.4505 597.25 28.4505C598.71 28.4505 600.519 29.0645 601.269 29.8145C602.191 30.7365 604.301 31.0465 607.782 30.7725C610.615 30.5485 612.688 30.7605 612.39 31.2435C612.087 31.7325 613.798 31.8245 616.263 31.4505C618.691 31.0815 621.247 31.1325 621.943 31.5625C622.64 31.9925 623.446 31.9645 623.736 31.4985C624.147 30.8375 632.226 29.9005 641.071 29.4885C641.516 29.4675 641.562 28.8885 641.174 28.2005C640.619 27.2165 640.748 27.2095 641.78 28.1655C642.819 29.1275 643.364 29.0235 644.395 27.6655C645.283 26.4975 645.709 26.3705 645.73 27.2675C645.752 28.1525 646.46 28.3635 647.887 27.9105C649.317 27.4565 649.789 27.5985 649.328 28.3435C648.952 28.9525 649.135 29.4505 649.734 29.4505C650.334 29.4505 651.083 28.7785 651.398 27.9565C651.714 27.1345 652.422 26.7405 652.974 27.0815C653.641 27.4935 653.637 27.9095 652.963 28.3255C652.407 28.6695 657.646 28.7955 664.607 28.6065C671.567 28.4165 677.037 28.4725 676.762 28.7305C676.487 28.9885 671.312 29.5105 665.262 29.8915C654.644 30.5605 648.501 32.3065 655.812 32.5785C662.431 32.8245 674.317 32.5495 681.762 31.9775C685.887 31.6605 690.611 31.3005 692.261 31.1765C693.91 31.0515 696.021 30.3115 696.951 29.5295C698.803 27.9735 703.621 27.4135 704.394 28.6645C704.661 29.0965 706.034 29.4505 707.443 29.4505C709.546 29.4505 709.795 29.7065 708.827 30.8715C707.859 32.0385 708.019 32.1965 709.72 31.7515C710.86 31.4535 712.051 30.7915 712.367 30.2815C712.701 29.7395 713.528 29.8415 714.351 30.5245C716.266 32.1135 716.145 30.9765 714.191 29.0215C712.762 27.5935 712.995 27.4505 716.75 27.4505C719.129 27.4505 720.629 27.0445 720.288 26.4915C719.928 25.9105 721.183 25.7515 723.479 26.0885C725.559 26.3945 727.937 26.6095 728.762 26.5675C737.184 26.1365 746.314 26.7255 746.94 27.7395C747.48 28.6115 748.044 28.4475 749 27.1395C749.919 25.8835 751.973 25.2295 755.79 24.9785C758.799 24.7805 760.474 24.8385 759.512 25.1075C757.504 25.6695 757.145 27.4095 759.012 27.5335C759.7 27.5795 761.275 27.7295 762.512 27.8665C763.749 28.0035 764.762 27.7145 764.762 27.2245C764.762 26.7335 765.212 26.6105 765.762 26.9505C766.312 27.2905 766.762 26.8665 766.762 26.0095C766.762 25.1525 766.354 24.4505 765.856 24.4505C765.357 24.4505 765.185 23.5505 765.472 22.4505C765.95 20.6235 764.995 19.9405 762.512 20.3325C762.099 20.3975 761.833 20.1135 761.921 19.7005C762.271 18.0445 760.517 15.6075 759.308 16.0715C758.6 16.3425 757.753 15.8695 757.427 15.0195C757.101 14.1695 757.155 13.5815 757.548 13.7125C757.941 13.8435 758.487 13.5005 758.762 12.9505C759.037 12.4005 757.848 11.8135 756.12 11.6455C753.735 11.4135 753.084 10.9315 753.419 9.64551C753.73 8.44751 752.747 7.45251 750.061 6.25151L746.262 4.5535L749.762 4.42251L753.262 4.29251L750.512 3.2885C748.999 2.7355 747.762 1.94551 747.762 1.53151C747.762 1.11751 744.95 0.643508 741.512 0.477508C735.127 0.169508 703.739 -0.156489 703.432 0.0825112ZM377.575 4.13351C378.296 4.42251 379.159 4.3865 379.491 4.0545C379.823 3.7225 379.233 3.48651 378.179 3.52951C377.014 3.57751 376.777 3.81451 377.575 4.13351ZM579.031 4.10651C578.354 4.38051 577.004 4.39751 576.031 4.14351C575.058 3.88951 575.612 3.66551 577.262 3.64551C578.912 3.62551 579.708 3.83251 579.031 4.10651ZM637.546 4.18451C634.951 4.38951 630.451 4.39151 627.546 4.18851C624.64 3.98651 626.762 3.81851 632.262 3.81551C637.762 3.81351 640.14 3.97851 637.546 4.18451ZM247.762 7.84351C247.762 8.05951 248.437 8.49551 249.262 8.81251C250.087 9.12851 250.762 8.95151 250.762 8.41951C250.762 7.88651 250.087 7.45051 249.262 7.45051C248.437 7.45051 247.762 7.62751 247.762 7.84351ZM245.669 8.87651C244.807 9.73951 236.762 10.1225 236.762 9.30051C236.762 8.83351 238.862 8.45051 241.429 8.45051C243.995 8.45051 245.904 8.64251 245.669 8.87651ZM265.762 10.6145C265.762 11.0745 264.75 11.4845 263.512 11.5275C262.274 11.5695 260.472 11.7545 259.507 11.9395C258.542 12.1235 258.006 11.8645 258.316 11.3625C258.626 10.8605 258.403 10.4505 257.821 10.4505C257.239 10.4505 256.762 10.9005 256.762 11.4505C256.762 13.0195 255.041 12.6205 254.38 10.8985C253.878 9.58851 254.72 9.38051 259.773 9.56251C263.067 9.68151 265.762 10.1545 265.762 10.6145ZM233.159 12.6175C232.876 13.0755 231.546 13.4505 230.203 13.4505C228.86 13.4505 227.762 13.0755 227.762 12.6175C227.762 12.1585 229.092 11.7835 230.718 11.7835C232.344 11.7835 233.442 12.1585 233.159 12.6175ZM245.2 14.3455C244.941 14.6055 244.231 14.3195 243.623 13.7115C243.016 13.1045 241.786 12.8395 240.89 13.1225C239.564 13.5435 239.524 13.4525 240.673 12.6365C242.049 11.6585 246.287 13.2585 245.2 14.3455ZM577.762 11.8445C577.762 12.5815 571.793 13.0875 570.744 12.4395C570.159 12.0775 571.498 11.7105 573.721 11.6235C575.943 11.5365 577.762 11.6355 577.762 11.8445ZM622.196 12.5565C621.525 13.6425 619.057 13.7365 618.417 12.7005C618.162 12.2885 619.033 11.8855 620.351 11.8065C621.67 11.7275 622.5 12.0655 622.196 12.5565ZM696.262 12.4795C692.832 13.4555 664.758 14.2505 664.761 13.3715C664.761 13.0535 667.339 12.6885 670.489 12.5615C673.639 12.4335 676.304 12.2445 676.41 12.1395C676.516 12.0355 681.702 11.8775 687.933 11.7885C695.619 11.6785 698.297 11.9005 696.262 12.4795ZM528.762 14.0575C528.762 14.2735 528.087 14.4505 527.262 14.4505C526.437 14.4505 525.762 14.0145 525.762 13.4815C525.762 12.9495 526.437 12.7725 527.262 13.0885C528.087 13.4055 528.762 13.8415 528.762 14.0575ZM612.491 13.0545C612.159 13.3865 611.296 13.4225 610.575 13.1335C609.777 12.8145 610.014 12.5775 611.179 12.5295C612.233 12.4865 612.823 12.7225 612.491 13.0545ZM616.491 13.0545C616.159 13.3865 615.296 13.4225 614.575 13.1335C613.777 12.8145 614.014 12.5775 615.179 12.5295C616.233 12.4865 616.823 12.7225 616.491 13.0545ZM431.107 14.9935C430.781 15.8425 430.3 16.3225 430.038 16.0605C429.776 15.7985 429.858 15.1035 430.221 14.5175C431.207 12.9215 431.783 13.2315 431.107 14.9935ZM511.642 14.9975C511.892 15.2465 510.247 15.4505 507.988 15.4505C505.728 15.4505 503.602 15.9005 503.262 16.4505C502.922 17.0005 502.108 17.4435 501.453 17.4355C500.737 17.4255 500.861 17.0325 501.762 16.4505C502.881 15.7275 502.246 15.4395 499.262 15.3155L495.262 15.1505L499.762 14.5335C504.311 13.9115 510.81 14.1645 511.642 14.9975ZM516.012 14.1125C515.325 14.3905 514.2 14.3905 513.512 14.1125C512.825 13.8355 513.387 13.6085 514.762 13.6085C516.137 13.6085 516.7 13.8355 516.012 14.1125ZM214.262 15.4505C213.922 16.0005 212.658 16.4055 211.453 16.3505C209.413 16.2585 209.435 16.1955 211.762 15.4505C213.137 15.0105 214.401 14.6055 214.571 14.5505C214.741 14.4955 214.602 14.9005 214.262 15.4505ZM220.762 15.4505C220.762 16.0005 220.312 16.4505 219.762 16.4505C219.212 16.4505 218.762 16.0005 218.762 15.4505C218.762 14.9005 219.212 14.4505 219.762 14.4505C220.312 14.4505 220.762 14.9005 220.762 15.4505ZM568.838 15.3825C567.02 16.5335 556.628 16.4765 557.343 15.3195C557.638 14.8415 560.666 14.4575 564.071 14.4655C568.137 14.4755 569.773 14.7905 568.838 15.3825ZM694.441 15.1055C693.415 16.1305 674.236 16.3645 672.667 15.3705C671.801 14.8225 675.832 14.4755 683.179 14.4655C689.733 14.4575 694.801 14.7455 694.441 15.1055ZM213.778 17.7395L218.262 18.1655L213.34 18.0585C209.878 17.9825 208.298 17.5055 208.014 16.4505C207.735 15.4135 207.87 15.3155 208.452 16.1315C208.916 16.7815 211.312 17.5045 213.778 17.7395ZM203.288 18.2575C202.981 18.5655 202.174 18.2585 201.495 17.5745C200.515 16.5865 200.63 16.4725 202.055 17.0145C203.041 17.3905 203.596 17.9495 203.288 18.2575ZM207.156 18.0345C207.529 19.0075 207.306 19.4655 206.575 19.2215C205.08 18.7235 204.257 16.4505 205.572 16.4505C206.109 16.4505 206.821 17.1635 207.156 18.0345ZM494.524 17.1375C493.568 17.3875 491.768 17.3965 490.524 17.1575C489.28 16.9185 490.062 16.7135 492.262 16.7025C494.462 16.6915 495.48 16.8875 494.524 17.1375ZM578.762 18.4505C578.762 19.0005 579.437 19.4505 580.262 19.4505C581.087 19.4505 581.762 19.0005 581.762 18.4505C581.762 17.9005 581.087 17.4505 580.262 17.4505C579.437 17.4505 578.762 17.9005 578.762 18.4505ZM183.026 19.1545C181.796 19.3915 179.546 19.3975 178.026 19.1685C176.506 18.9385 177.512 18.7445 180.262 18.7365C183.012 18.7295 184.256 18.9175 183.026 19.1545ZM215.491 20.0545C215.159 20.3865 214.296 20.4225 213.575 20.1335C212.777 19.8145 213.014 19.5775 214.179 19.5295C215.233 19.4865 215.823 19.7225 215.491 20.0545ZM447.762 20.8915C447.762 21.1345 447.312 21.6105 446.762 21.9505C446.212 22.2905 445.762 22.0915 445.762 21.5095C445.762 20.9275 446.212 20.4505 446.762 20.4505C447.312 20.4505 447.762 20.6485 447.762 20.8915ZM574.575 21.1335C575.296 21.4225 576.159 21.3865 576.491 21.0545C576.823 20.7225 576.233 20.4865 575.179 20.5295C574.014 20.5775 573.777 20.8145 574.575 21.1335ZM578.575 21.1335C579.296 21.4225 580.159 21.3865 580.491 21.0545C580.823 20.7225 580.233 20.4865 579.179 20.5295C578.014 20.5775 577.777 20.8145 578.575 21.1335ZM436.158 22.5125C436.466 22.8215 433.916 23.0905 430.49 23.1105C426.585 23.1335 425.194 22.8945 426.762 22.4705C429.689 21.6785 435.349 21.7035 436.158 22.5125ZM750.487 22.8415C750.821 23.1765 747.083 23.4185 742.179 23.3805C736.609 23.3365 734.013 23.0075 735.262 22.5035C737.475 21.6115 749.524 21.8795 750.487 22.8415ZM417.491 23.0545C417.159 23.3865 416.296 23.4225 415.575 23.1335C414.777 22.8145 415.014 22.5775 416.179 22.5295C417.233 22.4865 417.823 22.7225 417.491 23.0545ZM732.762 22.8915C732.762 23.9465 730.843 24.3905 730.272 23.4665C729.927 22.9075 730.346 22.4505 731.203 22.4505C732.06 22.4505 732.762 22.6485 732.762 22.8915ZM153.405 24.9505C152.58 25.7755 151.337 26.4505 150.642 26.4505C149.934 26.4505 150.231 25.8065 151.321 24.9825C153.868 23.0555 155.322 23.0335 153.405 24.9505ZM568.762 24.4195C568.762 24.9515 569.437 25.1285 570.262 24.8125C571.087 24.4955 571.762 24.0595 571.762 23.8435C571.762 23.6275 571.087 23.4505 570.262 23.4505C569.437 23.4505 568.762 23.8865 568.762 24.4195ZM147.262 25.4505C149.034 26.2125 148.949 26.3175 146.512 26.3805C145 26.4185 143.762 26.0005 143.762 25.4505C143.762 24.2765 144.531 24.2765 147.262 25.4505ZM418.031 25.1065C417.354 25.3805 416.004 25.3975 415.031 25.1435C414.058 24.8895 414.612 24.6655 416.262 24.6455C417.912 24.6255 418.708 24.8325 418.031 25.1065ZM433.012 25.1735C431.224 25.3955 428.3 25.3955 426.512 25.1735C424.724 24.9525 426.187 24.7705 429.762 24.7705C433.337 24.7705 434.8 24.9525 433.012 25.1735ZM494.491 25.0545C494.159 25.3865 493.296 25.4225 492.575 25.1335C491.777 24.8145 492.014 24.5775 493.179 24.5295C494.233 24.4865 494.823 24.7225 494.491 25.0545ZM502.762 26.4305C501.151 27.4935 504.279 27.8315 512.262 27.4565C514.462 27.3535 515.921 27.6135 515.504 28.0345C515.087 28.4555 511.581 28.7325 507.711 28.6515C502.456 28.5405 500.833 28.8125 501.295 29.7265C501.636 30.3995 501.013 29.9285 499.91 28.6795C498.568 27.1575 497.675 26.7815 497.206 27.5405C496.821 28.1645 497.065 29.0205 497.75 29.4425C498.444 29.8715 497.064 30.1995 494.628 30.1845C492.227 30.1705 491.09 29.9585 492.103 29.7135C493.115 29.4685 494.699 28.5135 495.623 27.5895C496.546 26.6665 498.868 25.8055 500.782 25.6755C503.37 25.5015 503.877 25.6945 502.762 26.4305ZM667.512 26.1395C666.55 26.3915 664.974 26.3915 664.012 26.1395C663.05 25.8885 663.837 25.6825 665.762 25.6825C667.687 25.6825 668.474 25.8885 667.512 26.1395ZM673.491 26.0545C673.159 26.3865 672.296 26.4225 671.575 26.1335C670.777 25.8145 671.014 25.5775 672.179 25.5295C673.233 25.4865 673.823 25.7225 673.491 26.0545ZM116.239 27.8545L118.944 29.2575L115.21 29.1515C113.156 29.0935 111.993 28.8735 112.625 28.6625C113.257 28.4525 113.52 27.8685 113.209 27.3655C112.434 26.1105 113.078 26.2145 116.239 27.8545ZM279.491 27.0545C279.159 27.3865 278.296 27.4225 277.575 27.1335C276.777 26.8145 277.014 26.5775 278.179 26.5295C279.233 26.4865 279.823 26.7225 279.491 27.0545ZM284.012 27.1125C283.325 27.3905 282.2 27.3905 281.512 27.1125C280.825 26.8355 281.387 26.6085 282.762 26.6085C284.137 26.6085 284.7 26.8355 284.012 27.1125ZM493.262 27.4505C492.922 28.0005 491.658 28.4055 490.453 28.3505C488.413 28.2585 488.435 28.1955 490.762 27.4505C492.137 27.0105 493.401 26.6055 493.571 26.5505C493.741 26.4955 493.602 26.9005 493.262 27.4505ZM520.762 27.4505C520.762 28.0005 520.285 28.4505 519.703 28.4505C519.121 28.4505 518.922 28.0005 519.262 27.4505C519.602 26.9005 520.078 26.4505 520.321 26.4505C520.564 26.4505 520.762 26.9005 520.762 27.4505ZM530.932 27.1745C528.549 27.4715 527.757 27.9965 528.15 29.0195C528.911 31.0025 527.747 30.8125 526.204 28.7025C525.501 27.7405 524.564 27.3145 524.123 27.7565C523.681 28.1975 523.982 28.9775 524.791 29.4895C525.6 30.0015 525.755 30.4265 525.134 30.4355C524.514 30.4435 523.483 29.8195 522.843 29.0475C521.351 27.2505 522.356 26.8945 529.124 26.8175C532.149 26.7835 532.892 26.9305 530.932 27.1745ZM538.012 27.1125C537.325 27.3905 536.2 27.3905 535.512 27.1125C534.825 26.8355 535.387 26.6085 536.762 26.6085C538.137 26.6085 538.7 26.8355 538.012 27.1125ZM564.634 28.1135C563.478 29.5145 563.476 29.8475 564.625 30.2345C565.776 30.6215 565.776 30.8275 564.625 31.5565C563.716 32.1325 564.491 32.4245 566.953 32.4355C568.983 32.4435 570.888 32.0565 571.185 31.5745C571.483 31.0925 574.997 30.7975 578.994 30.9195C582.992 31.0405 587.612 30.8135 589.262 30.4135C592.58 29.6105 592.748 29.6295 575.773 28.8575C571.654 28.6695 568.129 28.0515 567.94 27.4835C567.439 25.9805 566.2 26.2165 564.634 28.1135ZM588.762 27.4045C589.587 27.9635 591.124 28.4265 592.179 28.4355C594.737 28.4555 593.939 27.8835 590.262 27.0605C588.071 26.5705 587.667 26.6635 588.762 27.4045ZM480.762 28.4505C480.762 29.0005 480.285 29.4505 479.703 29.4505C479.121 29.4505 478.922 29.0005 479.262 28.4505C479.602 27.9005 480.078 27.4505 480.321 27.4505C480.564 27.4505 480.762 27.9005 480.762 28.4505ZM122.491 29.0545C122.159 29.3865 121.296 29.4225 120.575 29.1335C119.777 28.8145 120.014 28.5775 121.179 28.5295C122.233 28.4865 122.823 28.7225 122.491 29.0545ZM126.762 29.4505C126.762 30.0005 127.212 30.4505 127.762 30.4505C128.312 30.4505 128.762 30.0005 128.762 29.4505C128.762 28.9005 128.312 28.4505 127.762 28.4505C127.212 28.4505 126.762 28.9005 126.762 29.4505ZM315.031 29.1065C314.354 29.3805 313.004 29.3975 312.031 29.1435C311.058 28.8895 311.612 28.6655 313.262 28.6455C314.912 28.6255 315.708 28.8325 315.031 29.1065ZM561.262 29.4505C561.602 30.0005 562.078 30.4505 562.321 30.4505C562.564 30.4505 562.762 30.0005 562.762 29.4505C562.762 28.9005 562.285 28.4505 561.703 28.4505C561.121 28.4505 560.922 28.9005 561.262 29.4505ZM617.012 29.1565C615.775 29.3945 613.749 29.3945 612.512 29.1565C611.275 28.9175 612.287 28.7225 614.762 28.7225C617.237 28.7225 618.249 28.9175 617.012 29.1565ZM686.012 29.1565C684.775 29.3945 682.749 29.3945 681.512 29.1565C680.275 28.9175 681.287 28.7225 683.762 28.7225C686.237 28.7225 687.249 28.9175 686.012 29.1565ZM91.1258 30.9445C90.8098 31.7665 90.1018 32.1605 89.5498 31.8195C88.9338 31.4385 89.0708 30.8695 89.9048 30.3405C91.7258 29.1875 91.7878 29.2175 91.1258 30.9445ZM489.262 30.4505C488.922 31.0005 488.221 31.4505 487.703 31.4505C487.185 31.4505 486.762 31.0005 486.762 30.4505C486.762 29.9005 487.464 29.4505 488.321 29.4505C489.178 29.4505 489.602 29.9005 489.262 30.4505ZM534.512 30.1395C533.55 30.3915 531.974 30.3915 531.012 30.1395C530.05 29.8885 530.837 29.6825 532.762 29.6825C534.687 29.6825 535.474 29.8885 534.512 30.1395ZM288.524 31.1375C287.568 31.3875 285.768 31.3965 284.524 31.1575C283.28 30.9185 284.062 30.7135 286.262 30.7025C288.462 30.6915 289.48 30.8875 288.524 31.1375ZM452.171 31.8495C451.121 32.5695 448.687 33.0385 446.762 32.8905C444.837 32.7435 441.998 32.5835 440.453 32.5365C438.908 32.4895 437.856 32.1125 438.116 31.7005C438.376 31.2885 442.074 30.8585 446.334 30.7455C452.986 30.5685 453.81 30.7245 452.171 31.8495ZM556.762 31.4505C556.762 32.0005 557.185 32.4505 557.703 32.4505C558.221 32.4505 558.922 32.0005 559.262 31.4505C559.602 30.9005 559.178 30.4505 558.321 30.4505C557.464 30.4505 556.762 30.9005 556.762 31.4505ZM697.575 31.1335C698.296 31.4225 699.159 31.3865 699.491 31.0545C699.823 30.7225 699.233 30.4865 698.179 30.5295C697.014 30.5775 696.777 30.8145 697.575 31.1335ZM762.762 31.4505C762.762 32.0005 763.689 32.4505 764.821 32.4505C765.953 32.4505 766.602 32.0005 766.262 31.4505C765.922 30.9005 764.996 30.4505 764.203 30.4505C763.41 30.4505 762.762 30.9005 762.762 31.4505ZM84.2088 32.3655C84.5198 32.8685 84.2088 33.4815 83.5178 33.7285C82.8268 33.9745 82.6238 34.5625 83.0658 35.0345C83.5088 35.5065 84.2888 35.2305 84.8008 34.4215C86.0328 32.4735 85.9988 31.4505 84.7028 31.4505C84.1208 31.4505 83.8978 31.8625 84.2088 32.3655ZM128.538 32.1885C131.519 32.3965 133.56 32.9685 133.229 33.5035C132.907 34.0245 134.133 34.4665 135.953 34.4865C137.773 34.5065 146.07 34.7835 154.391 35.1035C164.494 35.4925 170.141 35.3245 171.391 34.5985C172.799 33.7805 169.47 33.5035 157.953 33.4805C148.009 33.4615 142.861 33.1005 143.262 32.4505C143.661 31.8045 140.234 31.5155 133.571 31.6355C127.871 31.7375 125.621 31.9855 128.538 32.1885ZM352.491 32.0545C352.159 32.3865 351.296 32.4225 350.575 32.1335C349.777 31.8145 350.014 31.5775 351.179 31.5295C352.233 31.4865 352.823 31.7225 352.491 32.0545ZM589.671 32.5275C588.646 33.1775 589.011 33.4245 591.012 33.4355C593.998 33.4515 594.536 32.9615 592.421 32.1505C591.684 31.8675 590.446 32.0375 589.671 32.5275ZM604.762 32.4075C599.964 33.1695 602.281 34.1745 607.262 33.4925C609.462 33.1905 610.587 32.6985 609.762 32.3975C608.937 32.0975 606.687 32.1015 604.762 32.4075ZM638.262 32.3365L635.262 33.0455L638.156 33.6365C639.748 33.9625 642.344 33.8575 643.925 33.4035C645.674 32.9025 646.574 32.9455 646.222 33.5145C645.885 34.0605 648.067 34.3935 651.453 34.3145C654.648 34.2395 656.137 33.9715 654.762 33.7185C653.387 33.4655 651.812 32.9275 651.262 32.5225C649.945 31.5525 642.054 31.4395 638.262 32.3365ZM753.012 32.1395C753.974 32.3915 755.55 32.3915 756.512 32.1395C757.474 31.8885 756.687 31.6825 754.762 31.6825C752.837 31.6825 752.05 31.8885 753.012 32.1395ZM67.5748 33.1335C68.2958 33.4225 69.1588 33.3865 69.4908 33.0545C69.8228 32.7225 69.2328 32.4865 68.1788 32.5295C67.0138 32.5775 66.7768 32.8145 67.5748 33.1335ZM140.524 33.1375C139.568 33.3875 137.768 33.3965 136.524 33.1575C135.28 32.9185 136.062 32.7135 138.262 32.7025C140.462 32.6915 141.48 32.8875 140.524 33.1375ZM424.031 33.1065C423.354 33.3805 422.004 33.3975 421.031 33.1435C420.058 32.8895 420.612 32.6655 422.262 32.6455C423.912 32.6255 424.708 32.8325 424.031 33.1065ZM435.491 33.0545C435.159 33.3865 434.296 33.4225 433.575 33.1335C432.777 32.8145 433.014 32.5775 434.179 32.5295C435.233 32.4865 435.823 32.7225 435.491 33.0545ZM574.016 33.6305C572.87 34.0745 573.475 34.3095 575.762 34.3095C577.687 34.3095 580.162 33.9365 581.262 33.4795C582.778 32.8495 582.355 32.6845 579.516 32.7995C577.455 32.8825 574.98 33.2565 574.016 33.6305ZM712.512 33.1125C713.2 33.3905 714.325 33.3905 715.012 33.1125C715.7 32.8355 715.137 32.6085 713.762 32.6085C712.387 32.6085 711.825 32.8355 712.512 33.1125ZM50.1588 34.6175C49.8758 35.0755 48.9688 35.4505 48.1438 35.4505C47.3188 35.4505 46.8758 35.0755 47.1588 34.6175C47.4418 34.1585 48.3488 33.7835 49.1738 33.7835C49.9988 33.7835 50.4418 34.1585 50.1588 34.6175ZM319.031 34.1435C320.004 34.3975 321.354 34.3805 322.031 34.1065C322.708 33.8325 321.912 33.6255 320.262 33.6455C318.612 33.6655 318.058 33.8895 319.031 34.1435ZM336.575 34.1335C337.296 34.4225 338.159 34.3865 338.491 34.0545C338.823 33.7225 338.233 33.4865 337.179 33.5295C336.014 33.5775 335.777 33.8145 336.575 34.1335ZM45.7618 35.0585C45.7618 35.8855 43.8198 36.3535 43.3748 35.6335C43.0858 35.1665 43.5048 34.7835 44.3058 34.7835C45.1068 34.7835 45.7618 34.9075 45.7618 35.0585ZM58.2618 35.4505C57.9218 36.0005 58.1208 36.4505 58.7028 36.4505C59.2848 36.4505 59.7618 36.0005 59.7618 35.4505C59.7618 34.9005 59.5638 34.4505 59.3208 34.4505C59.0778 34.4505 58.6018 34.9005 58.2618 35.4505ZM177.262 35.4505C177.602 36.0005 177.403 36.4505 176.821 36.4505C176.239 36.4505 175.762 36.0005 175.762 35.4505C175.762 34.9005 175.96 34.4505 176.203 34.4505C176.446 34.4505 176.922 34.9005 177.262 35.4505ZM390.012 35.1735C388.224 35.3955 385.3 35.3955 383.512 35.1735C381.724 34.9525 383.187 34.7705 386.762 34.7705C390.337 34.7705 391.8 34.9525 390.012 35.1735ZM670.762 35.3095C670.762 36.5625 673.014 38.1105 674.512 37.8865C675.2 37.7845 676.55 37.6305 677.512 37.5455C678.991 37.4135 679.03 37.2605 677.762 36.5555C675.247 35.1555 670.762 34.3575 670.762 35.3095ZM679.762 36.4505C679.762 37.0005 680.212 37.4505 680.762 37.4505C681.312 37.4505 681.762 37.0005 681.762 36.4505C681.762 35.9005 681.312 35.4505 680.762 35.4505C680.212 35.4505 679.762 35.9005 679.762 36.4505ZM697.012 36.1395C697.974 36.3915 699.55 36.3915 700.512 36.1395C701.474 35.8885 700.687 35.6825 698.762 35.6825C696.837 35.6825 696.05 35.8885 697.012 36.1395ZM639.762 37.2635C639.762 37.7105 641.9 38.1695 644.512 38.2825C647.97 38.4325 648.854 38.2155 647.762 37.4845C645.964 36.2815 639.762 36.1105 639.762 37.2635ZM669.685 36.7005C668.893 39.2895 669.295 40.0585 671.538 40.2445C674.015 40.4495 674.032 40.4065 672.264 38.4525C670.568 36.5795 669.868 36.1035 669.685 36.7005ZM68.5748 38.1335C69.2958 38.4225 70.1588 38.3865 70.4908 38.0545C70.8228 37.7225 70.2328 37.4865 69.1788 37.5295C68.0138 37.5775 67.7768 37.8145 68.5748 38.1335ZM73.0118 38.1395C73.9738 38.3915 75.5498 38.3915 76.5118 38.1395C77.4738 37.8885 76.6868 37.6825 74.7618 37.6825C72.8368 37.6825 72.0498 37.8885 73.0118 38.1395ZM493.269 38.4395C492.919 39.0055 493.32 39.1735 494.21 38.8325C495.942 38.1675 496.259 37.4505 494.821 37.4505C494.303 37.4505 493.605 37.8955 493.269 38.4395ZM620.762 38.5095C620.762 39.0915 621.212 39.2905 621.762 38.9505C622.312 38.6105 622.762 38.1345 622.762 37.8915C622.762 37.6485 622.312 37.4505 621.762 37.4505C621.212 37.4505 620.762 37.9275 620.762 38.5095ZM737.972 38.6305C737.031 39.0045 740.274 39.3415 745.179 39.3805C750.083 39.4185 753.799 39.1545 753.437 38.7925C752.551 37.9055 740.121 37.7755 737.972 38.6305ZM757.262 38.4505L754.262 39.2135L757.453 39.3325C759.208 39.3975 760.922 39.0005 761.262 38.4505C761.946 37.3435 761.611 37.3435 757.262 38.4505ZM413.512 39.1125C414.2 39.3905 415.325 39.3905 416.012 39.1125C416.7 38.8355 416.137 38.6085 414.762 38.6085C413.387 38.6085 412.825 38.8355 413.512 39.1125ZM459.424 39.1215C458.941 39.6045 449.557 40.5685 442.285 40.8815C438.422 41.0475 432.562 41.3035 429.262 41.4505L423.262 41.7175L428.262 42.4965C435.644 43.6465 457.651 43.5615 462.262 42.3655C464.462 41.7945 466.782 41.2805 467.417 41.2225C468.052 41.1645 468.335 40.5025 468.047 39.7505C467.704 38.8565 466.169 38.4635 463.612 38.6145C461.461 38.7415 459.576 38.9695 459.424 39.1215ZM609.262 39.3765C606.498 40.0345 606.637 40.1255 611.026 40.5295C614.886 40.8845 620.702 40.0575 618.762 39.4295C616.84 38.8065 611.77 38.7785 609.262 39.3765ZM634.575 39.1335C635.296 39.4225 636.159 39.3865 636.491 39.0545C636.823 38.7225 636.233 38.4865 635.179 38.5295C634.014 38.5775 633.777 38.8145 634.575 39.1335ZM382.012 40.1395C382.974 40.3915 384.55 40.3915 385.512 40.1395C386.474 39.8885 385.687 39.6825 383.762 39.6825C381.837 39.6825 381.05 39.8885 382.012 40.1395ZM554.762 40.4505C553.543 41.2385 553.672 41.4225 555.453 41.4355C556.658 41.4435 557.922 41.0005 558.262 40.4505C559.049 39.1775 556.732 39.1775 554.762 40.4505ZM562.637 40.5485C561.713 41.1345 562.492 41.4245 565.012 41.4355C567.075 41.4435 568.762 41.1125 568.761 40.7005C568.76 39.6265 564.269 39.5155 562.637 40.5485ZM641.762 39.9685C641.762 40.7775 644.628 41.1515 645.709 40.4825C646.519 39.9825 646.036 39.7005 644.369 39.7005C642.935 39.7005 641.762 39.8215 641.762 39.9685ZM190.031 41.1435C191.004 41.3975 192.354 41.3805 193.031 41.1065C193.708 40.8325 192.912 40.6255 191.262 40.6455C189.612 40.6655 189.058 40.8895 190.031 41.1435ZM199.762 41.6365C197.837 42.1225 193.183 42.6965 189.42 42.9105C185.657 43.1255 182.349 43.5305 182.068 43.8115C180.741 45.1385 190.394 45.6405 204.603 44.9825C226.998 43.9455 235.572 43.8465 241.262 44.5575C244.012 44.9015 246.411 44.7965 246.593 44.3245C246.775 43.8505 247.671 43.8475 248.593 44.3165C249.511 44.7835 252.512 44.8405 255.262 44.4425L260.262 43.7175L254.762 43.5705C248.392 43.3995 244.581 42.5525 245.258 41.4565C245.518 41.0355 241.389 40.6175 236.082 40.5275C229.134 40.4105 226.204 40.7265 225.613 41.6575C224.945 42.7105 224.79 42.7075 224.777 41.6415C224.768 40.8605 224.265 40.6395 223.53 41.0945C221.879 42.1145 218.762 42.3005 218.762 41.3785C218.762 40.3565 204.039 40.5565 199.762 41.6365ZM256.512 41.1565C257.75 41.3945 259.774 41.3945 261.012 41.1565C262.25 40.9175 261.237 40.7225 258.762 40.7225C256.287 40.7225 255.274 40.9175 256.512 41.1565ZM512.012 41.1395C512.974 41.3915 514.55 41.3915 515.512 41.1395C516.474 40.8885 515.687 40.6825 513.762 40.6825C511.837 40.6825 511.05 40.8885 512.012 41.1395ZM550.575 41.1335C551.296 41.4225 552.159 41.3865 552.491 41.0545C552.823 40.7225 552.233 40.4865 551.179 40.5295C550.014 40.5775 549.777 40.8145 550.575 41.1335ZM54.0118 42.1395C54.9748 42.3915 56.5488 42.3915 57.5118 42.1395C58.4748 41.8885 57.6868 41.6825 55.7618 41.6825C53.8368 41.6825 53.0488 41.8885 54.0118 42.1395ZM237.762 42.4965C238.857 43.2375 238.453 43.3305 236.262 42.8405C232.585 42.0175 231.787 41.4455 234.345 41.4655C235.399 41.4745 236.937 41.9375 237.762 42.4965ZM380.762 42.6245C380.762 43.6955 399.643 43.5675 402.262 42.4785C403.473 41.9745 399.625 41.6765 392.512 41.7225C386.05 41.7645 380.762 42.1695 380.762 42.6245ZM420.575 42.1335C421.296 42.4225 422.159 42.3865 422.491 42.0545C422.823 41.7225 422.233 41.4865 421.179 41.5295C420.014 41.5775 419.777 41.8145 420.575 42.1335ZM104.262 43.4505C103.922 44.0005 104.571 44.4505 105.703 44.4505C106.835 44.4505 107.762 44.0005 107.762 43.4505C107.762 42.9005 107.114 42.4505 106.321 42.4505C105.528 42.4505 104.602 42.9005 104.262 43.4505ZM117.314 43.3665C117.066 43.7675 114.96 43.9445 112.634 43.7605C110.307 43.5765 108.677 43.6985 109.011 44.0325C110.078 45.0995 123.038 45.7065 122.391 44.6595C121.603 43.3835 117.888 42.4375 117.314 43.3665ZM171.262 43.4755C168.86 44.0665 169.441 44.2375 174.179 44.3325C177.433 44.3975 179.908 44.2885 179.679 44.0915C178.589 43.1515 173.955 42.8125 171.262 43.4755ZM95.0308 44.1435C96.0038 44.3975 97.3538 44.3805 98.0308 44.1065C98.7078 43.8325 97.9118 43.6255 96.2618 43.6455C94.6118 43.6655 94.0578 43.8895 95.0308 44.1435ZM52.5748 45.1335C53.2958 45.4225 54.1588 45.3865 54.4908 45.0545C54.8228 44.7225 54.2328 44.4865 53.1788 44.5295C52.0138 44.5775 51.7768 44.8145 52.5748 45.1335ZM124.512 45.1125C125.2 45.3905 126.325 45.3905 127.012 45.1125C127.7 44.8355 127.137 44.6085 125.762 44.6085C124.387 44.6085 123.825 44.8355 124.512 45.1125Z" fill="#DFAD9D"/>
</svg>
