<svg width="333" height="36" viewBox="0 0 333 36" fill="none" xmlns="http://www.w3.org/2000/svg">
<path fill-rule="evenodd" clip-rule="evenodd" d="M304.934 8.42917C299.172 7.10933 287.581 6.00209 254.504 3.61315C230.685 1.89265 220.369 1.41512 196.633 0.933609C161.296 0.217062 142.674 0.802182 103.149 3.87127C95.1586 4.4918 82.6386 5.30131 75.3264 5.67049C44.4568 7.22914 9.07784 12.1428 7.99317 15.0226C7.84617 15.4135 7.9097 15.8011 8.13461 15.8836C8.35952 15.966 11.3105 15.4347 14.6926 14.7035C20.4391 13.4604 25.3526 12.688 25.2207 13.048C25.189 13.1344 23.5508 13.5179 21.5795 13.9006C19.6088 14.283 14.9877 15.2833 11.3112 16.123C7.63461 16.9631 3.6812 17.778 2.52505 17.9346C0.395541 18.2227 -0.595692 19.1574 0.717627 19.6387C2.03283 20.1207 7.75165 19.5213 15.7397 18.0635C24.5311 16.46 56.4946 12.1142 68.0657 10.9495C80.0228 9.746 92.4108 8.97691 100.475 8.93769C145.185 8.72029 163.653 9.43362 194.522 12.5698C237.385 16.9244 262.052 20.5883 294.26 27.3843C308.094 30.3034 320.759 33.3538 324.047 34.5586C325.776 35.1922 326.598 35.2534 327.607 34.8229C329.457 34.0341 331.474 31.9307 332.15 30.0858C332.636 28.7589 332.546 28.3402 331.568 27.3859C329.227 25.1004 327.956 24.8337 290.102 18.6781C259.142 13.6439 238.693 11.0214 210.655 8.48934C205.583 8.03099 201.264 7.58318 201.056 7.49375C200.407 7.21287 220.155 8.1733 230.193 8.91033C242.52 9.81544 270.779 12.8462 283.518 14.6295C292.92 15.9453 293.661 16.1149 298.015 17.9439C302.413 19.791 302.661 19.8465 303.936 19.2656C305.842 18.3968 308.814 15.2825 309.486 13.4494C310.005 12.0333 309.91 11.7359 308.503 10.3764C307.646 9.54875 306.769 8.83519 306.554 8.79108C306.339 8.7468 305.61 8.58425 304.934 8.42917Z" fill="#80ACF4"/>
</svg>
