<svg width="133" height="19" viewBox="0 0 133 19" fill="none" xmlns="http://www.w3.org/2000/svg">
<path fill-rule="evenodd" clip-rule="evenodd" d="M122.015 0.0345853C121.867 0.31123 112.135 0.771464 110.104 0.597932C109.961 0.585777 107.557 0.633141 104.762 0.70356C100.499 0.810865 99.6538 0.932002 99.5173 1.45344C99.3886 1.94553 99.3541 1.95517 99.352 1.49996C99.3501 1.06907 99.2915 1.04057 99.119 1.38637C98.9784 1.66847 98.6915 1.72379 98.3819 1.52847C98.1031 1.35242 97.1215 1.21494 96.2005 1.22248C95.2794 1.23045 94.5665 1.07787 94.6161 0.883798C94.6657 0.689728 94.2094 0.639429 93.6021 0.772303C90.8698 1.3696 80.9024 1.66427 80.5633 1.15793C80.4674 1.01499 80.4414 1.10218 80.5054 1.35242C80.5694 1.60266 80.5423 1.92583 80.4454 2.07086C80.3484 2.21547 80.2692 2.13415 80.2692 1.8902C80.2692 1.64625 80.1864 1.44631 80.0855 1.44631C79.9845 1.44631 79.95 1.63493 80.009 1.86547C80.0679 2.09601 80.0381 2.28463 79.9427 2.28463C79.8473 2.28463 79.721 2.09601 79.6621 1.86547C79.6031 1.63493 79.4619 1.44924 79.3483 1.4526C79.2241 1.45679 79.2456 1.62152 79.4019 1.86547C79.7004 2.33157 79.585 2.39445 78.6213 2.29175C78.2397 2.2511 77.8534 2.04445 77.7627 1.83194C77.5143 1.25056 71.5963 1.33188 71.5963 1.91661C71.5963 2.26283 71.5347 2.26367 71.3635 1.92038C71.2355 1.66385 71.0957 1.53811 71.053 1.64164C71.0102 1.74475 70.1401 1.85876 69.1195 1.89481C67.9503 1.93631 67.3029 2.11361 67.3695 2.37391C67.4276 2.60151 67.3097 2.57343 67.1074 2.31188C66.905 2.0499 66.7397 1.98409 66.7399 2.16517C66.7402 2.52145 64.737 2.39277 64.3111 2.00924C64.168 1.88014 62.2557 1.84032 60.0614 1.92122C57.8672 2.0017 54.1741 2.06918 51.8549 2.07128C49.5354 2.07337 47.8182 2.19786 48.0388 2.3475C48.2652 2.50133 47.8879 2.6384 47.172 2.66187C46.4333 2.68618 45.946 2.86768 46.0045 3.09612C46.0661 3.3363 45.903 3.34846 45.5835 3.12672C45.2968 2.92804 45.0212 2.92594 44.9711 3.12169C44.9209 3.31786 44.6077 3.4172 44.2748 3.34217C43.9421 3.26756 43.6698 3.34007 43.6698 3.50354C43.6698 3.66743 43.5525 4.16707 43.4092 4.61473C43.1919 5.29293 43.1662 5.30635 43.2544 4.69479C43.3248 4.20521 43.272 3.96126 43.0956 3.96126C42.9503 3.96126 42.7989 3.7257 42.7591 3.43732C42.6049 2.31858 20.6091 2.39235 17.1762 3.52324C16.6265 3.70432 15.4995 3.88623 14.6716 3.92731C13.8437 3.96881 12.9461 4.14695 12.6769 4.32342C12.4077 4.49988 11.9338 4.6118 11.6236 4.57198C11.3135 4.53258 11.0599 4.66168 11.0599 4.85952C11.0599 5.05694 10.9688 5.21874 10.8575 5.21874C10.7463 5.21874 10.7068 5.09425 10.7697 4.94209C10.8327 4.78994 10.7321 4.40767 10.5463 4.0933C10.2795 3.64145 9.61242 3.57061 7.38176 3.75672C5.82724 3.88624 4.10326 4.14318 3.5508 4.32803C2.71612 4.60719 2.52012 4.55144 2.39158 3.99815C2.25351 3.40378 2.2242 3.41217 2.11822 4.07695C2.03704 4.58665 1.93591 4.69312 1.79732 4.41521C1.67157 4.1633 1.49846 4.15659 1.34044 4.39803C1.20063 4.6118 1.1642 4.79246 1.25961 4.79958C1.35501 4.80671 1.32257 4.9815 1.18727 5.18814C1.04539 5.40527 0.773407 5.40946 0.543057 5.19778C0.0686527 4.76186 -0.0921434 5.21245 0.0497442 6.57891C0.147227 7.51699 0.825964 8.13735 0.825964 7.28855C0.825964 7.07226 0.947732 6.89538 1.09638 6.89538C1.24504 6.89538 1.31858 6.70676 1.25961 6.47622C1.20063 6.24568 1.27418 6.05706 1.42283 6.05706C1.74095 6.05706 1.75482 6.25323 1.51372 7.3422C1.36194 8.02711 1.39213 8.15285 1.70834 8.15285C2.03808 8.15285 2.05438 8.23711 1.8445 8.86207C1.70903 9.26614 1.69464 9.44345 1.81137 9.27452C1.92395 9.11105 2.06514 9.16931 2.12516 9.40362C2.185 9.63793 2.13678 9.82949 2.01761 9.82949C1.8955 9.82949 1.96072 10.1883 2.16731 10.6536C2.36869 11.1071 2.58343 11.8582 2.64448 12.3235C2.72237 12.9166 2.86911 13.1182 3.13502 12.9979C3.34386 12.9032 3.51454 12.798 3.51454 12.7636C3.51454 12.7292 3.70812 12.6156 3.94489 12.5109C4.36136 12.3264 4.36414 12.3403 4.03162 12.9476C3.69598 13.5604 3.69789 13.5755 4.11141 13.5885C4.52371 13.6015 4.52597 13.6191 4.19814 14.2617C4.01306 14.6247 3.95738 14.8045 4.07481 14.6616C4.19206 14.5182 4.62588 14.6783 5.03871 15.017C5.95699 15.7702 9.71042 15.6311 9.81952 14.8397C9.86323 14.5224 9.76367 14.4465 9.53384 14.623C9.33991 14.7718 9.1309 14.6972 9.06949 14.4574C8.99682 14.1732 9.32829 14.0211 10.0192 14.0211C10.6825 14.0211 11.0401 13.8639 10.9732 13.6019C10.7865 12.8722 13.4691 13.0767 13.7749 13.8153C14.0376 14.4507 14.4416 14.2772 14.2692 13.6032C14.2186 13.4053 14.3441 13.1149 14.5481 12.9585C14.9028 12.6865 15.2921 13.4112 15.1306 14.0429C15.0924 14.1921 15.4315 14.2286 15.8841 14.1234C16.4017 14.0031 16.9455 14.1728 17.3489 14.5802C17.7017 14.9365 18.0327 15.0635 18.0842 14.8623C18.1356 14.6611 18.4115 14.5128 18.6974 14.5325C18.9834 14.5522 19.272 14.4356 19.339 14.2738C19.406 14.112 19.0341 14.0026 18.5127 14.0303C17.9912 14.0584 17.1928 13.9486 16.7384 13.7864C16.0458 13.5395 15.9457 13.394 16.1191 12.8889C16.2341 12.5544 16.4818 12.3847 16.6761 12.5075C16.8686 12.6291 17.1427 12.5008 17.2853 12.222C17.4594 11.8817 17.5054 11.8729 17.4256 12.1952C17.339 12.5444 17.9269 12.6844 19.5919 12.7112C21.3688 12.7401 21.8311 12.6366 21.6692 12.2455C21.5547 11.9689 21.2479 11.7048 20.9872 11.6583C20.7267 11.6122 20.4548 11.5589 20.3832 11.5401C20.3116 11.5216 20.2531 11.3456 20.2531 11.149C20.2531 10.9524 20.897 10.8602 21.6841 10.9436C22.4713 11.027 23.2322 10.9734 23.3753 10.8242C23.8178 10.3631 24.5059 10.5006 24.4567 11.04C24.4313 11.3183 24.5094 11.5145 24.6301 11.4764C25.1451 11.3133 26.5467 11.5271 26.4525 11.7547C26.3139 12.0896 23.2747 12.0376 22.8246 11.6927C22.5682 11.4956 22.4893 11.5786 22.546 11.9861C22.6031 12.3956 22.9044 12.5209 23.6262 12.4358C24.2164 12.3662 24.7293 12.5222 24.8759 12.816C25.0643 13.1941 25.1734 13.197 25.3253 12.8298C25.4358 12.5628 25.7253 12.3633 25.9685 12.3864L26.4108 12.4279L25.9772 12.7636C25.418 13.1966 25.5097 13.2289 27.8852 13.4334C30.2095 13.6342 30.3193 13.7 30.2286 14.8384C30.1629 15.6621 30.2382 15.6977 32.0478 15.6977C33.0861 15.6977 33.9727 15.8419 34.0176 16.0184C34.0627 16.1944 34.6722 16.3063 35.3721 16.2669C36.0722 16.2275 37.5034 16.1575 38.5528 16.111C39.6022 16.0649 40.6169 15.8243 40.8077 15.5766C41.257 14.9935 41.9352 14.8137 41.9352 15.2781C41.9352 15.8033 42.6363 15.9911 43.2174 15.6218C43.4934 15.4462 43.799 15.4219 43.8965 15.5678C44.1811 15.9928 45.0574 16.054 45.0574 15.6491C45.0574 15.4454 45.2135 15.2786 45.4043 15.2786C45.5951 15.2786 45.7513 15.0899 45.7513 14.8594C45.7513 14.6289 45.9511 14.4402 46.1951 14.4402C46.4392 14.4402 46.5988 14.5974 46.5497 14.7894C46.5006 14.9818 46.5545 15.1419 46.6695 15.1453C46.7845 15.149 47.1264 15.2865 47.4291 15.4512C47.9255 15.7208 47.9703 15.6654 47.8858 14.8854C47.8024 14.1137 47.6503 14.0156 46.4682 13.9687C45.285 13.9217 45.2267 13.884 45.9206 13.6137C46.3476 13.4468 46.8477 13.4062 47.0317 13.5223C47.2846 13.682 47.3306 13.5898 47.2194 13.1442C47.0964 12.6508 47.1226 12.6525 47.379 13.1559C47.6456 13.6786 47.7089 13.6786 47.8624 13.1559C48.0078 12.6601 48.0228 12.676 47.9479 13.2461C47.8076 14.312 48.338 14.4528 51.373 14.1552C53.4503 13.9515 54.1018 14.0051 54.008 14.3719C53.9393 14.6402 53.9575 14.8594 54.0484 14.8594C54.1393 14.8594 54.2584 14.5765 54.3134 14.2307C54.3682 13.8849 54.5133 13.6049 54.6355 13.6082C54.793 13.6128 54.7819 13.744 54.5976 14.0592C54.3663 14.4545 54.3663 14.4838 54.5976 14.3225C54.7407 14.2223 54.8479 13.8455 54.8359 13.485C54.8213 13.0465 54.9073 12.9141 55.0961 13.0847C55.3498 13.314 55.3519 13.259 55.1179 12.5347C54.8645 11.7509 54.8697 11.7488 55.3217 12.4455C55.6272 12.9166 55.8078 13.0021 55.8499 12.6961C55.9146 12.2271 56.8997 12.2057 59.0641 12.627C60.2191 12.852 60.5718 13.6019 59.5225 13.6019C59.0497 13.6019 58.9203 13.749 58.9926 14.2047C59.0485 14.5559 58.9657 14.8808 58.7943 14.9839C58.6327 15.0811 58.8906 15.0652 59.3676 14.9483C59.8446 14.8313 60.3291 14.732 60.4441 14.7278C60.5591 14.7232 60.613 14.5626 60.5639 14.3702C60.5149 14.1783 60.7719 14.0399 61.1353 14.063C61.6942 14.0982 61.7294 14.1493 61.3641 14.395C61.0701 14.5928 61.0009 14.7881 61.1473 15.0069C61.2656 15.1834 61.4404 15.2115 61.5358 15.069C61.6312 14.9265 61.7105 15.0568 61.7119 15.3586C61.7141 15.7958 61.7448 15.7916 61.8637 15.3385C61.9745 14.9164 62.0453 14.8967 62.1388 15.2622C62.2081 15.5334 62.3927 15.6361 62.549 15.4911C62.7054 15.3465 63.2178 15.1365 63.6877 15.0254C64.1576 14.9139 64.6064 14.7269 64.6848 14.61C64.7633 14.4926 64.781 14.6892 64.7243 15.0472C64.6587 15.4596 64.7175 15.6977 64.8853 15.6977C65.0306 15.6977 65.1888 15.4621 65.237 15.1738C65.3069 14.7546 65.3272 14.7546 65.3382 15.1738C65.3456 15.4621 65.4736 15.6977 65.6223 15.6977C65.7925 15.6977 65.8445 15.5036 65.7624 15.1738C65.6613 14.7672 65.6932 14.7693 65.9048 15.1834C66.1779 15.7178 67.8784 15.8226 68.2139 15.3259C68.3093 15.1847 69.5677 15.048 71.0104 15.022C72.453 14.9965 73.7335 14.8254 73.8559 14.6431C73.9945 14.4356 74.0355 14.478 73.9647 14.755C73.8079 15.3683 76.8824 15.4261 77.3518 14.8187C77.5483 14.5647 77.6635 14.5354 77.6075 14.7538C77.5476 14.9881 77.9488 15.1515 78.584 15.152L79.6621 15.1524L78.9682 14.6305C78.191 14.0462 78.1924 14.0378 79.1037 13.806C79.5091 13.7034 79.7189 13.7985 79.6532 14.0554C79.589 14.3069 79.7923 14.431 80.1682 14.3698C80.5099 14.3145 80.7895 14.1401 80.7895 13.9829C80.7895 13.8257 82.6238 13.7226 84.8656 13.7541C87.1075 13.7859 88.9418 13.9641 88.9418 14.1506C88.942 14.3371 88.8693 14.3811 88.7805 14.2487C88.6917 14.1158 88.5625 14.229 88.4933 14.4993C88.4001 14.8632 88.5838 14.9198 89.1992 14.7156C89.6568 14.5643 90.259 14.4402 90.5376 14.4402C90.8965 14.4402 91.006 14.2877 90.9137 13.9163C90.8188 13.5344 90.8599 13.542 91.0658 13.9452C91.2698 14.3451 91.4401 14.3795 91.6797 14.0697C91.8805 13.8098 92.0737 13.7926 92.17 14.0253C92.3745 14.5195 93.6774 13.4695 93.4968 12.956C93.4245 12.7502 93.5062 12.8432 93.6784 13.1626C93.9457 13.6581 93.984 13.6581 93.9386 13.1618C93.897 12.7053 94.1381 12.5926 95.0543 12.64C95.6969 12.6735 96.2674 12.5259 96.3221 12.313C96.3765 12.0997 96.2409 11.9223 96.0206 11.919C95.6983 11.9135 95.6709 11.8331 95.8803 11.5061C96.0822 11.1909 96.0239 11.0857 95.6201 11.0362C95.1776 10.9822 95.1611 10.9445 95.5099 10.7848C95.7356 10.6812 96.005 10.8015 96.1084 11.0513C96.3448 11.6227 96.6312 11.6495 96.4874 11.087C96.4258 10.8464 96.5833 10.6678 96.8572 10.6678C97.2997 10.6678 97.3111 10.7085 97.0147 11.2324C96.7932 11.6239 96.7564 11.8888 96.8948 12.0955C97.0046 12.2598 97.0945 12.1722 97.0945 11.901C97.0945 11.6147 97.2396 11.5003 97.4412 11.6273C97.6318 11.748 97.8316 11.6755 97.8851 11.4667C97.9385 11.258 97.841 11.0681 97.6684 11.0451C97.4462 11.0157 97.4811 10.9055 97.7883 10.6678C98.1009 10.426 97.887 10.3207 97.0221 10.2906C95.7524 10.2461 95.5866 10.0081 96.5803 9.65638C96.9108 9.53943 97.4974 9.27955 97.8837 9.07961C98.2701 8.87926 98.7579 8.74596 98.9678 8.78327C99.1983 8.82435 99.3494 8.61058 99.3494 8.24339C99.3494 7.8213 99.4817 7.69723 99.783 7.83639C100.065 7.96633 100.217 7.84687 100.217 7.49519C100.217 7.19717 100.041 6.86646 99.8264 6.75957C99.6118 6.6531 99.7874 6.5546 100.217 6.54161C100.646 6.52819 102.246 6.38819 103.773 6.23101C105.299 6.07341 106.509 6.04784 106.461 6.174C106.341 6.49089 104.594 6.92891 102.76 7.1016C101.918 7.18082 101.183 7.35561 101.127 7.48974C101.072 7.62387 101.195 7.73369 101.402 7.73369C101.609 7.73369 101.778 7.95166 101.778 8.21782C101.778 8.49237 101.928 8.37333 102.125 7.94327C102.316 7.52621 102.472 7.37615 102.472 7.61046C102.472 7.84477 102.686 7.94663 102.949 7.83681C103.411 7.64274 103.415 7.65657 103.079 8.30501C102.753 8.93249 102.792 8.96351 103.729 8.81596C104.278 8.73004 104.727 8.82854 104.727 9.03476C104.727 9.24141 104.551 9.42542 104.336 9.44344C104.122 9.46147 104.044 9.57171 104.163 9.68781C104.558 10.073 104.388 10.6129 103.829 10.7462C103.143 10.9097 102.943 11.9253 103.597 11.9253C103.85 11.9253 104.164 12.1826 104.294 12.497C104.454 12.8835 104.82 13.0134 105.424 12.8986C105.915 12.8047 106.275 12.8935 106.223 13.096C106.171 13.301 106.467 13.3395 106.895 13.1828C107.316 13.0281 107.759 13.0495 107.88 13.2297C108.001 13.4099 108.141 13.3982 108.191 13.2029C108.262 12.9258 109.664 12.5331 111.198 12.3604C111.275 12.3516 111.283 12.1089 111.216 11.8205C111.12 11.408 111.142 11.4051 111.321 11.8058C111.501 12.2091 111.596 12.1655 111.775 11.5962C111.929 11.1067 112.003 11.0534 112.006 11.4294C112.01 11.8004 112.133 11.8888 112.38 11.6989C112.628 11.5086 112.71 11.5682 112.63 11.8804C112.565 12.1357 112.597 12.3444 112.701 12.3444C112.805 12.3444 112.935 12.0628 112.989 11.7182C113.044 11.3737 113.167 11.2085 113.263 11.3515C113.378 11.5241 113.378 11.6985 113.261 11.8729C113.164 12.0171 114.073 12.0699 115.281 11.9907C116.488 11.911 117.437 11.9345 117.389 12.0426C117.341 12.1508 116.444 12.3696 115.394 12.5293C113.552 12.8097 112.487 13.5416 113.755 13.6556C114.903 13.7587 116.965 13.6434 118.256 13.4037C118.972 13.2708 119.791 13.1199 120.077 13.0679C120.363 13.0155 120.73 12.7053 120.891 12.3776C121.212 11.7253 122.048 11.4906 122.182 12.015C122.228 12.1961 122.466 12.3444 122.711 12.3444C123.076 12.3444 123.119 12.4517 122.951 12.9401C122.783 13.4292 122.811 13.4955 123.106 13.3089C123.303 13.184 123.51 12.9065 123.565 12.6928C123.623 12.4656 123.766 12.5083 123.909 12.7946C124.241 13.4607 124.22 12.9841 123.881 12.1646C123.633 11.5661 123.674 11.5061 124.325 11.5061C124.738 11.5061 124.998 11.3359 124.939 11.1042C124.876 10.8606 125.094 10.794 125.492 10.9352C125.853 11.0635 126.266 11.1536 126.409 11.136C127.869 10.9553 129.453 11.2022 129.562 11.6273C129.655 11.9928 129.753 11.924 129.919 11.3758C130.078 10.8493 130.435 10.5752 131.097 10.47C131.619 10.387 131.909 10.4113 131.742 10.524C131.394 10.7596 131.332 11.4889 131.656 11.5409C131.775 11.5602 132.048 11.6231 132.263 11.6805C132.477 11.7379 132.653 11.6168 132.653 11.4114C132.653 11.2056 132.731 11.154 132.827 11.2965C132.922 11.4391 133 11.2613 133 10.9021C133 10.5429 132.929 10.2486 132.843 10.2486C132.756 10.2486 132.726 9.87141 132.776 9.41033C132.859 8.64453 132.694 8.35824 132.263 8.52255C132.191 8.5498 132.145 8.43076 132.16 8.25764C132.221 7.56352 131.917 6.54203 131.707 6.73652C131.584 6.85011 131.437 6.65185 131.381 6.29556C131.324 5.93928 131.334 5.69281 131.402 5.74772C131.47 5.80263 131.565 5.65886 131.612 5.42832C131.66 5.19778 131.454 4.95174 131.154 4.88132C130.74 4.78407 130.627 4.58204 130.686 4.043C130.74 3.54085 130.569 3.12379 130.103 2.62038L129.444 1.90864L130.051 1.85373L130.658 1.79924L130.181 1.37841C129.919 1.14661 129.704 0.815477 129.704 0.641946C129.704 0.468414 129.217 0.269732 128.62 0.200152C127.513 0.0710507 122.068 -0.0655937 122.015 0.0345853ZM65.4929 1.7326C65.618 1.85373 65.7676 1.83864 65.8252 1.69948C65.8828 1.56032 65.7805 1.4614 65.5977 1.47943C65.3956 1.49955 65.3545 1.59888 65.4929 1.7326ZM100.437 1.72128C100.319 1.83613 100.085 1.84325 99.9164 1.73679C99.7476 1.63032 99.8437 1.53643 100.13 1.52805C100.416 1.51966 100.554 1.60643 100.437 1.72128ZM110.587 1.75397C110.136 1.8399 109.356 1.84074 108.852 1.75565C108.348 1.67098 108.716 1.60056 109.67 1.5993C110.624 1.59846 111.037 1.66763 110.587 1.75397ZM42.976 3.28768C42.976 3.37821 43.093 3.56097 43.2361 3.69384C43.3792 3.82629 43.4963 3.7521 43.4963 3.52911C43.4963 3.3057 43.3792 3.12295 43.2361 3.12295C43.093 3.12295 42.976 3.19714 42.976 3.28768ZM42.6129 3.72067C42.4634 4.0824 41.0679 4.24294 41.0679 3.89839C41.0679 3.70264 41.4322 3.54211 41.8775 3.54211C42.3225 3.54211 42.6537 3.62258 42.6129 3.72067ZM46.0982 4.44917C46.0982 4.64198 45.9226 4.81383 45.7079 4.83186C45.4932 4.84946 45.1806 4.92701 45.0132 5.00455C44.8458 5.08168 44.7528 4.97311 44.8066 4.7627C44.8604 4.55228 44.8217 4.38042 44.7208 4.38042C44.6198 4.38042 44.5371 4.56904 44.5371 4.79958C44.5371 5.45724 44.2385 5.29 44.1239 4.56821C44.0368 4.01911 44.1829 3.93192 45.0593 4.00821C45.6307 4.05809 46.0982 4.25635 46.0982 4.44917ZM40.443 5.28874C40.3939 5.48072 40.1632 5.6379 39.9302 5.6379C39.6973 5.6379 39.5068 5.48072 39.5068 5.28874C39.5068 5.09635 39.7375 4.93916 40.0196 4.93916C40.3016 4.93916 40.4921 5.09635 40.443 5.28874ZM42.5316 6.01305C42.4866 6.12203 42.3635 6.00215 42.258 5.7473C42.1527 5.49287 41.9394 5.38179 41.784 5.50041C41.554 5.67688 41.547 5.63874 41.7463 5.2967C41.985 4.88677 42.7201 5.55742 42.5316 6.01305ZM100.217 4.96473C100.217 5.27365 99.1813 5.48574 98.9994 5.21413C98.8979 5.06239 99.1301 4.90856 99.5157 4.8721C99.9012 4.83563 100.217 4.87713 100.217 4.96473ZM107.924 5.26317C107.808 5.71838 107.38 5.75778 107.269 5.32353C107.224 5.15084 107.375 4.98192 107.604 4.9488C107.833 4.91569 107.977 5.05737 107.924 5.26317ZM120.771 5.2309C120.176 5.64 115.307 5.97323 115.307 5.60479C115.307 5.47149 115.754 5.3185 116.301 5.26527C116.847 5.21162 117.309 5.1324 117.328 5.08838C117.346 5.04479 118.246 4.97856 119.327 4.94126C120.66 4.89515 121.124 4.9882 120.771 5.2309ZM91.7173 5.89233C91.7173 5.98287 91.6002 6.05706 91.4571 6.05706C91.314 6.05706 91.1969 5.8743 91.1969 5.65089C91.1969 5.4279 91.314 5.35371 91.4571 5.48616C91.6002 5.61904 91.7173 5.80179 91.7173 5.89233ZM106.241 5.47191C106.183 5.61107 106.033 5.62616 105.908 5.50503C105.77 5.37131 105.811 5.27198 106.013 5.25186C106.196 5.23383 106.298 5.33275 106.241 5.47191ZM106.934 5.47191C106.877 5.61107 106.727 5.62616 106.602 5.50503C106.464 5.37131 106.505 5.27198 106.707 5.25186C106.89 5.23383 106.992 5.33275 106.934 5.47191ZM74.7784 6.28466C74.7218 6.64053 74.6384 6.84172 74.593 6.73191C74.5475 6.62209 74.5617 6.33077 74.6247 6.08514C74.7957 5.41617 74.8956 5.5461 74.7784 6.28466ZM88.7477 6.28634C88.7911 6.39071 88.5057 6.47622 88.1139 6.47622C87.7219 6.47622 87.3531 6.66484 87.2941 6.89538C87.2352 7.12591 87.094 7.3116 86.9804 7.30825C86.8562 7.30406 86.8777 7.13933 87.034 6.89538C87.2281 6.59233 87.1179 6.47161 86.6003 6.41963L85.9065 6.35047L86.6871 6.09185C87.4761 5.83113 88.6034 5.93718 88.7477 6.28634ZM89.5057 5.91538C89.3866 6.03191 89.1914 6.03191 89.0721 5.91538C88.9529 5.79928 89.0504 5.70413 89.2889 5.70413C89.5274 5.70413 89.6251 5.79928 89.5057 5.91538ZM37.1652 6.47622C37.1062 6.70676 36.8869 6.87652 36.6779 6.85346C36.3241 6.8149 36.3279 6.78849 36.7315 6.47622C36.97 6.29179 37.1893 6.12203 37.2187 6.09897C37.2482 6.07592 37.2241 6.24568 37.1652 6.47622ZM38.2926 6.47622C38.2926 6.70676 38.2146 6.89538 38.1192 6.89538C38.0238 6.89538 37.9457 6.70676 37.9457 6.47622C37.9457 6.24568 38.0238 6.05706 38.1192 6.05706C38.2146 6.05706 38.2926 6.24568 38.2926 6.47622ZM98.6687 6.44771C98.3534 6.93017 96.5508 6.90628 96.6749 6.42131C96.726 6.22095 97.2513 6.05999 97.8419 6.06335C98.5472 6.06754 98.8309 6.19957 98.6687 6.44771ZM120.455 6.33161C120.277 6.76125 116.951 6.85933 116.679 6.44268C116.528 6.21299 117.228 6.06754 118.502 6.06335C119.639 6.05999 120.518 6.18071 120.455 6.33161ZM37.0812 7.43567L37.859 7.61423L37.0052 7.56939C36.4047 7.53753 36.1307 7.33759 36.0814 6.89538C36.033 6.46071 36.0564 6.41963 36.1574 6.76167C36.2379 7.03412 36.6535 7.33717 37.0812 7.43567ZM35.2616 7.6528C35.2084 7.7819 35.0684 7.65322 34.9506 7.36651C34.7806 6.95238 34.8006 6.9046 35.0478 7.13178C35.2188 7.28939 35.3151 7.5237 35.2616 7.6528ZM35.9326 7.55932C35.9973 7.96717 35.9586 8.15914 35.8318 8.05687C35.5725 7.84813 35.4297 6.89538 35.6578 6.89538C35.751 6.89538 35.8745 7.19424 35.9326 7.55932ZM85.7785 7.18334C85.6127 7.28813 85.3004 7.2919 85.0847 7.19172C84.8689 7.09154 85.0045 7.00562 85.3861 7.001C85.7677 6.99639 85.9443 7.07855 85.7785 7.18334ZM100.39 7.73369C100.39 7.96423 100.507 8.15285 100.65 8.15285C100.793 8.15285 100.911 7.96423 100.911 7.73369C100.911 7.50316 100.793 7.31454 100.65 7.31454C100.507 7.31454 100.39 7.50316 100.39 7.73369ZM31.7471 8.02878C31.5337 8.12812 31.1434 8.13064 30.8798 8.03465C30.6161 7.93825 30.7906 7.85693 31.2676 7.85358C31.7446 7.85064 31.9604 7.92944 31.7471 8.02878ZM37.3783 8.40602C37.3207 8.54518 37.171 8.56028 37.046 8.43914C36.9076 8.30543 36.9487 8.20609 37.1508 8.18597C37.3336 8.16794 37.4359 8.26686 37.3783 8.40602ZM77.6673 8.75686C77.6673 8.85872 77.5892 9.05824 77.4938 9.20075C77.3984 9.34326 77.3204 9.25985 77.3204 9.0159C77.3204 8.77195 77.3984 8.57201 77.4938 8.57201C77.5892 8.57201 77.6673 8.65501 77.6673 8.75686ZM99.6639 8.8583C99.7889 8.97943 99.9386 8.96434 99.9962 8.82518C100.054 8.68602 99.9515 8.5871 99.7686 8.60513C99.5666 8.62525 99.5254 8.72459 99.6639 8.8583ZM100.358 8.8583C100.483 8.97943 100.632 8.96434 100.69 8.82518C100.748 8.68602 100.645 8.5871 100.462 8.60513C100.26 8.62525 100.219 8.72459 100.358 8.8583ZM75.6545 9.43632C75.7079 9.56584 75.2656 9.67859 74.6714 9.68698C73.994 9.69662 73.7527 9.59644 74.0247 9.41871C74.5324 9.08674 75.5142 9.09722 75.6545 9.43632ZM130.177 9.57422C130.235 9.71464 129.587 9.81608 128.736 9.80015C127.77 9.78171 127.319 9.6438 127.536 9.43255C127.92 9.05866 130.01 9.17099 130.177 9.57422ZM72.4166 9.6635C72.359 9.80266 72.2093 9.81775 72.0842 9.69662C71.9458 9.5629 71.9869 9.46356 72.189 9.44344C72.3718 9.42542 72.4742 9.52434 72.4166 9.6635ZM127.102 9.59518C127.102 10.0374 126.77 10.2235 126.671 9.8362C126.611 9.60189 126.683 9.41033 126.832 9.41033C126.981 9.41033 127.102 9.49332 127.102 9.59518ZM26.6091 10.4582C26.466 10.804 26.2504 11.087 26.1298 11.087C26.007 11.087 26.0585 10.817 26.2476 10.4716C26.6894 9.66392 26.9416 9.6547 26.6091 10.4582ZM98.6556 10.2357C98.6556 10.4586 98.7726 10.5328 98.9158 10.4004C99.0589 10.2675 99.1759 10.0848 99.1759 9.99422C99.1759 9.90368 99.0589 9.82949 98.9158 9.82949C98.7726 9.82949 98.6556 10.0122 98.6556 10.2357ZM25.5436 10.6678C25.8509 10.9872 25.8362 11.0312 25.4135 11.0576C25.1512 11.0736 24.9365 10.8983 24.9365 10.6678C24.9365 10.1757 25.0698 10.1757 25.5436 10.6678ZM72.5103 10.5236C72.3928 10.6385 72.1587 10.6456 71.9899 10.5391C71.8211 10.4327 71.9172 10.3388 72.2034 10.3304C72.4896 10.322 72.6277 10.4088 72.5103 10.5236ZM75.1088 10.5517C74.7987 10.6448 74.2915 10.6448 73.9813 10.5517C73.6712 10.4591 73.925 10.3828 74.5451 10.3828C75.1652 10.3828 75.419 10.4591 75.1088 10.5517ZM85.7728 10.5018C85.7152 10.641 85.5655 10.6561 85.4404 10.5349C85.302 10.4012 85.3431 10.3019 85.5452 10.2818C85.728 10.2637 85.8303 10.3627 85.7728 10.5018ZM87.2074 11.0786C86.928 11.5242 87.4706 11.6658 88.8553 11.5086C89.2369 11.4655 89.4899 11.5744 89.4176 11.7509C89.3453 11.9274 88.7371 12.0435 88.0659 12.0095C87.1543 11.963 86.8728 12.077 86.953 12.4601C87.0121 12.7422 86.904 12.5448 86.7127 12.0213C86.4799 11.3833 86.325 11.2257 86.2437 11.5438C86.1769 11.8054 86.2192 12.1642 86.3381 12.3411C86.4584 12.5209 86.2191 12.6584 85.7965 12.6521C85.3801 12.6462 85.1828 12.5574 85.3585 12.4547C85.5341 12.352 85.8088 11.9517 85.9691 11.5644C86.1292 11.1775 86.532 10.8166 86.864 10.7621C87.3129 10.6892 87.4008 10.7701 87.2074 11.0786ZM115.784 10.9566C115.618 11.0622 115.344 11.0622 115.177 10.9566C115.01 10.8514 115.147 10.7651 115.481 10.7651C115.815 10.7651 115.951 10.8514 115.784 10.9566ZM116.822 10.921C116.764 11.0601 116.614 11.0752 116.489 10.9541C116.351 10.8204 116.392 10.721 116.594 10.7009C116.777 10.6829 116.879 10.7818 116.822 10.921ZM20.1624 11.6755L20.6316 12.2635L19.9839 12.2191C19.6276 12.1948 19.4259 12.1026 19.5355 12.0141C19.6452 11.9261 19.6908 11.6813 19.6368 11.4705C19.5024 10.9445 19.6141 10.988 20.1624 11.6755ZM48.4796 11.3401C48.422 11.4793 48.2723 11.4944 48.1472 11.3733C48.0088 11.2395 48.0499 11.1402 48.252 11.1201C48.4348 11.1021 48.5371 11.201 48.4796 11.3401ZM49.2638 11.3645C49.1446 11.481 48.9495 11.481 48.8301 11.3645C48.711 11.2483 48.8084 11.1532 49.0469 11.1532C49.2854 11.1532 49.3831 11.2483 49.2638 11.3645ZM85.5596 11.5061C85.5006 11.7367 85.2814 11.9064 85.0723 11.8834C84.7185 11.8448 84.7223 11.8184 85.1259 11.5061C85.3644 11.3217 85.5837 11.1519 85.6132 11.1289C85.6427 11.1058 85.6186 11.2756 85.5596 11.5061ZM90.3296 11.5061C90.3296 11.7367 90.2469 11.9253 90.1459 11.9253C90.045 11.9253 90.0105 11.7367 90.0695 11.5061C90.1284 11.2756 90.211 11.087 90.2532 11.087C90.2953 11.087 90.3296 11.2756 90.3296 11.5061ZM92.0937 11.3904C91.6803 11.5149 91.543 11.735 91.6111 12.1638C91.7431 12.995 91.5412 12.9153 91.2736 12.0309C91.1517 11.6277 90.9891 11.4491 90.9126 11.6344C90.836 11.8192 90.8882 12.1462 91.0285 12.3608C91.1688 12.5754 91.1957 12.7535 91.088 12.7573C90.9805 12.7607 90.8016 12.4991 90.6906 12.1755C90.4318 11.4223 90.6061 11.2731 91.7801 11.2408C92.3048 11.2265 92.4337 11.2882 92.0937 11.3904ZM93.3218 11.3645C93.2026 11.481 93.0075 11.481 92.8881 11.3645C92.769 11.2483 92.8664 11.1532 93.105 11.1532C93.3435 11.1532 93.4411 11.2483 93.3218 11.3645ZM97.9395 11.784C97.739 12.3713 97.7387 12.5108 97.938 12.6731C98.1376 12.8353 98.1376 12.9216 97.938 13.2272C97.7803 13.4686 97.9147 13.591 98.3418 13.5956C98.6939 13.599 99.0243 13.4368 99.0758 13.2347C99.1275 13.0327 99.7371 12.9091 100.43 12.9602C101.124 13.0109 101.925 12.9158 102.211 12.7481C102.787 12.4115 102.816 12.4195 99.8717 12.0959C99.1572 12.0171 98.5458 11.758 98.513 11.52C98.4261 10.89 98.2112 10.9889 97.9395 11.784ZM102.125 11.4868C102.268 11.7212 102.534 11.9152 102.717 11.919C103.161 11.9274 103.023 11.6876 102.385 11.3427C102.005 11.1373 101.935 11.1762 102.125 11.4868ZM83.3914 11.9253C83.3914 12.1558 83.3086 12.3444 83.2077 12.3444C83.1067 12.3444 83.0722 12.1558 83.1312 11.9253C83.1902 11.6947 83.2727 11.5061 83.3149 11.5061C83.357 11.5061 83.3914 11.6947 83.3914 11.9253ZM21.2469 12.1785C21.1893 12.3176 21.0396 12.3327 20.9145 12.2116C20.7761 12.0779 20.8172 11.9785 21.0193 11.9584C21.2021 11.9404 21.3044 12.0393 21.2469 12.1785ZM21.9877 12.3444C21.9877 12.575 22.0657 12.7636 22.1611 12.7636C22.2565 12.7636 22.3346 12.575 22.3346 12.3444C22.3346 12.1139 22.2565 11.9253 22.1611 11.9253C22.0657 11.9253 21.9877 12.1139 21.9877 12.3444ZM54.6442 12.2003C54.5268 12.3151 54.2926 12.3222 54.1238 12.2158C53.9551 12.1093 54.0512 12.0154 54.3374 12.007C54.6236 11.9986 54.7616 12.0854 54.6442 12.2003ZM97.3546 12.3444C97.4136 12.575 97.4962 12.7636 97.5383 12.7636C97.5805 12.7636 97.6148 12.575 97.6148 12.3444C97.6148 12.1139 97.5321 11.9253 97.4311 11.9253C97.3302 11.9253 97.2957 12.1139 97.3546 12.3444ZM107.025 12.2212C106.81 12.321 106.459 12.321 106.244 12.2212C106.03 12.121 106.205 12.0393 106.635 12.0393C107.064 12.0393 107.239 12.121 107.025 12.2212ZM118.993 12.2212C118.779 12.321 118.427 12.321 118.213 12.2212C117.998 12.121 118.174 12.0393 118.603 12.0393C119.032 12.0393 119.208 12.121 118.993 12.2212ZM15.8064 12.9707C15.7516 13.3152 15.6288 13.4804 15.533 13.3374C15.4262 13.1777 15.4499 12.9392 15.5946 12.7175C15.9105 12.2342 15.9212 12.2468 15.8064 12.9707ZM84.8658 12.7636C84.8068 12.9941 84.6852 13.1828 84.5953 13.1828C84.5055 13.1828 84.4321 12.9941 84.4321 12.7636C84.4321 12.5331 84.5539 12.3444 84.7025 12.3444C84.8512 12.3444 84.9247 12.5331 84.8658 12.7636ZM92.7147 12.6332C92.5478 12.7389 92.2744 12.7389 92.1076 12.6332C91.9407 12.528 92.0772 12.4417 92.4111 12.4417C92.745 12.4417 92.8815 12.528 92.7147 12.6332ZM50.0464 13.0516C49.8806 13.1564 49.5683 13.1601 49.3526 13.0599C49.1368 12.9598 49.2724 12.8738 49.654 12.8692C50.0356 12.8646 50.2122 12.9468 50.0464 13.0516ZM78.4321 13.35C78.2499 13.6518 77.8277 13.8484 77.4938 13.7864C77.1599 13.7247 76.6675 13.6577 76.3995 13.638C76.1315 13.6183 75.949 13.4602 75.9941 13.2876C76.0392 13.1149 76.6807 12.9346 77.4196 12.8873C78.5734 12.8131 78.7164 12.8785 78.4321 13.35ZM96.5741 13.1828C96.5741 13.4133 96.6475 13.6019 96.7373 13.6019C96.8272 13.6019 96.9488 13.4133 97.0077 13.1828C97.0667 12.9522 96.9932 12.7636 96.8445 12.7636C96.6959 12.7636 96.5741 12.9522 96.5741 13.1828ZM120.999 13.0499C121.124 13.171 121.274 13.1559 121.331 13.0168C121.389 12.8776 121.287 12.7787 121.104 12.7967C120.902 12.8168 120.861 12.9162 120.999 13.0499ZM132.306 13.1828C132.306 13.4133 132.467 13.6019 132.663 13.6019C132.86 13.6019 132.972 13.4133 132.913 13.1828C132.854 12.9522 132.694 12.7636 132.556 12.7636C132.419 12.7636 132.306 12.9522 132.306 13.1828ZM14.6066 13.5663C14.6605 13.7771 14.6066 14.0341 14.4867 14.1376C14.3669 14.2407 14.3317 14.4872 14.4083 14.685C14.4852 14.8829 14.6205 14.7672 14.7093 14.4281C14.923 13.6116 14.9171 13.1828 14.6923 13.1828C14.5913 13.1828 14.5526 13.3555 14.6066 13.5663ZM22.2957 13.4921C22.8128 13.5793 23.1668 13.819 23.1094 14.0433C23.0536 14.2617 23.2662 14.4469 23.5819 14.4553C23.8976 14.4637 25.3368 14.5798 26.7801 14.7139C28.5326 14.877 29.5121 14.8066 29.7289 14.5023C29.9731 14.1594 29.3957 14.0433 27.398 14.0337C25.6731 14.0257 24.7802 13.8744 24.8497 13.6019C24.9189 13.3311 24.3245 13.21 23.1688 13.2603C22.1801 13.3031 21.7898 13.407 22.2957 13.4921ZM61.1419 13.4359C61.0843 13.5751 60.9346 13.5902 60.8096 13.469C60.6711 13.3353 60.7122 13.236 60.9143 13.2159C61.0971 13.1979 61.1995 13.2968 61.1419 13.4359ZM102.282 13.6342C102.105 13.9066 102.168 14.0102 102.515 14.0148C103.033 14.0215 103.126 13.8161 102.759 13.4762C102.632 13.3575 102.417 13.4288 102.282 13.6342ZM104.9 13.5839C104.068 13.9033 104.47 14.3245 105.334 14.0387C105.715 13.9121 105.91 13.7059 105.767 13.5797C105.624 13.454 105.234 13.4556 104.9 13.5839ZM110.711 13.5541L110.19 13.8513L110.692 14.099C110.969 14.2357 111.419 14.1917 111.693 14.0014C111.996 13.7914 112.153 13.8094 112.092 14.0479C112.033 14.2768 112.412 14.4163 112.999 14.3832C113.553 14.3518 113.811 14.2395 113.573 14.1334C113.334 14.0274 113.061 13.8019 112.966 13.6321C112.737 13.2255 111.369 13.1782 110.711 13.5541ZM130.615 13.4716C130.782 13.5772 131.055 13.5772 131.222 13.4716C131.389 13.3664 131.252 13.28 130.919 13.28C130.585 13.28 130.448 13.3664 130.615 13.4716ZM11.7213 13.8882C11.8464 14.0093 11.9961 13.9943 12.0536 13.8551C12.1112 13.7159 12.0089 13.617 11.8261 13.635C11.624 13.6552 11.5829 13.7545 11.7213 13.8882ZM24.3748 13.8899C24.209 13.9947 23.8968 13.9984 23.681 13.8983C23.4652 13.7981 23.6008 13.7122 23.9824 13.7075C24.364 13.7029 24.5406 13.7851 24.3748 13.8899ZM73.551 13.8769C73.4336 13.9917 73.1994 13.9989 73.0306 13.8924C72.8619 13.7859 72.9579 13.692 73.2442 13.6837C73.5304 13.6753 73.6684 13.762 73.551 13.8769ZM75.5388 13.8551C75.4812 13.9943 75.3315 14.0093 75.2065 13.8882C75.068 13.7545 75.1092 13.6552 75.3112 13.635C75.4941 13.617 75.5964 13.7159 75.5388 13.8551ZM99.5669 14.0965C99.3681 14.2826 99.4731 14.3811 99.8698 14.3811C100.204 14.3811 100.633 14.2248 100.824 14.0332C101.087 13.7692 101.013 13.7 100.521 13.7482C100.163 13.783 99.7341 13.9398 99.5669 14.0965ZM123.59 13.8794C123.709 13.9959 123.904 13.9959 124.024 13.8794C124.143 13.7633 124.045 13.6681 123.807 13.6681C123.568 13.6681 123.471 13.7633 123.59 13.8794ZM8.70038 14.5102C8.65129 14.7022 8.49397 14.8594 8.35087 14.8594C8.20776 14.8594 8.13092 14.7022 8.18001 14.5102C8.2291 14.3178 8.38642 14.1607 8.52953 14.1607C8.67263 14.1607 8.74947 14.3178 8.70038 14.5102ZM55.338 14.3116C55.5068 14.418 55.741 14.4109 55.8584 14.296C55.9758 14.1812 55.8378 14.0944 55.5516 14.1028C55.2654 14.1112 55.1693 14.2051 55.338 14.3116ZM58.3812 14.3074C58.5062 14.4285 58.6559 14.4134 58.7135 14.2742C58.7711 14.1351 58.6688 14.0362 58.4859 14.0542C58.2839 14.0743 58.2427 14.1737 58.3812 14.3074ZM7.93769 14.6951C7.93769 15.0417 7.60084 15.2379 7.52365 14.9361C7.47352 14.7404 7.5462 14.5798 7.68514 14.5798C7.82408 14.5798 7.93769 14.6318 7.93769 14.6951ZM10.1059 14.8594C10.0469 15.0899 10.0814 15.2786 10.1824 15.2786C10.2833 15.2786 10.3661 15.0899 10.3661 14.8594C10.3661 14.6289 10.3317 14.4402 10.2896 14.4402C10.2474 14.4402 10.1649 14.6289 10.1059 14.8594ZM30.7473 14.8594C30.8062 15.0899 30.7717 15.2786 30.6708 15.2786C30.5698 15.2786 30.4871 15.0899 30.4871 14.8594C30.4871 14.6289 30.5214 14.4402 30.5636 14.4402C30.6057 14.4402 30.6883 14.6289 30.7473 14.8594ZM67.6502 14.7433C67.34 14.8363 66.8328 14.8363 66.5227 14.7433C66.2126 14.6507 66.4663 14.5744 67.0864 14.5744C67.7065 14.5744 67.9603 14.6507 67.6502 14.7433ZM116.348 14.8003C116.348 15.3255 116.739 15.9744 116.999 15.8805C117.118 15.8377 117.352 15.7732 117.519 15.7375C117.776 15.6822 117.782 15.6181 117.562 15.3226C117.126 14.7357 116.348 14.4013 116.348 14.8003ZM117.909 15.2786C117.909 15.5091 117.987 15.6977 118.083 15.6977C118.178 15.6977 118.256 15.5091 118.256 15.2786C118.256 15.048 118.178 14.8594 118.083 14.8594C117.987 14.8594 117.909 15.048 117.909 15.2786ZM120.901 15.1482C121.068 15.2538 121.342 15.2538 121.508 15.1482C121.675 15.043 121.539 14.9566 121.205 14.9566C120.871 14.9566 120.735 15.043 120.901 15.1482ZM110.971 15.6193C110.971 15.8067 111.342 15.9991 111.795 16.0465C112.395 16.1093 112.548 16.0184 112.359 15.712C112.047 15.2077 110.971 15.136 110.971 15.6193ZM116.161 15.3833C116.024 16.4685 116.094 16.7909 116.483 16.8688C116.912 16.9548 116.915 16.9367 116.609 16.1177C116.315 15.3326 116.193 15.1331 116.161 15.3833ZM11.8948 15.984C12.0198 16.1051 12.1695 16.09 12.2271 15.9509C12.2847 15.8117 12.1823 15.7128 11.9995 15.7308C11.7974 15.7509 11.7563 15.8503 11.8948 15.984ZM12.6644 15.9865C12.8313 16.0921 13.1046 16.0921 13.2715 15.9865C13.4384 15.8813 13.3018 15.795 12.9679 15.795C12.634 15.795 12.4975 15.8813 12.6644 15.9865ZM85.5608 16.1123C85.5001 16.3495 85.5696 16.4199 85.724 16.277C86.0244 15.9983 86.0794 15.6977 85.83 15.6977C85.7402 15.6977 85.6191 15.8842 85.5608 16.1123ZM107.675 16.1416C107.675 16.3856 107.753 16.469 107.849 16.3265C107.944 16.1839 108.022 15.9844 108.022 15.8826C108.022 15.7807 107.944 15.6977 107.849 15.6977C107.753 15.6977 107.675 15.8977 107.675 16.1416ZM128.006 16.1923C127.843 16.3491 128.405 16.4903 129.256 16.5067C130.107 16.5226 130.751 16.412 130.689 16.2602C130.535 15.8884 128.379 15.8339 128.006 16.1923ZM131.352 16.1169L130.832 16.4367L131.385 16.4866C131.69 16.5138 131.987 16.3474 132.046 16.1169C132.165 15.6529 132.107 15.6529 131.352 16.1169ZM71.7264 16.3944C71.8457 16.5109 72.0409 16.5109 72.16 16.3944C72.2794 16.2783 72.1817 16.1831 71.9432 16.1831C71.7047 16.1831 71.6072 16.2783 71.7264 16.3944ZM79.6902 16.3981C79.6064 16.6006 77.9787 17.0047 76.7173 17.1358C76.0472 17.2054 75.0308 17.3127 74.4584 17.3743L73.4176 17.4863L74.2849 17.8128C75.5654 18.2948 79.3826 18.2592 80.1824 17.7579C80.564 17.5185 80.9665 17.3031 81.0766 17.2788C81.1867 17.2545 81.2358 16.977 81.1859 16.6618C81.1264 16.2871 80.8601 16.1223 80.4166 16.1856C80.0435 16.2388 79.7165 16.3344 79.6902 16.3981ZM105.681 16.505C105.201 16.7808 105.225 16.819 105.987 16.9883C106.656 17.1371 107.665 16.7905 107.328 16.5272C106.995 16.2661 106.116 16.2544 105.681 16.505ZM110.071 16.4032C110.196 16.5243 110.346 16.5092 110.404 16.37C110.461 16.2309 110.359 16.132 110.176 16.15C109.974 16.1701 109.933 16.2694 110.071 16.4032ZM66.2625 16.8248C66.4294 16.9305 66.7028 16.9305 66.8696 16.8248C67.0365 16.7196 66.9 16.6333 66.5661 16.6333C66.2322 16.6333 66.0957 16.7196 66.2625 16.8248ZM96.2272 16.9552C96.0157 17.2855 96.0381 17.3626 96.347 17.3681C96.556 17.3714 96.7753 17.1857 96.8343 16.9552C96.9708 16.4216 96.5689 16.4216 96.2272 16.9552ZM97.5931 16.9963C97.4329 17.2419 97.568 17.3635 98.0051 17.3681C98.3629 17.3714 98.6556 17.2327 98.6554 17.06C98.6552 16.6098 97.8762 16.5633 97.5931 16.9963ZM111.318 16.7532C111.318 17.0923 111.815 17.249 112.003 16.9686C112.143 16.759 112.059 16.6408 111.77 16.6408C111.521 16.6408 111.318 16.6915 111.318 16.7532ZM32.9621 17.2457C33.1309 17.3521 33.3651 17.345 33.4825 17.2302C33.5999 17.1153 33.4619 17.0285 33.1756 17.0369C32.8894 17.0453 32.7934 17.1392 32.9621 17.2457ZM34.65 17.4523C34.3161 17.656 33.5089 17.8966 32.8561 17.9863C32.2034 18.0764 31.6296 18.2462 31.5809 18.364C31.3507 18.9202 33.0251 19.1306 35.4897 18.8548C39.3743 18.4202 40.8615 18.3787 41.8485 18.6767C42.3255 18.8209 42.7416 18.7769 42.7732 18.579C42.8048 18.3803 42.9602 18.3791 43.1201 18.5757C43.2793 18.7714 43.7999 18.7953 44.2769 18.6285L45.1442 18.3246L44.1902 18.263C43.0852 18.1913 42.4242 17.8363 42.5416 17.3769C42.5867 17.2004 41.8705 17.0252 40.95 16.9875C39.7448 16.9384 39.2366 17.0709 39.1341 17.4611C39.0182 17.9025 38.9913 17.9012 38.9891 17.4544C38.9875 17.127 38.9002 17.0344 38.7728 17.2251C38.4864 17.6527 37.9457 17.7306 37.9457 17.3442C37.9457 16.9158 35.3919 16.9996 34.65 17.4523ZM44.4937 17.2511C44.7084 17.3509 45.0595 17.3509 45.2743 17.2511C45.489 17.1509 45.3133 17.0692 44.884 17.0692C44.4547 17.0692 44.279 17.1509 44.4937 17.2511ZM88.8119 17.244C88.9788 17.3496 89.2521 17.3496 89.419 17.244C89.5859 17.1388 89.4493 17.0524 89.1154 17.0524C88.7815 17.0524 88.645 17.1388 88.8119 17.244ZM95.5009 17.2415C95.626 17.3626 95.7757 17.3475 95.8333 17.2084C95.8908 17.0692 95.7885 16.9703 95.6057 16.9883C95.4036 17.0084 95.3625 17.1078 95.5009 17.2415ZM9.36871 17.6632C9.53575 17.7688 9.80877 17.7688 9.97581 17.6632C10.1428 17.5579 10.0062 17.4716 9.67226 17.4716C9.33835 17.4716 9.20167 17.5579 9.36871 17.6632ZM41.2414 17.8128C41.4313 18.1234 41.3612 18.1624 40.9812 17.957C40.3434 17.612 40.205 17.3723 40.6487 17.3806C40.8315 17.3844 41.0983 17.5785 41.2414 17.8128ZM66.0457 17.8664C66.0457 18.3154 69.3207 18.2617 69.775 17.8052C69.9851 17.594 69.3176 17.4691 68.0838 17.4884C66.9629 17.506 66.0457 17.6757 66.0457 17.8664ZM72.9515 17.6606C73.0766 17.7818 73.2263 17.7667 73.2839 17.6275C73.3415 17.4884 73.2391 17.3894 73.0563 17.4075C72.8542 17.4276 72.8131 17.5269 72.9515 17.6606ZM18.0849 18.2127C18.0259 18.4432 18.1385 18.6318 18.3349 18.6318C18.5312 18.6318 18.692 18.4432 18.692 18.2127C18.692 17.9821 18.5796 17.7935 18.4421 17.7935C18.3045 17.7935 18.1439 17.9821 18.0849 18.2127ZM20.3489 18.1775C20.3059 18.3455 19.9406 18.4197 19.5371 18.3426C19.1335 18.2655 18.8507 18.3166 18.9087 18.4566C19.0937 18.9039 21.3417 19.1583 21.2295 18.7194C21.0928 18.1846 20.4484 17.7881 20.3489 18.1775ZM29.7065 18.2231C29.2899 18.4709 29.3906 18.5425 30.2125 18.5824C30.7769 18.6096 31.2062 18.5639 31.1665 18.4813C30.9774 18.0873 30.1736 17.9452 29.7065 18.2231ZM16.4837 18.5031C16.6525 18.6096 16.8867 18.6025 17.0041 18.4876C17.1215 18.3728 16.9835 18.286 16.6973 18.2944C16.4111 18.3028 16.315 18.3967 16.4837 18.5031ZM9.11945 18.9181C9.24451 19.0392 9.39421 19.0242 9.4518 18.885C9.50938 18.7458 9.40704 18.6469 9.22422 18.6649C9.02214 18.6851 8.98103 18.7844 9.11945 18.9181ZM21.5974 18.9093C21.7167 19.0258 21.9119 19.0258 22.0311 18.9093C22.1504 18.7932 22.0527 18.6981 21.8142 18.6981C21.5757 18.6981 21.4782 18.7932 21.5974 18.9093Z" fill="#EDBD70"/>
</svg>
