<svg width="335" height="170" viewBox="0 0 335 170" fill="none" xmlns="http://www.w3.org/2000/svg">
<path fill-rule="evenodd" clip-rule="evenodd" d="M154.649 0.428188C135.725 2.38691 114.231 9.0168 92.3642 19.6405C62.4784 34.1602 33.8252 56.4159 17.9952 77.4057C2.39625 98.0893 -3.25889 117.581 1.80402 133.211C3.14618 137.355 7.27209 144.875 10.1888 148.494C12.5086 151.373 16.6488 154.97 21.0616 157.942C29.3054 163.492 39.9082 166.679 55.9122 168.416C65.3624 169.442 91.1852 169.437 102.64 168.407C123.562 166.526 143.768 162.943 170.447 156.383C197.51 149.728 217.524 143.253 244.616 132.388C274.415 120.438 288.291 113.728 302.078 104.606C315.854 95.4893 324.03 87.3872 328.826 78.1015C333.002 70.0154 334.996 62.852 335 55.913C335.005 48.0441 333.206 43.857 327.252 37.8856C322.996 33.6158 318.765 30.6773 311.096 26.665C301.096 21.4335 291.011 17.6654 278.865 14.622C251.276 7.70944 233.426 6.80978 192.188 10.2533C179.886 11.2805 157.054 13.6469 156.012 14.003C155.155 14.2961 155.416 15.822 156.432 16.4549C156.951 16.7783 163.038 17.9334 169.958 19.0218C182.288 20.9608 201.981 24.3238 230.099 29.2923C237.853 30.6622 248.392 32.4489 253.519 33.2626C274.472 36.5874 290.131 40.8476 302.088 46.475C311.325 50.8224 316.133 54.3347 316.124 56.7288C316.117 58.5554 315.177 61.8823 314.036 64.1203C310.002 72.0332 296.825 83.1749 280.268 92.6724C267.475 100.01 235.235 114.234 211.691 122.927C187.494 131.861 159.681 139.634 132.42 145.083C111.006 149.363 94.8062 150.959 72.7896 150.96C51.0192 150.96 38.6817 149.124 29.0307 144.447C16.6165 138.431 10.6908 126.943 12.9096 113.193C14.8964 100.88 25.2978 83.8804 40.2953 68.4329C64.4644 43.539 97.0153 22.9057 129.903 11.6324C153.314 3.60745 178.106 1.53716 196.916 6.03593C199.286 6.603 201.787 7.35713 202.474 7.71238C204.088 8.54704 204.092 7.81766 202.48 6.6701C199.037 4.21897 190.551 1.72506 181.786 0.58925C176.33 -0.117485 160.814 -0.209761 154.649 0.428188ZM107.778 22.9368C102.526 23.836 101.382 24.1573 101.382 24.7311C101.382 26.4054 102.345 26.3924 107.912 24.6434C110.895 23.7064 113.763 22.8399 114.286 22.7182C115.468 22.4427 115.962 21.7435 114.933 21.7997C114.516 21.8228 111.296 22.3345 107.778 22.9368Z" fill="#F2DD9C"/>
</svg>
