<svg width="243" height="22" viewBox="0 0 243 22" fill="none" xmlns="http://www.w3.org/2000/svg">
<path fill-rule="evenodd" clip-rule="evenodd" d="M214.769 0.543515C214.561 0.590837 214.247 0.742252 214.072 0.880258C213.897 1.01827 213.755 1.05231 213.756 0.955889C213.757 0.833791 213.439 0.822817 212.705 0.919755C212.126 0.996204 211.516 1.02334 211.348 0.980203C211.181 0.936903 210.899 0.985151 210.722 1.08711C210.47 1.23262 210.446 1.22088 210.614 1.03288C210.799 0.826172 210.769 0.823081 210.399 1.0097C210.163 1.12891 209.971 1.17238 209.972 1.10616C209.972 1.03994 209.82 1.06498 209.633 1.16182C209.445 1.25849 209.234 1.29981 209.164 1.25344C209.093 1.20707 207.738 1.58784 206.151 2.09951C204.565 2.61118 202.81 3.17193 202.252 3.34553C201.163 3.68402 197.156 5.72738 196.582 6.23662C196.251 6.53094 196.213 6.52048 195.739 6.00115C195.466 5.70206 194.663 5.09619 193.955 4.65457C193.246 4.21294 192.724 3.84181 192.793 3.82969C192.863 3.81758 192.486 3.50032 191.957 3.12459C190.814 2.3135 189.576 1.88898 188.026 1.77628C187.402 1.7309 186.805 1.63995 186.698 1.57425C186.447 1.41982 183.499 1.62876 181.757 1.92428C181.013 2.05049 179.713 2.35954 178.867 2.61106C178.022 2.86257 177.181 3.06664 176.997 3.0645C176.814 3.06237 176.663 3.13766 176.662 3.23166C176.661 3.32565 176.571 3.36645 176.463 3.32206C176.217 3.22114 173.225 3.98459 171.939 4.47665C171.411 4.67871 170.854 4.85428 170.703 4.86673C170.551 4.87934 170.105 5.07573 169.711 5.30342C169.317 5.53111 168.864 5.71579 168.704 5.71393C168.544 5.71207 167.693 6.07142 166.814 6.51265L165.214 7.3146L164.428 6.7422C163.995 6.42751 163.497 6.03421 163.321 5.86837C163.144 5.70252 163.081 5.67675 163.181 5.81117C163.337 6.02266 163.304 6.02453 162.932 5.82556C162.695 5.69923 162.553 5.56351 162.616 5.52403C162.764 5.4319 162.083 4.70534 161.224 4.03954C160.403 3.40277 159.73 3.22065 158.254 3.23562C157.63 3.24193 156.992 3.187 156.835 3.11347C156.665 3.03331 156.488 3.08197 156.394 3.23465C156.308 3.37482 156.132 3.4461 156.002 3.39307C155.873 3.34003 155.698 3.36659 155.614 3.45202C155.529 3.53746 155.293 3.5641 155.088 3.51116C154.883 3.45838 154.575 3.48176 154.402 3.56326C154.095 3.70798 151.979 4.21557 151.364 4.29161C150.697 4.37413 148.165 5.15101 147.111 5.59699C146.499 5.8559 145.925 6.03756 145.835 6.00082C145.746 5.96408 145.598 5.65982 145.507 5.32456C145.393 4.90424 145.017 4.51332 144.295 4.06525C143.72 3.70771 143.168 3.42782 143.068 3.4433C142.969 3.45862 142.961 3.35208 143.051 3.2063C143.154 3.03967 143.113 2.97991 142.942 3.04528C142.653 3.15579 142.062 2.26923 142.318 2.10923C142.454 2.02424 142.003 1.94888 141.573 1.98507C141.473 1.99328 141.453 1.90162 141.527 1.78117C141.613 1.64068 141.409 1.51877 140.957 1.44066C140.569 1.3738 140.184 1.24639 140.1 1.15771C140.017 1.06903 139.79 0.974154 139.596 0.946861C139.402 0.919406 139.053 0.841525 138.82 0.773721C137.629 0.426619 132.413 1.32006 129.958 2.29182C129.228 2.58085 128.299 2.9422 127.894 3.09497C126.298 3.69618 120.233 7.07371 121.399 6.71189C121.608 6.64696 121.406 6.81341 120.951 7.08142C120.497 7.34959 120.096 7.62357 120.062 7.69052C120.027 7.75748 119.911 7.79231 119.803 7.76812C119.696 7.74377 119.539 7.83579 119.455 7.97243C119.371 8.10908 118.916 8.46932 118.444 8.77267C117.972 9.07617 117.585 9.43219 117.583 9.56382C117.578 10.0183 116.949 9.71247 116.215 8.89887C115.81 8.44996 115.333 7.98487 115.155 7.86553C114.977 7.74603 114.833 7.58072 114.834 7.49835C114.834 7.41582 114.711 7.36512 114.559 7.38548C114.407 7.406 114.158 7.27581 114.004 7.09635C113.549 6.5635 112.253 5.31467 111.926 5.09344C111.759 4.98037 111.5 4.88658 111.352 4.88485C111.203 4.88312 111.083 4.79692 111.084 4.69323C111.085 4.58971 111.011 4.55185 110.919 4.60926C110.827 4.66666 110.6 4.63075 110.415 4.52974C110.162 4.39111 110.078 4.40046 110.073 4.56759C110.067 4.7515 110.029 4.75025 109.845 4.5596C109.721 4.43185 109.254 4.33256 108.79 4.33556C108.235 4.33927 108.072 4.29652 108.304 4.2078C108.522 4.12472 107.949 4.04375 106.784 3.99288C105.756 3.94812 104.798 3.96217 104.655 4.02415C104.512 4.08629 104.114 4.16355 103.771 4.19605C103.11 4.25847 102.876 4.30598 100.88 4.78251C99.2682 5.16725 96.6132 6.08305 96.1942 6.39865C96.0159 6.53306 95.7226 6.64126 95.5426 6.63917C95.3623 6.63707 94.6632 6.97428 93.9887 7.38834C93.3141 7.80256 92.9321 7.99792 93.1399 7.82266C93.5127 7.50798 93.5104 7.50763 92.9568 7.80179C92.6485 7.96554 92.4556 8.1623 92.5281 8.23906C92.6003 8.31582 92.5098 8.33996 92.3265 8.29276C92.143 8.24524 91.4836 8.54495 90.8559 8.96117C90.23 9.37628 90.0605 9.53922 90.479 9.32345L91.2401 8.93124L90.6245 9.36763C90.2861 9.60759 89.9532 9.76718 89.8846 9.72213C89.816 9.67707 89.5503 9.75829 89.2945 9.90263C88.8553 10.1505 88.8317 10.1434 88.8708 9.77704C88.9438 9.09285 86.8995 6.21551 86.3358 6.20895C86.2132 6.20752 85.8985 5.93136 85.6366 5.59509C84.8751 4.61787 83.7342 3.93393 82.7276 3.85098C82.0776 3.79754 81.9038 3.82863 82.0789 3.96699C82.2561 4.10716 81.9133 4.13968 80.7557 4.09293C79.1411 4.02762 77.5521 4.2359 77.5489 4.51353C77.5479 4.60058 77.4323 4.62492 77.2921 4.56756C77.1518 4.51004 77.1147 4.37813 77.21 4.2744C77.3052 4.17052 77.1076 4.23574 76.7711 4.41919C76.4346 4.60249 75.6185 4.91491 74.9573 5.11316C74.2963 5.31142 73.7548 5.52188 73.7541 5.58083C73.7534 5.63978 73.2118 5.87044 72.5504 6.09324C71.4805 6.45375 70.1022 7.17702 69.2851 7.80667C68.8124 8.17091 66.2953 9.62233 65.8885 9.76523C65.6522 9.84825 65.7003 9.75319 66.0157 9.51344L66.5227 9.12812L65.8266 9.51156C65.4437 9.72258 65.126 9.97329 65.1204 10.0687C65.1039 10.3568 63.914 11.1136 62.9047 11.4782C62.383 11.6668 61.9548 11.9299 61.9533 12.0632C61.9517 12.1964 61.7011 12.3253 61.3965 12.3494C61.0345 12.3781 60.8899 12.4745 60.9789 12.6272C61.0541 12.7558 60.9612 12.8704 60.773 12.8816C60.5847 12.893 60.3169 12.9178 60.178 12.9369C60.0391 12.956 59.8119 12.9796 59.6731 12.9897C59.5343 12.9997 59.5901 13.0803 59.7971 13.1688C60.1215 13.3074 60.1144 13.3293 59.747 13.3273C59.5126 13.3259 59.2317 13.2328 59.1228 13.1206C58.9263 12.9175 58.8842 12.8291 58.8277 12.5019C58.8114 12.4077 58.6842 12.374 58.5449 12.4273C58.4056 12.4806 58.2757 12.3925 58.2567 12.2316C58.2374 12.0707 58.1961 11.866 58.1649 11.7768C58.1337 11.6876 58.0827 11.5416 58.0512 11.4524C58.0197 11.3632 58.008 11.236 58.0255 11.1695C58.0426 11.1031 57.9432 11.0473 57.8045 11.0457C57.6658 11.0441 57.5536 10.9393 57.5551 10.813C57.5565 10.6865 57.1568 10.2386 56.6669 9.81748C56.1769 9.39649 55.8361 9.01455 55.9093 8.96872C55.9827 8.9229 55.7416 8.61836 55.3735 8.29199C54.3697 7.40176 52.6618 6.29302 52.4746 6.40989C52.384 6.4665 52.3112 6.39426 52.3129 6.24922C52.3193 5.69429 50.8358 4.85711 49.1875 4.48564C47.5902 4.12558 45.7815 4.11858 45.7774 4.47211C45.7764 4.55642 45.6717 4.58266 45.545 4.53079C45.418 4.47875 45.162 4.52778 44.9764 4.63966C44.7905 4.75137 44.4115 4.84178 44.1341 4.84049C43.8389 4.83915 43.6608 4.93044 43.7044 5.06098C43.7661 5.24438 43.7103 5.24616 43.3891 5.07055C43.0711 4.89676 42.9988 4.89576 42.9968 5.0655C42.9954 5.18001 42.9238 5.22731 42.8375 5.17058C42.6755 5.06419 39.4133 6.04465 38.8715 6.36269C38.7039 6.46088 38.2614 6.63826 37.8878 6.75683C37.5142 6.8754 36.8295 7.21036 36.3662 7.5012C35.9028 7.79221 35.4321 8.03145 35.3201 8.03289C35.2081 8.0345 33.8605 8.83889 32.3256 9.82039C30.7904 10.802 29.4158 11.6764 29.271 11.7635C26.1453 13.645 25.2503 14.1484 24.9586 14.1888C24.7662 14.2154 24.57 14.3039 24.5229 14.3856C24.4755 14.4673 24.3262 14.5327 24.1911 14.5311C24.0557 14.5296 24.0098 14.4625 24.0892 14.3822C24.1685 14.3018 24.1479 14.2108 24.0434 14.1797C23.9388 14.1488 23.549 13.7564 23.177 13.3079C22.8048 12.8594 22.3943 12.507 22.2648 12.5248C22.1349 12.5427 21.8775 12.4349 21.6926 12.2853C21.4561 12.0938 21.4493 12.0503 21.6701 12.1382C22.1214 12.318 22.0608 12.0007 21.595 11.7461C21.3793 11.6281 21.0482 11.3428 20.8593 11.1121C20.5535 10.7381 19.4992 10.0024 17.7885 8.96857C16.542 8.21523 14.591 8.13179 12.794 8.75472C12.3215 8.9185 11.9354 9.00867 11.9361 8.95505C11.9367 8.90159 11.452 9.09882 10.8593 9.39366C10.2663 9.68849 9.3547 10.1046 8.83301 10.3184C8.31133 10.5322 7.88305 10.7803 7.881 10.8699C7.87895 10.9597 7.64506 11.1229 7.36086 11.2326C7.07692 11.3424 6.9221 11.5147 7.01726 11.6155C7.1144 11.7185 7.07769 11.7528 6.93363 11.6938C6.59483 11.5552 5.96017 12.0086 5.47207 12.7385C5.25522 13.0626 4.83995 13.4064 4.54936 13.5022C4.25877 13.598 4.08189 13.7164 4.15596 13.7652C4.23028 13.8141 4.01479 14.1084 3.67681 14.4196C3.33908 14.7307 3.11259 15.0382 3.17336 15.1029C3.23439 15.1675 3.09926 15.2083 2.87325 15.1935C2.64698 15.1788 2.4116 15.2751 2.3498 15.4076C2.25022 15.6218 2.2709 15.622 2.53561 15.4098C2.78887 15.2068 2.81071 15.2151 2.68021 15.4651C2.59587 15.6268 2.52623 15.8259 2.52528 15.9075C2.52433 15.989 2.40329 16.0543 2.25656 16.0526C2.10982 16.0509 2.07146 15.9665 2.17149 15.8651C2.2881 15.7472 2.24198 15.7234 2.04391 15.7993C1.8737 15.8644 1.79397 16.0201 1.8669 16.1452C1.94008 16.2704 1.88318 16.3713 1.74073 16.3697C1.59803 16.368 1.55079 16.4402 1.63548 16.53C1.72017 16.6198 1.67218 16.6919 1.52897 16.6903C1.38551 16.6886 1.09282 16.8997 0.878238 17.1592C0.404317 17.7324 0.387469 17.8584 0.802007 17.7293C0.976122 17.6751 0.937214 17.7249 0.715489 17.8399C0.494017 17.9549 0.364651 18.1507 0.428011 18.2748C0.494823 18.4056 0.430458 18.4545 0.274861 18.3908C0.114749 18.3251 0.0204314 18.4127 0.0411075 18.6077C0.0601956 18.7876 0.221861 18.9364 0.400365 18.9385C0.578869 18.9406 0.723965 19.0182 0.722884 19.1111C0.721803 19.2039 1.01886 19.094 1.38285 18.8668C2.10143 18.4182 2.56871 18.4591 1.93326 18.915C1.44503 19.2653 1.59037 19.6904 2.0986 19.3978C2.28291 19.2914 2.38315 19.1493 2.3209 19.082C2.25864 19.0146 2.32811 18.961 2.47484 18.9627C2.62158 18.9644 2.74094 19.0428 2.73985 19.1368C2.73876 19.2308 2.85361 19.2635 2.9952 19.2094C3.13678 19.1552 3.18828 19.0425 3.10932 18.9589C3.03061 18.8753 3.09392 18.8083 3.24999 18.8102C3.51598 18.8133 3.48932 18.937 3.04205 19.7769C2.96703 19.9179 3.08668 19.8856 3.33041 19.6995L3.7469 19.3813L3.57169 19.7023C3.47558 19.8789 3.3045 20.0621 3.19199 20.1096C3.07948 20.1573 3.1621 20.3596 3.37562 20.5595L3.764 20.9231L4.24126 20.5617L4.71851 20.2002L4.57209 20.562C4.45422 20.8525 4.5313 20.9249 4.96369 20.93C5.42356 20.9353 5.47727 21.0009 5.33066 21.3784C5.23654 21.6216 5.25048 21.7678 5.36192 21.7033C5.47363 21.6387 5.74424 21.6782 5.96381 21.7911C6.30571 21.9668 6.31966 21.9597 6.06096 21.7418C5.82199 21.5405 5.84064 21.3895 6.15035 21.016C6.36544 20.7566 6.53854 20.5081 6.53477 20.4637C6.53125 20.4192 6.74491 20.3907 7.00956 20.4004C7.27421 20.4101 7.43369 20.3573 7.36394 20.2834C7.2942 20.2094 7.04531 20.1454 6.81085 20.1414C6.56807 20.1371 6.4938 20.0841 6.63804 20.0182C6.87684 19.9093 7.00049 19.7064 7.13315 19.2059C7.16428 19.0882 7.3317 18.9375 7.50546 18.871C7.77951 18.7661 7.95407 18.4787 8.02889 18.0082C8.04057 17.9365 8.16276 17.924 8.30079 17.9806C8.43882 18.0371 8.55307 17.9699 8.55468 17.8315C8.55629 17.6931 8.67787 17.5811 8.82461 17.5828C8.97135 17.5845 9.02959 17.5201 8.95387 17.4398C8.8779 17.3593 8.98958 17.253 9.20146 17.2034C9.47049 17.1407 9.37844 17.3363 8.89791 17.8492C8.23609 18.5561 7.86721 19.5935 8.34238 19.4117C8.46851 19.3634 8.51697 19.2301 8.44997 19.1152C8.38297 19.0006 8.65921 18.5134 9.06371 18.0327C9.56385 17.4388 9.71777 17.1053 9.5441 16.9911C9.37068 16.8772 9.42007 16.7929 9.69846 16.7279C9.93411 16.6728 10.0425 16.6984 9.95369 16.7883C9.86642 16.8768 9.96948 16.9047 10.192 16.8528C10.5437 16.7707 10.7121 16.4704 10.6158 16.0976C10.5968 16.024 10.68 16.0043 10.8007 16.0539C11.0278 16.1468 11.485 15.8586 12.715 14.8469C13.1111 14.5211 13.5505 14.2718 13.6915 14.293C13.8324 14.314 13.9941 14.1637 14.0504 13.9591C14.1231 13.6956 14.0604 13.62 13.8358 13.6997C13.6613 13.7618 13.6078 13.7513 13.7166 13.6767C14.0312 13.4607 14.7323 13.4537 15.1507 13.6625C15.3623 13.7681 15.4519 13.7898 15.3501 13.7109C15.2482 13.632 15.307 13.4534 15.4808 13.3139C15.7644 13.0862 15.745 13.0834 15.2898 13.286C14.9778 13.425 15.027 13.3571 15.4179 13.1093C15.8368 12.844 16.1153 12.7686 16.2362 12.8874C16.3474 12.9969 16.4221 12.95 16.4267 12.7678C16.4316 12.5681 16.56 12.5004 16.8111 12.5654C17.0449 12.6256 17.1893 12.569 17.1911 12.416C17.1927 12.2802 17.3132 12.218 17.4587 12.2777C17.6045 12.3373 17.6863 12.5053 17.6407 12.651C17.5952 12.7966 17.7278 13.0343 17.9359 13.1794C18.1438 13.3244 18.5379 13.6908 18.8118 13.9936C19.9335 15.2341 20.2456 15.5222 21.0089 16.0207C22.5485 17.0262 23.8769 18.0636 23.7367 18.151C23.659 18.1997 23.7344 18.241 23.9043 18.2429C24.0763 18.2449 24.1315 18.3296 24.0289 18.4334C23.9019 18.5619 23.9868 18.587 24.3008 18.5136C24.6599 18.4297 24.6977 18.452 24.4776 18.6179C24.2726 18.7723 24.282 18.9354 24.5132 19.2277C24.6869 19.4472 24.8408 19.6977 24.8557 19.7845C24.8899 19.9858 25.4227 20.1128 25.425 19.9202C25.4259 19.841 25.2616 19.6332 25.0602 19.4583C24.8585 19.2836 24.6906 19.0815 24.6872 19.0096C24.6765 18.7982 26.1611 19.0264 26.8956 19.349C27.6899 19.6979 28.2003 19.7809 28.2029 19.5613C28.2039 19.4752 28.3194 19.4517 28.4597 19.509C28.6 19.5665 28.6496 19.6795 28.5697 19.7604C28.4901 19.841 28.6008 19.866 28.8157 19.8159C29.0309 19.7656 29.1448 19.6588 29.0688 19.5783C28.9931 19.498 29.1147 19.4343 29.339 19.4369C29.5634 19.4395 29.6937 19.3851 29.6284 19.3159C29.5632 19.2468 30.1035 18.9441 30.8292 18.6434C31.5549 18.3426 32.1875 18.0244 32.2354 17.9361C32.4897 17.4666 32.5875 17.3845 32.7926 17.4685C32.916 17.519 33.0189 17.4151 33.0209 17.2374C33.023 17.0598 33.1564 16.8641 33.3172 16.8026C33.5146 16.7271 33.5409 16.7636 33.3984 16.915C33.1691 17.1589 34.7674 16.2645 35.6507 15.655C36.971 14.7437 41.4951 12.415 41.588 12.5987C41.6435 12.7086 41.7988 12.7566 41.933 12.7052C42.0873 12.6462 42.083 12.5375 41.9211 12.4096C41.7252 12.2548 41.8398 12.2256 42.4074 12.2857C43.0116 12.3496 43.2047 12.2888 43.4451 11.9589C43.6075 11.7361 43.8846 11.5909 44.0608 11.6364C44.237 11.6819 44.4574 11.6421 44.5503 11.5481C44.6562 11.4408 44.5019 11.3945 44.1359 11.424C43.8151 11.4499 43.4388 11.6275 43.2997 11.8186C43.0311 12.1876 42.7792 12.2546 42.555 12.0169C42.4798 11.937 42.828 11.6774 43.3288 11.4398C44.0203 11.1119 44.158 10.9736 43.9003 10.8656C43.6725 10.77 43.6599 10.7238 43.8616 10.7243C44.0268 10.725 44.2317 10.7994 44.3171 10.89C44.4138 10.9924 44.6125 10.967 44.8444 10.8222C45.0491 10.6944 45.3875 10.634 45.5967 10.688C45.8056 10.742 45.9446 10.7114 45.9053 10.6202C45.866 10.5288 45.9202 10.4493 46.0256 10.4434C46.1314 10.4376 46.5707 10.3204 47.0023 10.1831C47.4335 10.0457 47.7157 10.0052 47.6289 10.093C47.5327 10.1903 47.7926 10.2374 48.2932 10.2135C49.2214 10.169 49.9995 10.0024 50.0021 9.84732C50.003 9.79015 50.3516 9.73186 50.7769 9.71775C51.3854 9.69754 51.5315 9.75044 51.4637 9.96675C51.4142 10.125 51.0663 10.2727 50.6442 10.315C49.3998 10.4397 49.5653 10.7612 50.8345 10.6844L51.9524 10.6168L52.7285 12.2655C53.1552 13.1724 53.614 13.8725 53.7478 13.8212C53.8815 13.7701 53.9896 13.8416 53.988 13.98C53.9864 14.1184 54.1512 14.2338 54.3544 14.2361C54.5574 14.2385 54.8451 14.3893 54.9935 14.5711C55.1419 14.753 55.3717 14.8605 55.5039 14.8098C55.6363 14.7592 55.7436 14.7949 55.7425 14.8889C55.7414 14.9829 55.8258 15.0523 55.9298 15.043C56.469 14.9947 56.7177 15.0968 56.5853 15.312C56.5039 15.4443 56.5593 15.554 56.7086 15.5557C56.8576 15.5575 56.9125 15.6681 56.8305 15.8016C56.7483 15.935 56.8054 16.1422 56.9568 16.2621C57.1085 16.3819 57.1477 16.5384 57.044 16.6099C56.9406 16.6814 56.9906 16.6921 57.1557 16.6337C57.4831 16.5178 58.7845 17.2748 58.5305 17.4332C58.4449 17.4868 58.5892 17.4804 58.8512 17.4193C59.1333 17.3535 59.2658 17.3704 59.1765 17.4608C59.0938 17.5446 59.2445 17.6158 59.5115 17.6189C59.7788 17.622 59.998 17.5676 59.9988 17.4978C60.0012 17.2906 60.4407 17.3581 60.8529 17.6289C61.0641 17.7677 61.298 17.8794 61.3722 17.8772C61.8992 17.8607 62.0218 17.899 61.8855 18.0371C61.798 18.1258 61.8927 18.1569 62.1018 18.108C62.3364 18.0532 62.4348 17.8762 62.3676 17.6284C62.3093 17.4124 62.3651 17.2369 62.4914 17.2383C62.618 17.2398 62.7943 17.1225 62.8835 16.9778C63.019 16.7576 62.982 16.7472 62.6591 16.9142C62.4019 17.047 62.2734 17.0542 62.2748 16.9355C62.2759 16.8377 62.5719 16.7135 62.9324 16.6599C63.4249 16.5864 63.5041 16.5252 63.2504 16.4132C63.0302 16.316 63.1441 16.3013 63.5777 16.3708C63.9852 16.4361 64.3177 16.4009 64.4371 16.28C64.5731 16.1424 64.5244 16.1211 64.2766 16.2101C64.0659 16.2855 64.0072 16.2786 64.1325 16.193C64.2492 16.1136 64.4769 16.0468 64.6386 16.0446C64.8005 16.0424 64.9019 15.9459 64.8645 15.8301C64.8267 15.7144 64.9409 15.6527 65.1182 15.693C65.2953 15.7334 65.592 15.6528 65.7772 15.514C66.0397 15.3171 66.072 15.3144 65.9231 15.5015C65.7954 15.662 65.9149 15.6417 66.2834 15.4402C66.9508 15.0755 66.975 15.0075 66.3933 15.1335C66.1502 15.1861 66.266 15.0703 66.651 14.8761C67.0358 14.6819 67.2764 14.444 67.1854 14.3475C67.0945 14.251 67.1347 14.219 67.2748 14.2763C67.4148 14.3337 67.9456 14.121 68.4541 13.8036C68.9623 13.4861 69.3775 13.3047 69.3764 13.4003C69.3753 13.4959 68.8619 13.8789 68.2358 14.2512C67.6096 14.6235 67.1508 14.9632 67.2159 15.0061C67.2812 15.0488 67.6106 14.9122 67.9481 14.7024C68.8981 14.1114 69.3706 13.8993 69.3686 14.0647C69.3677 14.1479 68.9389 14.4383 68.4155 14.7104C67.8924 14.9825 67.2316 15.3456 66.9474 15.5178C66.663 15.6897 66.3209 15.8303 66.1873 15.8302C66.0534 15.8301 65.5574 16.0424 65.0847 16.3019C64.6121 16.5615 64.0632 16.772 63.8646 16.7697C63.6054 16.7667 63.553 16.8682 63.6788 17.1297C63.8354 17.4554 63.8098 17.4698 63.4362 17.2656C63.0689 17.0648 63.0393 17.0727 63.1898 17.3309C63.3077 17.5329 63.2695 17.5871 63.0675 17.5043C62.8908 17.432 62.7727 17.4853 62.7709 17.6381C62.7686 17.8403 62.975 17.8074 63.7815 17.4764C64.3389 17.2477 64.7958 16.9888 64.7968 16.9009C64.7978 16.8129 64.969 16.8341 65.1772 16.948C65.5125 17.1313 65.5049 17.1807 65.1092 17.3798C64.7122 17.5795 64.7331 17.5834 65.2951 17.4163C65.643 17.3128 66.4127 16.9819 67.0057 16.6809C67.7456 16.3054 68.0829 16.21 68.0809 16.377C68.0794 16.5108 67.7832 16.7399 67.4227 16.8862C67.0624 17.0326 66.8253 17.1904 66.8961 17.2371C66.9669 17.2836 67.9749 16.8447 69.1358 16.2615C71.6742 14.9866 71.9462 14.8247 71.1219 15.0785C70.5138 15.2658 70.5183 15.254 71.2359 14.7765C71.6466 14.5031 72.1117 14.2992 72.2695 14.3233C72.4276 14.3475 72.8716 14.1528 73.2562 13.8908C73.641 13.6287 73.8669 13.5223 73.7582 13.6543C73.5832 13.8668 73.6135 13.8675 74.0234 13.6602C74.4703 13.4341 74.4702 13.4231 74.0125 13.337C73.3269 13.2082 73.3257 12.8753 74.011 12.9674C74.3658 13.015 74.7139 12.9339 74.9347 12.7522C75.2379 12.5024 75.2378 12.489 74.933 12.6585C74.7373 12.7673 74.4082 12.8543 74.2018 12.8519C73.9249 12.8486 73.9693 12.7645 74.3717 12.5308C74.6712 12.3566 75.0415 12.2155 75.1941 12.2173C75.3469 12.2191 75.3917 12.1356 75.2941 12.0319C75.1733 11.9039 75.2279 11.8892 75.4643 11.9859C75.6558 12.0644 76.0064 12.1399 76.2435 12.1538C76.5908 12.1743 76.6257 12.1191 76.4228 11.8706C76.2451 11.6527 76.2618 11.4935 76.4793 11.3297C76.649 11.2019 76.8459 11.1357 76.9173 11.1824C76.9886 11.2293 77.2082 11.1235 77.4057 10.9471C77.6029 10.7708 77.8573 10.6645 77.9707 10.7111C78.0841 10.7575 78.3667 10.6142 78.5988 10.3929C78.8305 10.1714 79.1282 10.0343 79.2602 10.0884C79.5091 10.1903 79.5253 10.1671 79.6315 9.55917C79.6928 9.20905 79.6679 9.20343 79.0966 9.43552C78.7558 9.57385 78.4982 9.60526 78.4994 9.50852C78.5005 9.41485 78.7006 9.2928 78.9438 9.23732C79.187 9.18168 79.5298 9.02446 79.7049 8.88775C79.9827 8.67114 80.0013 8.67895 79.8496 8.94791C79.7116 9.19231 79.7648 9.23573 80.1047 9.15634C80.4726 9.07049 80.4943 9.10692 80.2575 9.41285C80.0092 9.73333 80.0174 9.74151 80.3388 9.49342C80.5352 9.34161 80.7754 9.26946 80.8722 9.3331C80.969 9.39674 80.9782 9.32868 80.8924 9.18166C80.7908 9.00732 80.9194 8.85423 81.2624 8.74112C81.6124 8.6255 81.7877 8.6235 81.7864 8.73478C81.7854 8.82668 81.671 8.90062 81.5324 8.89901C81.3937 8.89739 81.2793 8.97311 81.2782 9.0671C81.2771 9.1611 81.3824 9.19754 81.5121 9.14801C81.6417 9.09831 81.8181 9.13251 81.9043 9.2238C81.9902 9.3151 81.9689 9.38883 81.8567 9.38752C81.7445 9.38638 81.6619 10.3123 81.6727 11.4449C81.6959 13.8228 81.732 14.0862 82.0197 13.9762C82.1357 13.9318 82.2294 14.0088 82.2277 14.1472C82.2261 14.2856 82.3383 14.4003 82.4769 14.4019C82.6156 14.4035 82.7278 14.5106 82.7263 14.6399C82.7247 14.7804 83.0768 14.9214 83.6025 14.9907C84.0859 15.0547 84.4184 15.1708 84.3411 15.249C84.2641 15.3271 84.321 15.3926 84.4678 15.3943C84.6145 15.396 84.7099 15.4517 84.6799 15.5179C84.6496 15.5841 84.7795 15.8219 84.9685 16.0462C85.1573 16.2705 85.2924 16.4901 85.2685 16.5343C85.2445 16.5784 85.3668 16.6194 85.54 16.6255C85.7134 16.6315 85.8294 16.7169 85.798 16.815C85.7666 16.913 85.9066 17.0838 86.1088 17.1945C86.3343 17.3178 86.4774 17.3306 86.4786 17.2277C86.4797 17.1354 86.3647 17.0216 86.2231 16.9747C86.0814 16.928 86.1101 16.9104 86.2866 16.9359C86.463 16.9612 86.6125 17.1574 86.6189 17.3718C86.6249 17.5861 86.7651 17.7451 86.93 17.7247C87.0948 17.7045 87.2284 17.8012 87.2268 17.9396C87.2252 18.078 87.3282 18.1516 87.4556 18.1028C87.583 18.0541 87.7307 18.1002 87.784 18.2055C87.8372 18.3108 88.124 18.4112 88.4216 18.4287C88.7189 18.4462 88.9003 18.3947 88.8244 18.3142C88.7486 18.2337 88.8961 18.1932 89.1525 18.2243C89.4342 18.2586 89.5918 18.1962 89.5514 18.0663C89.5147 17.9481 89.5832 17.8919 89.7034 17.9411C89.9609 18.0465 91.3531 17.183 91.249 16.9823C91.2098 16.9071 91.5586 16.6863 92.0238 16.4918C92.489 16.2974 92.7113 16.1352 92.5174 16.1316C92.2194 16.1261 92.2189 16.1039 92.514 15.988C92.7061 15.9127 92.7829 15.7658 92.6845 15.6616C92.5513 15.5202 92.3992 15.5241 92.0847 15.6769C91.7056 15.8613 91.6994 15.8533 92.0218 15.5966C92.2697 15.399 92.46 15.3637 92.6402 15.4821C92.8204 15.6005 93.1196 15.5223 93.6122 15.2279C94.0035 14.9939 94.3227 14.8887 94.3215 14.9942C94.3202 15.0996 94.1869 15.1843 94.025 15.1825C93.8634 15.1806 93.7941 15.2205 93.8712 15.2711C94.1024 15.4231 97.1035 13.5647 96.9371 13.3728C96.8525 13.2753 96.8725 13.2485 96.9814 13.3133C97.2281 13.4597 98.125 13.1783 98.1276 12.9536C98.1287 12.8627 97.9978 12.8386 97.837 12.9C97.6617 12.9671 97.6138 12.942 97.7172 12.8374C97.8119 12.7414 98.1168 12.6936 98.3945 12.7311C98.6721 12.7687 98.8447 12.7413 98.7779 12.6705C98.7109 12.5996 99.0753 12.2987 99.5873 12.0018C100.1 11.7051 100.352 11.6056 100.147 11.7809C99.8023 12.0775 99.8083 12.0842 100.232 11.8772C100.482 11.7547 100.628 11.5527 100.555 11.4283C100.478 11.2963 100.534 11.2472 100.688 11.3103C100.834 11.37 101.108 11.2862 101.297 11.1239C101.487 10.9619 101.736 10.8241 101.851 10.8178C102.443 10.7859 104.368 10.111 104.79 9.78772C105.056 9.58421 105.197 9.52577 105.104 9.65795C104.968 9.84988 105.002 9.84753 105.271 9.64568C105.456 9.50682 105.765 9.42901 105.957 9.47275C106.19 9.52586 106.241 9.48252 106.109 9.34255C105.985 9.21141 106.011 9.17375 106.178 9.24224C106.515 9.38023 107.289 9.2093 107.123 9.0334C107.055 8.96138 107.244 8.94629 107.543 9C107.885 9.06149 108.026 9.03438 107.925 8.92676C107.836 8.83301 107.904 8.76467 108.076 8.77491C108.248 8.78514 108.818 8.7388 109.343 8.67174C110.21 8.56117 110.257 8.52941 109.852 8.32941C109.441 8.12659 109.451 8.11669 109.971 8.20691C110.283 8.26093 110.537 8.36936 110.536 8.44785C110.535 8.52618 110.62 8.57321 110.724 8.55229C110.963 8.50419 111.038 8.65205 111.032 9.1616C111.028 9.5048 110.904 9.56732 110.207 9.57876C109.418 9.5917 109.425 9.59679 110.395 9.71954C111.12 9.81132 111.225 9.85455 110.771 9.87381C110.424 9.88868 109.913 9.96429 109.635 10.042C109.232 10.1544 109.294 10.1724 109.938 10.1301C111.18 10.0487 111.25 10.1703 111.552 12.9232C111.564 13.0344 111.782 13.1278 112.036 13.1307C112.29 13.1337 112.498 13.2138 112.496 13.3089C112.495 13.4039 112.75 13.4613 113.062 13.4366C113.549 13.3979 113.665 13.4945 113.874 14.1164C114.102 14.7943 114.224 14.8776 115.75 15.4037C116.648 15.7129 117.354 15.9959 117.319 16.0325C117.284 16.0691 117.267 16.1537 117.282 16.2204C117.296 16.2871 117.296 16.5234 117.282 16.7454C117.267 16.9673 117.319 17.0593 117.398 16.9499C117.493 16.8174 117.68 16.8009 117.96 16.9001C118.19 16.9822 118.492 17.0626 118.63 17.0788C118.769 17.0949 118.85 17.2068 118.81 17.3272C118.706 17.6407 120.562 17.3239 120.891 16.972C121.377 16.4527 121.253 16.2715 120.653 16.6231C120.213 16.8812 120.071 16.908 120.115 16.725C120.174 16.4821 120.799 16.0606 122.038 15.4278L122.657 15.1119L122.049 15.6595C121.637 16.0301 121.538 16.2291 121.743 16.2754C121.91 16.313 121.981 16.4095 121.902 16.4898C121.823 16.5701 121.805 16.6365 121.861 16.6371C122.013 16.6389 124.331 14.7741 124.332 14.6497C124.333 14.5919 124.733 14.2814 125.221 13.9598C125.709 13.6383 126.11 13.2845 126.112 13.1734C126.115 13.0625 126.227 12.9728 126.363 12.9744C126.498 12.976 126.801 12.7432 127.037 12.4573C127.273 12.1714 127.877 11.7097 128.38 11.4314C128.882 11.1531 129.474 10.8147 129.695 10.6795C129.916 10.5441 130.216 10.4348 130.361 10.4365C130.712 10.4406 132.107 9.29012 132.003 9.08264C131.958 8.99328 132.005 8.97509 132.107 9.04202C132.408 9.23968 132.931 8.86489 132.804 8.54294C132.722 8.33426 132.862 8.21958 133.276 8.15511C133.6 8.10477 133.865 8.07215 133.865 8.08281C133.865 8.09347 134.359 7.94675 134.965 7.75673C135.57 7.56671 136.021 7.38249 135.967 7.34714C135.796 7.2345 134.755 7.45045 134.753 7.59904C134.752 7.67737 134.634 7.74028 134.49 7.73861C134.315 7.73657 134.32 7.6297 134.507 7.41123C134.659 7.2329 134.891 7.13077 135.022 7.18447C135.154 7.23817 135.262 7.20082 135.263 7.1015C135.264 7.00217 135.397 6.97497 135.559 7.04114C135.749 7.11927 135.803 7.07612 135.71 6.91788C135.627 6.77509 135.71 6.67591 135.911 6.67825C136.1 6.68045 136.195 6.74213 136.123 6.81543C135.897 7.0441 136.657 6.96863 137.174 6.71103C137.646 6.47521 137.643 6.47227 137.097 6.63503C136.777 6.73016 136.528 6.73889 136.529 6.65491C136.53 6.57254 136.819 6.4622 137.173 6.40961C137.525 6.35702 137.752 6.24788 137.676 6.16688C137.599 6.08587 137.653 5.97536 137.794 5.92112C137.936 5.86704 138.052 5.91782 138.053 6.03413C138.054 6.20391 138.097 6.20328 138.272 6.03086C138.432 5.87249 138.532 5.92857 138.651 6.24397C138.827 6.70944 138.197 7.32771 137.953 6.92944C137.855 6.76968 137.824 6.76965 137.806 6.92919C137.794 7.04018 137.507 7.12762 137.169 7.12368C136.83 7.11974 136.471 7.19956 136.371 7.30096C136.252 7.42201 136.311 7.44644 136.545 7.37195C136.74 7.30962 136.443 7.51195 135.885 7.82156C135.327 8.13101 135.003 8.38698 135.167 8.39017C135.33 8.39337 135.615 8.30284 135.8 8.18901C136.171 7.96008 136.868 7.77178 137.676 7.68185C138.075 7.63739 138.322 7.76609 138.679 8.20394C139.145 8.77633 139.144 8.78812 138.66 9.01007C138.389 9.13388 138.309 9.23681 138.483 9.23883C138.656 9.24084 138.726 9.31547 138.638 9.40474C138.549 9.49401 138.385 9.52908 138.271 9.48253C138.158 9.43614 138.002 9.63301 137.925 9.92012C137.848 10.2072 137.494 10.9445 137.139 11.5584C136.555 12.5679 136.459 13.2845 136.977 12.7596C137.091 12.6446 137.128 12.4919 137.061 12.4202C136.993 12.3485 137.065 12.2913 137.22 12.2931C137.375 12.295 137.432 12.2224 137.346 12.1318C137.257 12.0368 137.463 12.05 137.836 12.1635C138.19 12.2713 138.479 12.4249 138.478 12.5049C138.477 12.5846 138.379 12.6102 138.26 12.5614C138.14 12.5124 138.133 12.7774 138.243 13.1574C138.351 13.5339 138.445 13.8873 138.45 13.9428C138.469 14.1383 140.125 15.2345 140.406 15.2377C140.562 15.2395 140.806 15.3695 140.947 15.5267C141.171 15.7758 141.237 15.7817 141.46 15.573C141.681 15.3661 141.716 15.3707 141.716 15.6069C141.717 16.0256 142.197 16.1287 142.734 15.8258C143.195 15.5655 143.212 15.5687 143.11 15.8951C142.945 16.4204 143.46 16.3062 143.846 15.7315C144.076 15.3904 144.22 15.3065 144.278 15.4795C144.35 15.6897 144.451 15.6679 144.812 15.3648C145.133 15.0958 145.176 14.9571 144.968 14.8717C144.776 14.793 144.746 14.8251 144.88 14.9667C145.021 15.1172 144.984 15.1406 144.753 15.046C144.521 14.9514 144.484 14.9749 144.626 15.1253C144.762 15.2698 144.729 15.299 144.525 15.2154C144.313 15.1288 144.302 15.0325 144.488 14.8926C144.633 14.783 144.694 14.6551 144.623 14.6084C144.552 14.5619 144.697 14.4248 144.944 14.3041C145.353 14.1042 145.363 14.1096 145.045 14.3629C144.736 14.6094 144.757 14.6423 145.231 14.6478C145.525 14.6512 145.767 14.5813 145.768 14.4925C145.769 14.4037 145.94 14.333 146.148 14.3354C146.356 14.3378 146.527 14.2728 146.528 14.1907C146.53 13.9645 148.008 13.0895 148.188 13.2078C148.274 13.2645 148.312 13.238 148.272 13.1487C148.232 13.0594 148.348 12.8189 148.529 12.6144C148.836 12.2673 148.824 12.2538 148.349 12.4103C148.07 12.5025 147.76 12.7373 147.661 12.9319C147.442 13.3603 146.82 13.7737 146.606 13.6329C146.419 13.5102 147.06 12.7162 147.275 12.8037C147.358 12.8374 147.712 12.623 148.062 12.3273C148.412 12.0316 148.791 11.7887 148.903 11.7875C149.015 11.7863 149.041 11.8523 148.96 11.9341C148.765 12.1319 149.249 12.3201 149.604 12.1843C149.804 12.1078 149.796 12.041 149.577 11.9513C149.349 11.8583 149.42 11.6979 149.849 11.335C150.168 11.0651 150.524 10.8831 150.64 10.9307C150.756 10.9782 150.852 10.9401 150.853 10.8461C150.854 10.7521 150.969 10.6764 151.107 10.678C151.57 10.6834 151.363 11.0331 150.85 11.1127C150.572 11.156 150.344 11.2496 150.343 11.3209C150.343 11.3921 150.273 11.5827 150.189 11.7444C150.072 11.9682 150.095 11.986 150.286 11.8188C150.431 11.6916 150.67 11.6539 150.854 11.7292C151.055 11.8115 151.109 11.7935 151.003 11.6805C150.91 11.5822 151.087 11.3549 151.396 11.1756C152.15 10.7371 152.566 10.7646 151.961 11.2129C151.516 11.5429 151.532 11.5413 152.167 11.1919C152.546 10.9834 152.798 10.7524 152.729 10.6786C152.659 10.6048 152.835 10.4545 153.119 10.3447C153.709 10.1166 153.823 9.82201 153.272 9.95079C153.015 10.011 152.953 9.95936 153.065 9.77765C153.17 9.60652 153.125 9.55689 152.93 9.63119C152.738 9.70471 152.69 9.65682 152.791 9.49276C152.908 9.30223 152.832 9.26645 152.475 9.34402C151.694 9.51327 151.608 9.56735 151.8 9.76842C152.146 10.1312 152.08 10.3462 151.655 10.2392C151.28 10.1447 151.276 10.1657 151.614 10.4518C151.965 10.7489 151.959 10.7538 151.528 10.5299C151.113 10.3148 151.106 10.2724 151.465 10.1094C151.685 10.0095 151.792 9.88043 151.704 9.82238C151.615 9.76417 151.4 9.79057 151.225 9.88093C151.005 9.99483 150.858 9.99263 150.746 9.87406C150.657 9.77983 150.648 9.69444 150.726 9.68419C150.803 9.67395 150.952 9.65565 151.056 9.64346C151.61 9.57851 153.627 8.60746 153.217 8.60269C153.096 8.60129 152.844 8.68929 152.655 8.79806C152.382 8.95657 152.35 8.95571 152.496 8.79395C152.597 8.68269 153.155 8.44351 153.737 8.26243C154.319 8.08119 154.889 7.83293 155.003 7.71068C155.117 7.58844 155.344 7.54183 155.508 7.60705C155.73 7.69524 155.729 7.66244 155.503 7.47971C155.259 7.28142 155.293 7.18394 155.683 6.97638C155.948 6.8349 156.202 6.79085 156.246 6.87859C156.29 6.96617 156.572 7.05264 156.872 7.07067C157.172 7.0887 157.357 7.16515 157.282 7.24085C157.208 7.31638 156.982 7.33589 156.782 7.28412C156.577 7.23118 156.484 7.26111 156.57 7.35257C156.655 7.44191 156.536 7.55893 156.307 7.61232C155.97 7.69094 155.955 7.7397 156.225 7.86657C156.468 7.98036 156.413 8.00137 156.026 7.94308C155.692 7.89284 155.363 7.97477 155.148 8.1611C154.959 8.32527 154.621 8.45751 154.398 8.45491C154.174 8.4523 153.99 8.55531 153.988 8.68371C153.986 8.86007 154.099 8.8798 154.45 8.76419C154.705 8.67994 154.913 8.64634 154.913 8.6893C154.912 8.73226 155.618 8.55213 156.481 8.28888C158.338 7.72237 159.465 7.50629 159.463 7.71754C159.462 7.80006 159.228 7.86502 158.942 7.86169C158.657 7.85837 158.489 7.92637 158.571 8.01276C158.661 8.10781 158.948 8.11682 159.3 8.03546C159.741 7.9335 159.881 7.95774 159.878 8.13604C159.877 8.26557 159.725 8.33213 159.54 8.28443C159.099 8.17059 159.107 8.41943 159.553 8.66287C159.802 8.79919 159.888 9.19755 159.852 10.0421C159.805 11.1155 159.845 11.2247 160.265 11.1777C160.582 11.1425 160.686 11.1981 160.591 11.352C160.5 11.5006 160.577 11.5488 160.817 11.4927C161.018 11.4459 161.123 11.3236 161.05 11.221C160.978 11.1184 161.056 11.1563 161.223 11.305C161.498 11.5491 161.585 11.5522 162.115 11.3372C162.692 11.1029 162.702 11.1092 162.695 11.6883C162.689 12.2292 162.73 12.264 163.198 12.1096C163.59 11.9805 163.692 11.9897 163.639 12.1495C163.601 12.2639 163.399 12.405 163.19 12.463C162.933 12.5343 163.021 12.5744 163.461 12.5873C164.036 12.604 164.107 12.6702 164.076 13.159C164.057 13.4631 164.13 13.6778 164.24 13.6359C164.349 13.5942 164.437 13.6492 164.436 13.7581C164.435 13.8669 164.504 13.9118 164.591 13.8578C164.677 13.8038 164.893 13.8546 165.07 13.9709C165.458 14.2264 167.365 14.3215 167.588 14.0962C167.675 14.0079 167.852 13.9784 167.98 14.0311C168.109 14.0837 168.216 13.9659 168.218 13.7691C168.222 13.4169 168.214 13.416 167.651 13.7058C167.338 13.8676 167.506 13.7209 168.025 13.3799C168.545 13.0386 169.054 12.8154 169.158 12.8836C169.262 12.9518 169.228 13.0569 169.083 13.1169C168.937 13.1771 168.738 13.3607 168.641 13.5248C168.5 13.7621 168.554 13.8024 168.903 13.7209C169.229 13.6449 169.187 13.7219 168.74 14.0191C168.409 14.2395 168.048 14.3832 167.938 14.3383C167.829 14.2936 167.646 14.3556 167.532 14.4764C167.418 14.5972 167.154 14.7353 166.945 14.7833C166.672 14.8463 166.706 14.8754 167.07 14.8881C167.674 14.9092 168.855 14.4509 169.36 13.999C169.681 13.7124 169.676 13.6608 169.317 13.5682C168.947 13.4727 168.951 13.4343 169.359 13.1523C169.607 12.9814 169.916 12.8853 170.047 12.9389C170.177 12.9924 170.45 12.8878 170.653 12.7065C170.863 12.5189 171.181 12.4182 171.392 12.4727C171.837 12.5874 171.859 12.4697 171.483 11.9948C171.327 11.799 171.29 11.6937 171.399 11.7607C171.659 11.9208 172.316 11.5794 172.129 11.3811C172.046 11.2924 171.808 11.3144 171.564 11.4331C171.192 11.6141 171.181 11.607 171.473 11.3736C171.673 11.2136 171.708 11.0701 171.562 11.0102C171.429 10.9557 171.262 11.0019 171.19 11.1127C171.097 11.2568 171.055 11.2592 171.043 11.1215C171.014 10.8104 171.449 10.7372 171.779 10.9977C172.149 11.2909 173.163 11.0371 172.882 10.7215C172.786 10.6137 172.96 10.6713 173.268 10.8495C173.792 11.1522 173.8 11.1865 173.389 11.3731C173.081 11.5132 172.856 11.5215 172.636 11.4014C172.229 11.1786 172.298 11.6006 172.724 11.9377C172.889 12.0679 172.942 12.225 172.843 12.287C172.743 12.349 172.867 12.3519 173.117 12.2934C173.406 12.226 173.529 12.0768 173.453 11.8851C173.388 11.719 173.437 11.5436 173.564 11.4953C173.69 11.4471 173.792 11.4781 173.791 11.5645C173.789 11.7905 175.248 11.4308 175.933 11.0369C176.245 10.857 176.916 10.5888 177.424 10.4409C177.931 10.2932 178.347 10.1052 178.348 10.0233C178.349 9.94159 178.498 9.9128 178.679 9.95965C178.86 10.0063 179.409 9.87607 179.898 9.67001C180.388 9.46394 181.264 9.16691 181.845 9.00989C182.426 8.85303 182.903 8.67427 182.903 8.61306C182.905 8.5034 181.747 8.71266 180.25 9.0926C179.406 9.30697 179.232 9.34065 178.845 9.36538C178.698 9.37482 178.634 9.4424 178.704 9.51589C178.773 9.58922 178.494 9.77173 178.083 9.92154C177.673 10.0713 177.338 10.1485 177.339 10.093C177.339 10.0376 176.998 10.1434 176.579 10.3284C176.161 10.5133 175.819 10.6192 175.82 10.5638C175.821 10.5084 175.535 10.6637 175.185 10.9088C174.834 11.154 174.611 11.2402 174.689 11.1006C174.778 10.9406 174.686 10.8447 174.441 10.8418C174.227 10.8394 174.051 10.9068 174.05 10.9917C174.049 11.0767 173.879 11.0537 173.672 10.9406C173.212 10.6888 173.157 10.3417 173.614 10.5667C174.153 10.8324 174.512 10.7315 175.835 9.9427C176.898 9.30928 177.184 9.21182 177.491 9.37918C177.694 9.49058 177.934 9.53585 178.024 9.47988C178.114 9.42374 178.048 9.3763 177.878 9.37432C177.709 9.37234 177.641 9.29822 177.728 9.20975C177.816 9.12129 178.172 9.08522 178.521 9.12981C179.045 9.19697 179.103 9.17084 178.859 8.97805C178.63 8.79656 178.65 8.69181 178.953 8.50295C179.167 8.36975 179.51 8.26262 179.717 8.26503C180.389 8.27286 180.893 8.08747 180.718 7.89629C180.624 7.79343 180.741 7.81272 180.977 7.9392C181.347 8.13702 181.546 8.13045 182.413 7.89098C182.966 7.73799 183.42 7.56527 183.42 7.5068C183.422 7.39536 186.476 6.8121 187.945 6.64264C188.539 6.57428 188.752 6.59759 188.633 6.718C188.515 6.83793 188.679 6.85729 189.161 6.78003C190.531 6.55999 190.87 6.75535 190.744 7.69138C190.718 7.88249 190.817 8.08797 190.963 8.14782C191.109 8.20751 191.226 8.3431 191.223 8.44886C191.219 8.56447 191.12 8.54329 190.975 8.39607C190.775 8.19312 190.732 8.20636 190.728 8.47396C190.719 9.09573 191.024 10.0119 191.241 10.0144C191.362 10.0158 191.47 9.88998 191.481 9.73456C191.499 9.49474 191.532 9.50126 191.701 9.77751C191.811 9.95646 191.854 10.1537 191.797 10.2157C191.739 10.2777 192.007 10.4609 192.391 10.6227C193.208 10.9672 193.479 11.1865 193.304 11.3633C193.235 11.4334 193.44 11.4949 193.761 11.4999C194.108 11.5054 194.224 11.5559 194.049 11.6249C193.838 11.7081 193.884 11.8446 194.21 12.109C194.71 12.5137 195.202 12.5967 195.236 12.2819C195.248 12.1711 195.37 12.2819 195.507 12.5284C195.644 12.7748 195.86 12.9366 195.987 12.8878C196.115 12.8391 196.215 13.1247 196.211 13.5223C196.197 14.7123 196.641 15.1082 197.225 14.4258C197.385 14.2393 197.41 14.1268 197.281 14.1761C197.153 14.2253 197.059 14.0181 197.072 13.7155L197.097 13.1658L197.652 13.5885C198.253 14.0467 198.118 14.456 197.267 14.7498C197.026 14.8329 196.91 14.9542 197.009 15.019C197.107 15.0839 197.38 15.038 197.614 14.9172C197.848 14.7961 198.107 14.6979 198.19 14.6988C198.273 14.6998 198.319 14.6582 198.293 14.6064C198.207 14.4366 205.085 10.3226 205.304 10.4125C205.422 10.4607 205.664 10.3904 205.842 10.2563C206.354 9.87036 210.141 8.2961 210.546 8.30081C210.748 8.30316 210.979 8.1973 211.06 8.06547C211.141 7.93364 211.308 7.8671 211.432 7.9178C211.555 7.96834 211.657 7.9285 211.658 7.82918C211.66 7.72985 211.764 7.69117 211.891 7.74305C212.018 7.79508 212.28 7.73933 212.472 7.61913C212.88 7.36431 213.628 7.20551 214.764 7.13199C215.21 7.10327 215.973 7.02379 216.46 6.95563C218.085 6.72741 218.109 6.74336 218.013 7.98681C217.965 8.60652 217.99 9.35064 218.068 9.6402C218.19 10.0924 218.314 10.168 218.947 10.1754C219.499 10.1818 219.647 10.2444 219.536 10.4245C219.434 10.5915 219.551 10.667 219.92 10.6713C220.212 10.6747 220.464 10.7867 220.479 10.9201C220.533 11.3711 220.567 11.4283 220.943 11.6874C221.15 11.8297 221.593 12.1707 221.928 12.4452C222.495 12.9087 223.169 13.024 222.785 12.5914C222.691 12.4854 222.839 12.5284 223.115 12.6872C223.39 12.846 223.755 12.9773 223.926 12.9793C224.096 12.9813 224.158 13.062 224.063 13.1586C223.957 13.2656 224.123 13.2557 224.489 13.133C224.819 13.0225 225.311 12.9229 225.581 12.912C225.851 12.9011 226.622 12.5188 227.293 12.0627C227.964 11.6067 228.513 11.2837 228.512 11.3452C228.508 11.6666 229.311 10.9782 229.573 10.436C229.847 9.86775 229.944 9.81494 230.588 9.88753C230.979 9.93166 231.375 9.89104 231.468 9.79746C231.566 9.69749 231.516 9.67284 231.346 9.73774C231.163 9.80797 231.11 9.76276 231.201 9.61409C231.311 9.43463 231.524 9.41465 232.108 9.52918C232.763 9.65731 232.89 9.63214 233.009 9.34988C233.116 9.09688 233.198 9.07135 233.367 9.2392C233.544 9.4149 233.654 9.40261 233.93 9.17694C234.233 8.92962 234.311 8.92551 234.585 9.14241C235.091 9.54291 234.671 10.5043 233.912 10.6796C233.564 10.7602 233.348 10.8998 233.433 10.9898C233.518 11.0798 233.644 11.1541 233.713 11.1549C233.783 11.1557 233.784 11.0973 233.716 11.0251C233.648 10.9529 233.926 10.817 234.334 10.7234C234.779 10.6212 235.132 10.6137 235.218 10.7048C235.297 10.7881 235.467 10.8158 235.597 10.7661C235.726 10.7165 235.832 10.7525 235.83 10.8462C235.829 10.9481 236.162 10.9862 236.662 10.9411C237.43 10.872 237.523 10.912 237.843 11.4482C238.313 12.2374 238.827 12.5138 238.872 12.0019C238.902 11.6695 238.922 11.6618 239.028 11.9436C239.185 12.3599 239.65 12.5548 239.9 12.3087C240.029 12.1821 240.095 12.2195 240.095 12.42C240.095 12.6626 240.167 12.6857 240.455 12.5369C240.741 12.3887 240.846 12.4182 240.973 12.6831C241.061 12.8657 241.068 13.0813 240.988 13.1619C240.782 13.3711 241.098 13.8413 241.375 13.7356C241.502 13.687 241.541 13.579 241.462 13.4953C241.329 13.3534 241.697 13.2763 242.199 13.3409C242.32 13.3566 242.342 13.2382 242.247 13.078C242.152 12.9178 242.078 11.8255 242.083 10.6508C242.088 9.47607 241.998 8.55108 241.882 8.59544C241.765 8.6398 241.5 8.43497 241.291 8.14017C241.083 7.84554 240.689 7.38367 240.416 7.11398C240.143 6.84428 239.851 6.53204 239.766 6.41992C239.682 6.30797 239.455 6.21439 239.262 6.21214C239.068 6.20989 238.911 6.13101 238.912 6.03702C238.913 5.94302 239.045 5.91935 239.204 5.98453C239.388 6.05983 239.426 6.03137 239.309 5.90675C239.167 5.75634 239.039 5.75356 238.765 5.89526C238.497 6.03412 238.408 6.03373 238.41 5.89354C238.411 5.79083 238.068 5.48608 237.649 5.21628C237.198 4.92675 236.959 4.64502 237.067 4.52851C237.166 4.42 237.161 4.38003 237.054 4.43969C236.948 4.49951 236.619 4.36484 236.324 4.1406C235.119 3.22542 230.795 3.84979 226.41 5.57199C225.547 5.91117 225.039 6.01138 224.584 5.93292C224.064 5.84286 223.982 5.87196 224.116 6.10078C224.205 6.25431 224.174 6.33519 224.045 6.28249C223.918 6.23028 223.81 6.06169 223.806 5.90787C223.79 5.27078 223.613 4.86651 223.216 4.56226C222.984 4.38495 222.796 4.16809 222.797 4.08039C222.798 3.99254 222.685 3.91935 222.547 3.91773C222.408 3.91612 222.296 3.8074 222.297 3.67625C222.299 3.54511 222.029 3.32036 221.698 3.17678C221.367 3.0332 220.797 2.61969 220.432 2.25781C220.067 1.89578 219.464 1.51047 219.093 1.40148C218.722 1.29249 218.135 1.08004 217.791 0.929519C217.103 0.629318 215.369 0.407866 214.769 0.543515ZM185.688 1.80947C185.604 1.86212 185.386 1.8654 185.205 1.81661C185.004 1.76275 185.064 1.72517 185.358 1.72083C185.624 1.71698 185.772 1.75683 185.688 1.80947ZM185.797 3.59723C185.622 3.64027 185.533 3.73194 185.598 3.80119C185.663 3.87043 185.411 3.88608 185.039 3.83603C184.428 3.75397 184.41 3.73309 184.86 3.62622C185.134 3.56093 185.528 3.51011 185.736 3.51334C185.992 3.51729 186.012 3.54449 185.797 3.59723ZM184.218 3.95619C184.217 4.04501 184.166 4.11711 184.105 4.1164C184.044 4.11568 183.925 4.04161 183.84 3.95178C183.755 3.86196 183.806 3.78987 183.953 3.79157C184.1 3.79328 184.219 3.86736 184.218 3.95619ZM143.876 3.71163C143.875 3.74651 144.051 3.82043 144.265 3.87591C144.489 3.9336 144.59 3.90764 144.503 3.8152C144.357 3.65988 143.877 3.58081 143.876 3.71163ZM83.2842 4.17114C83.1998 4.22378 82.9822 4.22707 82.8009 4.17827C82.6003 4.12441 82.6605 4.08683 82.9544 4.0825C83.2202 4.07865 83.3685 4.11849 83.2842 4.17114ZM189.62 5.47103C189.707 5.56347 189.606 5.58943 189.382 5.53174C188.947 5.41926 188.868 5.30253 189.231 5.30675C189.361 5.30827 189.537 5.38219 189.62 5.47103ZM218.235 6.11067C218.23 6.50571 218.113 6.58641 217.467 6.63946C217.027 6.67569 216.593 6.61345 216.44 6.49214C216.293 6.37672 215.792 6.29691 215.326 6.31506C214.859 6.33322 214.542 6.28332 214.62 6.20411C214.698 6.12507 214.976 6.09874 215.237 6.14555C215.498 6.19253 215.712 6.16708 215.713 6.08907C215.715 5.94275 217.019 5.67042 217.799 5.6538C218.122 5.64691 218.239 5.76876 218.235 6.11067ZM187.351 5.60792C187.436 5.69775 187.321 5.76911 187.097 5.76649C186.873 5.76388 186.76 5.68988 186.847 5.60205C186.934 5.51422 187.048 5.44287 187.101 5.44348C187.154 5.4441 187.266 5.5181 187.351 5.60792ZM187.47 6.19065C184.938 6.60069 184.495 6.6251 185.704 6.28817C186.191 6.1525 186.794 6.04903 187.044 6.0584C187.294 6.06778 187.554 5.98616 187.621 5.87694C187.699 5.74943 188.078 5.70781 188.68 5.76069C189.549 5.83703 189.46 5.86847 187.47 6.19065ZM216.655 6.379C216.828 6.42592 217.112 6.42922 217.286 6.38634C217.46 6.34362 217.318 6.3053 216.972 6.30127C216.625 6.29723 216.483 6.33225 216.655 6.379ZM127.694 6.27716C127.097 6.67516 126.438 6.99878 126.23 6.99635C126.021 6.99392 125.918 7.03667 126.002 7.09143C126.085 7.14618 125.877 7.35083 125.538 7.54638C125.2 7.74177 125.006 7.95596 125.107 8.02239C125.208 8.08866 125.163 8.11737 125.007 8.08584C124.851 8.05446 124.368 8.27902 123.933 8.5849C123.48 8.90413 123.143 9.04154 123.142 8.90763C123.142 8.77921 123.455 8.46271 123.84 8.20422C124.225 7.94573 124.397 7.78459 124.222 7.84588C123.646 8.04916 123.895 7.79523 124.988 7.0646C125.582 6.66754 126.348 6.3122 126.689 6.27483C127.031 6.23729 127.595 6.02935 127.942 5.81242C129.039 5.12771 128.83 5.52053 127.694 6.27716ZM214.175 6.45044C214.117 6.47496 213.841 6.59887 213.562 6.72598C213.093 6.93971 213.082 6.93618 213.405 6.67843C213.597 6.52512 213.873 6.4012 214.017 6.40289C214.162 6.40457 214.233 6.42591 214.175 6.45044ZM157.712 6.46487C157.71 6.63526 157.226 6.70133 157.084 6.55043C156.998 6.45913 157.104 6.38655 157.32 6.38907C157.536 6.39158 157.713 6.42562 157.712 6.46487ZM81.5643 6.15341C81.3553 6.23707 81.0141 6.30353 80.8061 6.30111C80.47 6.2972 80.4702 6.27992 80.8079 6.14461C81.0169 6.06095 81.3581 5.99449 81.5661 5.99691C81.9022 6.00083 81.902 6.01811 81.5643 6.15341ZM124.679 6.54945C124.678 6.58013 124.421 6.7406 124.107 6.90623L123.536 7.2073L124.021 6.8495C124.476 6.51333 124.68 6.42024 124.679 6.54945ZM155.687 7.17769C155.362 7.30766 155.371 7.33102 155.748 7.33751C155.991 7.34163 156.19 7.27239 156.191 7.18356C156.193 6.98653 156.165 6.9862 155.687 7.17769ZM185.438 7.52624C185.17 7.63491 185.32 7.65296 185.941 7.58718C187.03 7.47209 187.236 7.38258 186.427 7.37639C186.092 7.37394 185.647 7.44129 185.438 7.52624ZM208.236 8.17991C207.965 8.30276 207.691 8.36837 207.626 8.32562C207.488 8.23517 208.142 7.95591 208.49 7.95625C208.621 7.95648 208.506 8.05707 208.236 8.17991ZM48.8425 6.52559C48.6687 6.56847 48.3851 6.56517 48.2122 6.51825C48.0395 6.4715 48.1816 6.43648 48.5283 6.44052C48.8749 6.44455 49.0164 6.48287 48.8425 6.52559ZM207.365 8.42531C207.364 8.51414 207.243 8.58542 207.096 8.58371C206.949 8.582 206.9 8.50874 206.987 8.42091C207.073 8.33308 207.194 8.2618 207.255 8.26251C207.317 8.26322 207.366 8.33648 207.365 8.42531ZM100.36 7.36639C100.464 7.47646 100.428 7.50997 100.274 7.44696C100.129 7.38761 99.9383 7.45726 99.8493 7.60177C99.7607 7.74611 99.6181 7.81859 99.533 7.76252C99.448 7.70661 99.5229 7.55161 99.6999 7.41831C100.086 7.12753 100.132 7.12386 100.36 7.36639ZM139.398 7.78038C139.173 7.9204 138.531 7.92117 138.533 7.78147C138.534 7.70605 138.757 7.6576 139.028 7.67384C139.299 7.69008 139.465 7.73805 139.398 7.78038ZM153.409 7.93539C153.408 8.0113 152.894 8.27426 152.267 8.51959C151.64 8.76509 151.126 9.02837 151.126 9.10461C151.125 9.181 151.256 9.19318 151.417 9.13174C151.598 9.06229 151.64 9.08991 151.527 9.20409C151.266 9.46774 150.698 9.42478 150.525 9.1283C150.44 8.98356 150.484 8.91929 150.626 8.97748C150.762 9.03334 150.875 8.96568 150.877 8.82727C150.878 8.68886 151.04 8.57736 151.237 8.57964C151.433 8.58193 151.632 8.52287 151.68 8.44831C151.745 8.34472 152.699 7.98188 153.347 7.81369C153.382 7.80473 153.41 7.85948 153.409 7.93539ZM176.857 8.13369C176.857 8.16858 176.68 8.2384 176.464 8.28887C176.239 8.34133 176.138 8.31302 176.227 8.22264C176.377 8.07077 176.859 8.00288 176.857 8.13369ZM181.074 8.30086C181.244 8.41332 181.447 8.46527 181.525 8.41643C181.603 8.36759 181.465 8.27568 181.217 8.21206C180.858 8.12034 180.829 8.13842 181.074 8.30086ZM181.898 8.29995C181.897 8.39395 182.01 8.42741 182.15 8.37411C182.289 8.32081 182.403 8.24526 182.404 8.20601C182.404 8.16676 182.291 8.13346 182.152 8.13185C182.014 8.13024 181.899 8.20595 181.898 8.29995ZM123.181 7.86994C122.787 8.0411 122.688 8.16529 122.88 8.24409C123.091 8.33054 123.077 8.40953 122.828 8.53827C122.558 8.67776 122.49 8.63094 122.503 8.31239C122.519 7.93185 122.985 7.61261 123.525 7.6134C123.659 7.61368 123.505 7.72915 123.181 7.86994ZM204.085 8.60971C204.084 8.64315 203.884 8.7681 203.64 8.88721C203.238 9.08331 203.229 9.07756 203.546 8.82506C203.878 8.55982 204.086 8.4768 204.085 8.60971ZM206.396 8.93367C205.919 9.23147 206.044 9.45276 206.552 9.20814C206.804 9.08622 206.505 9.27753 205.885 9.63295C204.823 10.243 204.063 10.4496 204.067 10.1272C204.068 10.0481 203.937 10.0335 203.776 10.0949C203.593 10.1648 203.553 10.1366 203.669 10.0199C203.77 9.91701 203.942 9.86926 204.05 9.91365C204.159 9.95804 204.509 9.82014 204.829 9.60726C205.15 9.39437 205.527 9.26761 205.669 9.32547C205.825 9.38931 205.864 9.32435 205.768 9.16009C205.665 8.98331 205.739 8.89096 205.98 8.89378C206.184 8.89615 206.352 8.8133 206.353 8.70961C206.354 8.60609 206.432 8.57178 206.526 8.63361C206.62 8.69544 206.562 8.83044 206.396 8.93367ZM157.565 8.33024C157.365 8.53241 157.699 8.5363 158.195 8.33758C158.523 8.20652 158.516 8.18447 158.149 8.17793C157.914 8.17391 157.651 8.24241 157.565 8.33024ZM80.8739 7.90796C80.6366 8.08127 80.2843 8.17037 80.0545 8.11503C79.8327 8.06173 79.7369 8.07968 79.8412 8.15503C80.147 8.37585 78.982 9.05605 78.6289 8.86295C78.4067 8.74164 78.3399 8.84214 78.3671 9.25597C78.3875 9.56182 78.297 9.79708 78.1666 9.77876C78.036 9.76044 77.8763 9.83579 77.8112 9.94616C77.6558 10.2106 78.5433 10.0193 78.8246 9.72762C78.9369 9.61117 79.1649 9.51982 79.3313 9.52466C79.4977 9.52935 79.2912 9.72175 78.8724 9.95206C78.4537 10.1824 78.148 10.4492 78.1928 10.5447C78.2378 10.6404 78.0046 10.552 77.6746 10.3482C77.3446 10.1446 76.9553 9.97642 76.8095 9.97473C76.3398 9.96926 75.1983 10.6224 75.3661 10.8005C75.4643 10.9048 75.7131 10.8229 75.9957 10.5929C76.2525 10.384 76.4643 10.3039 76.466 10.4149C76.4677 10.5261 76.5895 10.6183 76.7362 10.62C76.8829 10.6217 76.9347 10.5504 76.851 10.4616C76.7638 10.3691 76.865 10.343 77.0875 10.4005C77.6375 10.5426 77.337 10.7606 76.3904 10.9064C75.9456 10.9749 75.5793 11.099 75.5763 11.1822C75.5653 11.4771 75.1951 11.6951 74.5914 11.7619C74.122 11.8139 74.0143 11.7729 74.1292 11.5863C74.2426 11.402 74.1608 11.3681 73.7927 11.4465C73.3278 11.5454 73.3269 11.5401 73.7671 11.3275C74.0205 11.2049 74.2321 11.0438 74.2378 10.969C74.2432 10.8943 74.3463 10.8519 74.4666 10.8746C74.6699 10.913 75.3088 10.3352 75.3318 10.0921C75.3372 10.033 75.4459 9.92526 75.5729 9.85259C75.7071 9.77598 75.727 9.80447 75.6202 9.9205C75.3081 10.2601 75.8551 10.1465 76.6295 9.71079C77.1844 9.39872 77.242 9.32186 76.8616 9.39997C76.4759 9.47931 76.4262 9.46 76.6515 9.31805C77.0661 9.05717 77.6092 9.29609 77.2378 9.57589C77.06 9.70999 77.0478 9.82259 77.2044 9.88677C77.3397 9.94213 77.5412 9.8965 77.6522 9.78521C77.8486 9.58833 77.901 9.4825 78.0901 8.89932C78.1448 8.73068 78.4139 8.61896 78.7601 8.62073C79.1328 8.62281 79.4177 8.4906 79.5605 8.24981C79.6963 8.02073 79.92 7.91124 80.1372 7.96723C80.3323 8.01764 80.5556 7.95514 80.6335 7.82844C80.7114 7.70174 80.8911 7.59932 81.0328 7.60097C81.1745 7.60262 81.103 7.7407 80.8739 7.90796ZM133.519 8.35565C133.308 8.43864 133.272 8.53014 133.427 8.59348C133.566 8.65017 133.745 8.58861 133.826 8.45678C133.996 8.17981 133.981 8.17478 133.519 8.35565ZM156.678 8.64298C156.45 8.73433 156.418 8.79744 156.599 8.80116C156.764 8.80437 156.97 8.73521 157.057 8.64738C157.252 8.44905 157.165 8.44803 156.678 8.64298ZM158.08 8.64427C158.001 8.72379 158.164 8.75364 158.443 8.71036C159.032 8.61853 159.108 8.50973 158.586 8.50366C158.386 8.50133 158.159 8.56458 158.08 8.64427ZM198.532 9.02967C198.532 9.0631 198.332 9.18806 198.088 9.30717C197.686 9.50327 197.677 9.49751 197.993 9.24501C198.326 8.97978 198.534 8.89675 198.532 9.02967ZM97.1765 8.01146C97.1761 8.04489 96.9759 8.16985 96.732 8.28896C96.3298 8.48506 96.321 8.4793 96.6374 8.2268C96.9701 7.96157 97.178 7.87854 97.1765 8.01146ZM125.415 8.32964C125.414 8.35742 125.043 8.58941 124.589 8.845L123.764 9.3098L124.511 8.79353C125.207 8.31236 125.416 8.2048 125.415 8.32964ZM49.1421 7.71258C49.2293 7.80502 49.1278 7.83098 48.9041 7.77329C48.4687 7.66081 48.3901 7.54408 48.7526 7.5483C48.8832 7.54982 49.0584 7.62374 49.1421 7.71258ZM155.841 9.01977C155.736 9.1867 155.709 9.36212 155.781 9.40948C156.009 9.55945 156.214 9.32036 156.122 9.01254C156.037 8.73049 156.023 8.73082 155.841 9.01977ZM158.224 8.9493C158.065 8.98137 157.934 9.08871 157.933 9.18788C157.931 9.32015 158.007 9.32087 158.216 9.19036C158.373 9.09252 158.645 9.04982 158.822 9.09533C158.998 9.141 159.214 9.10587 159.302 9.0174C159.453 8.86394 158.84 8.82531 158.224 8.9493ZM202.815 9.39062C202.814 9.41759 202.391 9.68515 201.873 9.98539C201.356 10.2855 201.099 10.3876 201.303 10.2123C201.874 9.72097 202.817 9.20844 202.815 9.39062ZM205.209 9.53091C205.122 9.61874 205.171 9.692 205.318 9.6937C205.465 9.69541 205.586 9.62413 205.587 9.53531C205.588 9.44648 205.539 9.37322 205.477 9.37251C205.416 9.37179 205.295 9.44307 205.209 9.53091ZM48.0967 7.90136C48.0186 7.9804 47.892 8.0038 47.8152 7.95332C47.7384 7.90284 47.494 7.94974 47.2718 8.05748C46.9242 8.22611 46.9117 8.21837 47.1822 8.0012C47.5083 7.73944 48.347 7.64793 48.0967 7.90136ZM100.798 8.77855C100.255 9.02679 99.7656 9.2046 99.7115 9.1736C99.5399 9.07517 100.284 8.60167 100.819 8.46963C101.791 8.22913 101.785 8.3279 100.798 8.77855ZM155.237 9.07719C155.06 9.14669 155.018 9.28575 155.135 9.4102C155.284 9.56862 155.373 9.53718 155.478 9.28884C155.555 9.10448 155.601 8.95463 155.579 8.95567C155.558 8.95687 155.404 9.01145 155.237 9.07719ZM40.9473 7.83429C40.9457 7.9698 38.8387 8.92332 38.4598 8.95994C38.2255 8.98241 38.058 9.07576 38.0872 9.16704C38.1164 9.25832 37.9456 9.30673 37.7077 9.27456C37.4698 9.24255 37.2291 9.21019 37.1729 9.20276C36.9657 9.17515 38.0508 8.51938 38.5427 8.37472C39.0427 8.22773 39.0429 8.22951 38.5593 8.4707C38.0718 8.71361 38.0718 8.7162 38.5564 8.71522C38.8255 8.71479 39.4412 8.5039 39.9243 8.24656C40.7791 7.79147 40.9486 7.72318 40.9473 7.83429ZM95.82 8.71495C95.5882 8.87491 95.4833 9.06704 95.5868 9.1419C95.6904 9.21693 95.6463 9.22934 95.4894 9.16984C95.3325 9.11035 95.0628 9.16827 94.8898 9.29855C94.7168 9.42883 94.6712 9.53652 94.7884 9.53788C94.9057 9.53925 94.7194 9.66372 94.375 9.81445C94.0303 9.96518 93.6609 10.0694 93.554 10.0461C93.4471 10.0227 93.2496 10.1845 93.1149 10.4057C92.8411 10.8548 92.5291 10.9657 92.7816 10.5241C93.0282 10.0924 93.4061 9.83903 93.6523 9.93978C93.7748 9.98983 93.8757 9.96225 93.8767 9.87843C93.8777 9.79461 94.363 9.43246 94.9552 9.07382C96.0538 8.40835 96.5806 8.1898 95.82 8.71495ZM121.626 8.88109C121.625 8.96992 121.574 9.04202 121.513 9.0413C121.451 9.04059 121.332 8.96652 121.248 8.87669C121.163 8.78686 121.214 8.71477 121.361 8.71648C121.507 8.71819 121.627 8.79226 121.626 8.88109ZM153.278 9.23837C153.197 9.32013 153.234 9.42911 153.36 9.48064C153.486 9.53218 153.655 9.46647 153.736 9.33464C153.896 9.07483 153.518 8.99532 153.278 9.23837ZM173.425 9.46511C172.161 10.1983 170.259 11.0229 170.135 10.8916C170.05 10.8017 170.131 10.7498 170.315 10.7764C170.498 10.8029 170.618 10.728 170.581 10.61C170.544 10.4919 170.63 10.4426 170.771 10.5006C170.913 10.5585 171.029 10.5358 171.03 10.45C171.031 10.3644 171.565 10.0755 172.216 9.80818C173.365 9.33664 173.917 9.17993 173.425 9.46511ZM97.1656 8.94303C96.8168 9.12375 96.5308 9.32992 96.5299 9.40131C96.5291 9.47286 96.4512 9.57937 96.357 9.6382C96.2627 9.69719 96.2125 9.63344 96.2456 9.49669C96.322 9.17986 97.1619 8.59473 97.5239 8.60589C97.6756 8.61072 97.5145 8.7623 97.1656 8.94303ZM149.353 9.57549C149.005 9.77594 148.493 9.99176 148.215 10.0552C147.914 10.1238 148.069 9.97778 148.597 9.69447C149.632 9.13988 150.287 9.03669 149.353 9.57549ZM122.568 9.34304C122.923 9.16061 122.927 9.17633 122.613 9.49185C122.364 9.74255 122.207 9.78756 122.071 9.64707C121.965 9.53842 121.887 9.37679 121.897 9.28807C121.907 9.19934 121.973 9.22127 122.043 9.33693C122.148 9.50857 122.244 9.50968 122.568 9.34304ZM229.039 10.8178C228.915 11.0162 228.676 11.1559 228.507 11.1279C228.073 11.0565 227.228 11.5705 227.419 11.7898C227.506 11.89 227.493 11.9224 227.391 11.862C227.179 11.7372 226.232 12.2751 226.229 12.5215C226.228 12.6104 226.076 12.6813 225.891 12.6791C225.706 12.677 225.556 12.5694 225.557 12.4401C225.559 12.3107 225.654 12.2435 225.769 12.2905C225.884 12.3376 226.216 12.1234 226.508 11.8145C226.799 11.5057 227.258 11.2108 227.528 11.1591C227.811 11.1049 227.948 10.9843 227.85 10.8731C227.758 10.7674 227.772 10.7339 227.881 10.7987C227.99 10.8634 228.318 10.8127 228.609 10.686C229.294 10.3882 229.303 10.3912 229.039 10.8178ZM99.4315 9.2503C99.4294 9.4265 98.164 9.9566 98.1607 9.78276C98.1593 9.71409 98.0543 9.76052 97.9275 9.88617C97.8005 10.0117 97.5069 10.13 97.2747 10.1491C97.0427 10.1682 96.8918 10.1594 96.9395 10.1296C96.9873 10.0997 97.1011 10.0885 97.1922 10.1042C97.2836 10.1202 97.6019 9.9394 97.8997 9.70267C98.254 9.42089 98.5826 9.30858 98.8503 9.3776C99.1236 9.44813 99.1996 9.41978 99.0793 9.29223C98.9801 9.18705 99.0194 9.10255 99.1662 9.10426C99.3129 9.10596 99.4324 9.17164 99.4315 9.2503ZM156.69 9.94906C156.356 10.0303 156.147 10.138 156.223 10.1883C156.3 10.2387 156.686 10.1718 157.081 10.0397C157.876 9.77405 157.636 9.71827 156.69 9.94906ZM226.03 10.7977C225.874 10.9151 225.802 11.0596 225.869 11.1188C225.937 11.1781 225.916 11.1892 225.824 11.1435C225.732 11.0979 225.419 11.1839 225.128 11.3347C224.838 11.4856 224.937 11.3779 225.347 11.0953C226.07 10.5982 226.604 10.3651 226.03 10.7977ZM37.6235 8.99365C37.3071 9.24615 37.3158 9.25191 37.7181 9.05581C37.9623 8.9367 38.1622 8.81174 38.1626 8.77831C38.1641 8.64539 37.9561 8.72842 37.6235 8.99365ZM200.018 11.3281C199.401 11.7207 198.844 12.0413 198.779 12.0405C198.633 12.0388 199.714 11.2803 200.402 10.9019C201.354 10.3772 201.142 10.613 200.018 11.3281ZM46.5495 9.15764C46.3927 9.25548 46.3191 9.42891 46.3856 9.54323C46.4524 9.6574 46.3864 9.797 46.2393 9.85328C46.0759 9.91566 46.0317 9.85781 46.1258 9.70497C46.2376 9.5231 46.1682 9.48029 45.8739 9.54891C45.6507 9.60107 45.5299 9.7095 45.6058 9.79002C45.6816 9.87037 45.6168 9.93471 45.4617 9.93291C45.3067 9.9311 45.2538 10.008 45.344 10.1039C45.4426 10.2084 45.322 10.2555 45.0423 10.2215C44.7862 10.1904 44.6004 10.2493 44.6295 10.3524C44.6586 10.4555 44.4939 10.5199 44.2635 10.4956C44.0328 10.4711 43.4539 10.6156 42.9767 10.8163C42.4996 11.0172 41.9816 11.1331 41.8252 11.0738C41.669 11.0146 41.6257 11.0273 41.7293 11.1024C41.9631 11.2715 41.1671 11.846 40.8682 11.7236C40.5026 11.574 40.631 11.2899 41.0191 11.3902C41.2559 11.4513 41.3379 11.4062 41.2534 11.2611C41.1072 11.011 41.9976 10.6472 42.3066 10.8306C42.4155 10.8954 42.4196 10.8518 42.3155 10.7335C42.0749 10.4603 42.9141 10.049 43.4776 10.1641C43.7301 10.2156 44.1067 10.0762 44.4462 9.80527C44.7517 9.56153 44.9226 9.45836 44.8259 9.5758C44.7295 9.6934 45.0907 9.61102 45.6289 9.39277C46.7031 8.95719 46.9864 8.8849 46.5495 9.15764ZM107.494 9.84729C107.285 9.93095 107.227 10.0007 107.366 10.0023C107.504 10.0039 107.789 9.93682 107.998 9.85316C108.207 9.7695 108.264 9.69974 108.126 9.69813C107.987 9.69652 107.703 9.76363 107.494 9.84729ZM99.5176 10.2571C98.9751 10.5272 98.562 10.8186 98.599 10.9045C98.6361 10.9905 98.5531 11.0143 98.4143 10.9576C98.1044 10.8307 98.6508 10.2289 99.0716 10.2338C99.2291 10.2357 99.5007 10.1298 99.6749 9.99858C99.8492 9.86735 100.107 9.76131 100.248 9.76295C100.388 9.76459 100.06 9.98691 99.5176 10.2571ZM105.397 9.93499C105.145 10.1903 105.882 10.3288 106.544 10.1504C107.075 10.0075 107.068 10.0022 106.44 10.0733C106.036 10.1191 105.727 10.0719 105.668 9.95494C105.599 9.81764 105.519 9.81187 105.397 9.93499ZM148.819 10.3687C148.761 10.3903 148.313 10.6212 147.826 10.8821L146.939 11.3563L147.685 10.8401C148.096 10.5562 148.543 10.3251 148.679 10.3267C148.815 10.3283 148.878 10.3471 148.819 10.3687ZM107.803 10.1835C106.486 10.3342 103.643 11.2485 103.477 11.5744C103.385 11.7539 103.464 11.7447 103.797 11.5363C104.041 11.3844 104.344 11.3027 104.471 11.3547C104.597 11.4066 104.702 11.3721 104.703 11.2781C104.704 11.1841 104.79 11.1166 104.894 11.1283C105.341 11.1789 105.671 11.0992 106.199 10.8138C106.509 10.6465 107.208 10.4667 107.754 10.4141C108.3 10.3614 108.811 10.2527 108.89 10.1726C108.969 10.0924 108.999 10.0343 108.956 10.0436C108.913 10.0528 108.394 10.1157 107.803 10.1835ZM79.7033 10.3888C78.5705 10.8755 78.5396 10.9089 79.0276 11.1109C79.3398 11.2399 79.4728 11.2516 79.3685 11.1409C79.2728 11.0396 79.6215 10.7166 80.1561 10.4112C81.3388 9.73573 81.235 9.73048 79.7033 10.3888ZM149.09 10.716C149.089 10.75 148.661 10.9684 148.138 11.2012L147.188 11.6248L148.066 11.1388C148.932 10.6601 149.091 10.5944 149.09 10.716ZM230.524 11.7639C230.296 11.8553 230.264 11.9184 230.445 11.9221C230.61 11.9253 230.816 11.8561 230.903 11.7683C231.098 11.57 231.011 11.5689 230.524 11.7639ZM44.075 9.91677C43.9883 10.0046 43.8039 10.0751 43.6652 10.0735C43.5265 10.0719 43.484 9.99873 43.5708 9.9109C43.6575 9.82307 43.8419 9.75252 43.9806 9.75414C44.1193 9.75575 44.1618 9.82893 44.075 9.91677ZM49.1175 9.97546C49.0307 10.0633 48.8247 10.1324 48.6596 10.1292C48.4791 10.1255 48.5111 10.0624 48.7393 9.97106C49.226 9.7761 49.3132 9.77712 49.1175 9.97546ZM95.8616 11.0968C95.4084 11.3889 94.9351 11.5863 94.8103 11.5351C94.5428 11.4257 93.5623 11.9376 93.7197 12.1045C93.7787 12.1674 93.6452 12.2168 93.4229 12.2142C93.1624 12.2111 93.3947 11.9904 94.0754 11.5944C94.6565 11.2563 95.2356 11.0219 95.3621 11.0736C95.576 11.1612 95.9542 10.9202 96.0389 10.6427C96.0591 10.5764 96.0902 10.4815 96.1082 10.4321C96.1261 10.3827 96.2635 10.3924 96.4135 10.4539C96.5842 10.5237 96.3776 10.7644 95.8616 11.0968ZM64.0065 10.556C63.7377 10.6824 63.576 10.8241 63.647 10.8708C63.7183 10.9175 63.9841 10.8124 64.2378 10.637C64.7785 10.2639 64.6921 10.2336 64.0065 10.556ZM80.2782 10.8032C79.9259 10.9716 79.7808 11.1366 79.9309 11.198C80.0724 11.256 80.3758 11.1246 80.6048 10.9058C81.0989 10.4338 81.0698 10.4247 80.2782 10.8032ZM103.07 10.9247C102.981 11.0151 103.082 11.0434 103.307 10.991C103.745 10.8886 103.826 10.7738 103.463 10.7695C103.333 10.768 103.156 10.8378 103.07 10.9247ZM35.8756 10.2886C35.8746 10.3679 35.687 10.4764 35.459 10.5298C35.1118 10.6109 35.0964 10.5869 35.3653 10.3844C35.7317 10.1085 35.878 10.0809 35.8756 10.2886ZM170.763 11.7856C170.762 11.8249 170.648 11.9004 170.509 11.9537C170.369 12.007 170.256 11.9736 170.257 11.8796C170.258 11.7856 170.373 11.7099 170.511 11.7115C170.65 11.7131 170.763 11.7464 170.763 11.7856ZM74.8266 10.9208C74.7371 11.0115 74.5775 11.0504 74.4721 11.0071C74.3664 10.9641 74.2789 11.0333 74.2774 11.1612C74.2757 11.305 74.3797 11.3427 74.5496 11.2597C74.7005 11.186 74.9893 11.0949 75.1909 11.057C75.4441 11.0097 75.4698 10.9525 75.2735 10.8722C75.1172 10.8082 74.9162 10.8301 74.8266 10.9208ZM171.894 12.0506C171.808 12.1385 171.914 12.2124 172.13 12.2149C172.346 12.2174 172.524 12.1468 172.525 12.058C172.526 11.9691 172.42 11.8952 172.289 11.8937C172.159 11.8922 171.981 11.9628 171.894 12.0506ZM102.115 11.4069C102.285 11.5276 102.606 11.6457 102.828 11.6691C103.05 11.6925 103.156 11.6618 103.062 11.6008C102.97 11.5398 102.818 11.4878 102.726 11.4854C102.633 11.4829 102.388 11.4149 102.181 11.3342C101.876 11.2153 101.863 11.229 102.115 11.4069ZM127.14 11.6912C127.139 11.7801 127.018 11.8514 126.872 11.8496C126.725 11.8479 126.676 11.7747 126.762 11.6868C126.849 11.599 126.97 11.5277 127.031 11.5284C127.092 11.5292 127.142 11.6024 127.14 11.6912ZM34.3523 11.1766C34.1724 11.3121 33.9691 11.3858 33.9003 11.3406C33.8314 11.2954 33.9222 11.1477 34.102 11.0121C34.2819 10.8766 34.4852 10.8029 34.554 10.8481C34.6229 10.8933 34.5321 11.0411 34.3523 11.1766ZM77.1069 11.5242C76.8875 11.6613 76.7074 11.8191 76.7067 11.8749C76.7061 11.9307 76.8427 11.8908 77.0103 11.7862C77.3995 11.5432 77.806 11.5425 77.5664 11.7854C77.4559 11.897 77.4951 11.9272 77.6656 11.862C77.8203 11.8029 77.8842 11.6469 77.8075 11.5157C77.6337 11.2177 77.5972 11.2183 77.1069 11.5242ZM127.136 12.0777C127.136 12.1126 126.959 12.1824 126.743 12.2329C126.518 12.2854 126.417 12.2571 126.506 12.1667C126.656 12.0148 127.138 11.9469 127.136 12.0777ZM170.09 12.6421C170.157 12.7134 169.995 12.7796 169.73 12.7893C169.465 12.799 169.183 12.738 169.104 12.6539C169.024 12.5698 169.186 12.5037 169.464 12.5069C169.741 12.5102 170.023 12.5711 170.09 12.6421ZM73.0013 11.7631C72.889 11.8813 72.3621 12.2136 71.8307 12.5014C71.2502 12.8156 70.9721 13.0688 71.1347 13.1353C71.2961 13.2013 71.1458 13.3316 70.7623 13.4581C69.7612 13.7882 69.4299 13.4395 70.159 12.8226C70.4783 12.5522 70.7952 12.3674 70.863 12.4118C70.9306 12.4563 70.7091 12.6807 70.3708 12.9106C69.2822 13.6501 70.6262 13.0892 71.9005 12.2722C73.0691 11.523 73.3544 11.391 73.0013 11.7631ZM84.1897 12.0293C84.1078 12.1571 84.0485 12.1181 84.0386 11.9298C84.0297 11.7595 84.0903 11.6649 84.1734 11.7195C84.2565 11.7741 84.264 11.9136 84.1897 12.0293ZM121.334 12.2525C121.333 12.3318 121.146 12.4403 120.918 12.4936C120.571 12.5747 120.555 12.5508 120.824 12.3483C121.19 12.0723 121.337 12.0448 121.334 12.2525ZM199.1 13.5715C198.687 13.7768 198.293 13.9079 198.224 13.8627C198.155 13.8175 198.437 13.6124 198.85 13.407C199.263 13.2015 199.657 13.0706 199.726 13.1158C199.795 13.161 199.513 13.366 199.1 13.5715ZM45.0488 11.633C44.576 11.8688 44.579 11.8718 45.1258 11.709C45.4391 11.6158 45.6956 11.5057 45.696 11.4645C45.6975 11.3409 45.5662 11.3751 45.0488 11.633ZM89.8158 12.1452C89.6415 12.2764 89.3778 12.3824 89.2296 12.3807C89.0816 12.3789 89.1816 12.2733 89.4524 12.1461C90.0883 11.847 90.2119 11.8468 89.8158 12.1452ZM74.6886 11.9506C74.6882 11.9848 74.4028 12.1285 74.0545 12.2699C73.7061 12.4114 73.4218 12.4638 73.4227 12.3866C73.4236 12.3093 73.6804 12.1701 73.9937 12.0773C74.6804 11.8741 74.6895 11.8724 74.6886 11.9506ZM120.323 12.5177C120.321 12.6513 119.831 12.7212 119.72 12.6036C119.648 12.5273 119.754 12.4667 119.956 12.469C120.158 12.4714 120.323 12.4933 120.323 12.5177ZM137.34 12.7791C137.253 12.867 137.303 12.9402 137.45 12.9419C137.596 12.9436 137.717 12.8724 137.718 12.7835C137.719 12.6947 137.67 12.6214 137.609 12.6207C137.548 12.62 137.427 12.6913 137.34 12.7791ZM241.846 13.9955C241.845 14.0844 241.957 14.1584 242.096 14.16C242.235 14.1616 242.349 14.0902 242.35 14.0014C242.351 13.9126 242.238 13.8386 242.1 13.837C241.961 13.8353 241.847 13.9067 241.846 13.9955ZM99.3739 12.8349L98.5016 13.3156L99.3884 12.9533C99.8761 12.7542 100.323 12.5733 100.381 12.5513C100.439 12.5296 100.432 12.4762 100.366 12.4329C100.3 12.3895 99.8538 12.5704 99.3739 12.8349ZM73.0186 12.4183C72.9428 12.5419 72.6325 12.6808 72.3297 12.727C71.8156 12.8052 71.8211 12.7904 72.4127 12.5051C73.177 12.1366 73.1934 12.1343 73.0186 12.4183ZM120.421 13.1235C120.332 13.268 120.153 13.3425 120.023 13.2891C119.882 13.2312 119.908 13.0999 120.089 12.9639C120.461 12.6835 120.639 12.769 120.421 13.1235ZM66.1108 12.3288C66.1104 12.3595 65.8534 12.52 65.5393 12.6856L64.9684 12.9867L65.4529 12.6289C65.9082 12.2927 66.1123 12.1996 66.1108 12.3288ZM146.157 13.5279C146.07 13.6157 146.139 13.6892 146.308 13.6912C146.478 13.6931 146.549 13.7376 146.465 13.7899C146.237 13.9323 145.746 13.6857 145.916 13.5139C145.997 13.4321 146.119 13.3659 146.189 13.3667C146.258 13.3675 146.244 13.44 146.157 13.5279ZM119.2 14.1887C118.773 14.5055 118.533 14.5951 118.535 14.4365C118.538 14.1767 119.561 13.4916 119.756 13.6192C119.817 13.6597 119.567 13.916 119.2 14.1887ZM40.8541 13.0694C40.5377 13.3219 40.5465 13.3277 40.9487 13.1316C41.3712 12.9254 41.5061 12.7944 41.2986 12.7919C41.2464 12.7913 41.0462 12.9161 40.8541 13.0694ZM96.874 13.8308C96.38 14.1593 96.3605 14.2108 96.7416 14.1793C96.9877 14.1591 97.2817 13.9861 97.3951 13.7949C97.6575 13.3526 97.5858 13.3575 96.874 13.8308ZM31.3061 13.4794C30.8837 13.7256 30.537 14.0069 30.5358 14.1044C30.5347 14.2021 30.4009 14.2804 30.2385 14.2785C30.0761 14.2766 29.7574 14.3638 29.5305 14.4721C29.3033 14.5806 29.3805 14.5122 29.7014 14.3204C30.3317 13.9437 30.4838 13.7024 29.9709 13.893C29.7531 13.9738 29.7628 13.9271 30.0012 13.7432C30.192 13.596 30.4358 13.5116 30.5432 13.5555C30.6504 13.5995 30.9279 13.4542 31.16 13.2328C31.3918 13.0113 31.6924 12.8754 31.8279 12.9309C31.9632 12.9865 31.7286 13.2333 31.3061 13.4794ZM164.967 14.8775C164.964 15.0996 165.021 15.1912 165.092 15.0809C165.163 14.9707 165.165 14.789 165.096 14.6771C165.028 14.5653 164.97 14.6554 164.967 14.8775ZM14.4346 14.7019C13.2963 15.4651 12.1654 16.2689 11.9217 16.4882L11.4789 16.8869L12.2727 16.4923C12.7092 16.2753 13.1276 15.9639 13.2027 15.8003C13.287 15.616 13.4552 15.5508 13.6454 15.6286C13.8281 15.7034 13.8881 15.6862 13.7937 15.586C13.7068 15.4938 13.9288 15.2852 14.2873 15.1227C14.6457 14.9602 15.0412 14.665 15.1664 14.4665C15.2915 14.268 15.4996 14.1069 15.6287 14.1084C15.9007 14.1116 15.6927 14.7199 15.3784 14.8401C15.2618 14.8847 15.2304 15.03 15.308 15.1633C15.4225 15.3595 15.5534 15.3353 15.9974 15.036C16.2991 14.8328 16.7451 14.6199 16.9888 14.563C17.3249 14.4845 17.3922 14.3549 17.2679 14.0262C17.1608 13.7433 17.1946 13.63 17.365 13.6998C17.5088 13.7586 17.6926 13.6989 17.7738 13.5671C17.9403 13.296 17.5507 13.2327 17.2971 13.4897C17.1828 13.6054 17.0353 13.6042 16.8183 13.4857C16.5845 13.3578 15.978 13.6673 14.4346 14.7019ZM90.0388 14.6515C90.0377 14.7403 89.9166 14.8116 89.7699 14.8099C89.6232 14.8082 89.5738 14.7349 89.6606 14.6471C89.7474 14.5592 89.8682 14.488 89.9295 14.4887C89.9907 14.4894 90.0398 14.5626 90.0388 14.6515ZM165.095 15.4676C165.26 15.5126 165.332 15.653 165.254 15.7797C165.029 16.1456 166.028 16.0698 166.581 15.6789L167.065 15.3364L166.368 15.6142C165.743 15.8634 165.672 15.8652 165.675 15.6312C165.677 15.4855 165.483 15.3737 165.236 15.378C164.994 15.3821 164.93 15.4224 165.095 15.4676ZM16.7686 13.9871C16.6964 14.0603 16.7857 14.123 16.9672 14.1264C17.3872 14.1345 16.6799 14.4376 16.2442 14.4362C16.0296 14.4355 15.9541 13.9896 16.1462 13.8588C16.2784 13.7689 16.8645 13.8899 16.7686 13.9871ZM29.2744 14.1615C29.274 14.1921 29.017 14.3526 28.7029 14.5182L28.132 14.8193L28.6165 14.4615C29.0718 14.1253 29.2759 14.0323 29.2744 14.1615ZM116.508 15.2826C116.507 15.3714 116.456 15.4435 116.395 15.4428C116.334 15.4421 116.215 15.368 116.13 15.2782C116.045 15.1884 116.096 15.1163 116.243 15.118C116.39 15.1197 116.509 15.1938 116.508 15.2826ZM122.807 15.74C122.806 15.7735 122.606 15.8984 122.362 16.0175C121.96 16.2136 121.951 16.2079 122.268 15.9554C122.6 15.6902 122.808 15.6071 122.807 15.74ZM69.8484 15.5068C69.843 15.5733 69.5289 15.7638 69.15 15.9299L68.4609 16.2319L69.077 15.8079C69.7247 15.3622 69.8635 15.3081 69.8484 15.5068ZM26.992 15.2733C26.9916 15.3082 26.8148 15.378 26.5988 15.4285C26.3738 15.481 26.273 15.4527 26.3623 15.3623C26.5121 15.2104 26.9935 15.1425 26.992 15.2733ZM68.0879 15.7761C68.0877 15.7948 67.9353 15.8888 67.7494 15.985C67.4964 16.1157 67.4116 16.1059 67.4134 15.947C67.4148 15.8299 67.5672 15.7359 67.7522 15.7381C67.937 15.7402 68.0881 15.7573 68.0879 15.7761ZM30.6188 15.8174C30.2388 16.1805 29.9529 16.2833 29.6401 16.1695C29.577 16.1466 29.3424 16.271 29.1187 16.4461C28.7225 16.7561 28.7192 16.7549 28.9949 16.3997C29.1505 16.1991 29.3686 16.0723 29.4798 16.1177C29.5907 16.1632 29.9469 16.0239 30.2711 15.8084C31.0239 15.308 31.1489 15.3112 30.6188 15.8174ZM91.2818 16.1807C91.2814 16.2142 91.0812 16.3391 90.8373 16.4582C90.4351 16.6543 90.4263 16.6486 90.7427 16.3961C91.0753 16.1309 91.2833 16.0478 91.2818 16.1807ZM14.4172 15.6553C14.0103 15.9315 14.1219 16.0677 14.6042 15.8832C14.7911 15.8117 14.9029 15.6787 14.8525 15.5877C14.7994 15.4921 14.616 15.5205 14.4172 15.6553ZM34.1971 15.8607C34.1648 15.9945 33.9858 16.1923 33.7992 16.3002C33.5242 16.4594 33.5026 16.4512 33.6849 16.2569C33.8088 16.1251 33.9266 15.9628 33.9468 15.8965C34.02 15.6562 34.0502 15.6151 34.1523 15.6163C34.2093 15.6169 34.2295 15.727 34.1971 15.8607ZM67.0733 16.2902C67.0713 16.4661 65.6893 17.088 65.4857 17.0047C65.1886 16.8829 66.2255 16.2049 66.7005 16.2104C66.906 16.2128 67.0738 16.2487 67.0733 16.2902ZM92.7604 16.5716C92.7429 16.6432 92.7416 16.7566 92.7575 16.8234C92.7731 16.8901 92.6817 16.9436 92.5544 16.9421C92.4271 16.9407 92.1143 16.9869 91.8597 17.045C91.4363 17.1417 91.4291 17.1243 91.7784 16.8422C92.133 16.5559 92.128 16.5495 91.7103 16.7535C91.4628 16.8742 91.316 17.0098 91.3841 17.0545C91.4521 17.0992 91.2743 17.3412 90.9885 17.5921C90.7029 17.8432 90.5462 18.0495 90.6405 18.0505C90.7345 18.0516 90.5419 18.2011 90.2125 18.3827L89.6133 18.7126L90.3734 18.3976C91.6132 17.8837 93.3724 16.679 93.0662 16.5536C92.9152 16.4918 92.7776 16.4999 92.7604 16.5716ZM35.52 16.3994C35.2036 16.6519 35.2124 16.6577 35.6146 16.4616C35.8588 16.3425 36.0587 16.2175 36.0591 16.1841C36.0606 16.0512 35.8527 16.1342 35.52 16.3994ZM5.19331 16.3238C5.18804 16.7762 4.97888 16.7222 4.87001 16.2404C4.83019 16.0645 4.88784 15.9217 4.99776 15.923C5.10794 15.9243 5.19586 16.1046 5.19331 16.3238ZM61.3926 16.9025C61.3059 16.9903 61.4119 17.0642 61.628 17.0667C61.8441 17.0693 62.0199 17.1736 62.0184 17.2984C62.0163 17.4819 61.8987 17.4886 61.4065 17.3336C60.9553 17.1914 60.8665 17.0895 61.0639 16.941C61.3806 16.7024 61.6177 16.6746 61.3926 16.9025ZM117.239 17.4729C117.233 18.0149 118.479 18.4536 118.878 18.0497C118.984 17.9419 118.812 17.9178 118.389 17.9807C117.897 18.054 117.737 18.0161 117.739 17.8276C117.741 17.69 117.629 17.5312 117.491 17.4747C117.353 17.4182 117.24 17.4173 117.239 17.4729ZM27.8193 16.7488C27.8959 16.8801 27.8734 17.0202 27.769 17.0601C27.6647 17.1 27.5646 16.9922 27.5464 16.8204C27.5071 16.4489 27.6262 16.4177 27.8193 16.7488ZM27.1269 16.9621C27.1584 17.07 27.1297 17.0874 27.0627 17.0006C26.9959 16.9137 26.7592 16.8853 26.5367 16.9371C26.26 17.0017 26.1933 16.9699 26.3253 16.8363C26.5534 16.6054 27.0449 16.6823 27.1269 16.9621ZM65.9101 17.5072C65.6396 17.63 65.4744 17.7641 65.5432 17.8051C65.6119 17.8461 65.8879 17.7463 66.1568 17.5832C66.735 17.2323 66.6039 17.192 65.9101 17.5072ZM4.91437 17.0216C4.83639 17.0704 4.6335 17.0185 4.4636 16.906C4.21837 16.7435 4.24758 16.7255 4.60584 16.8172C4.85373 16.8808 4.9926 16.9727 4.91437 17.0216ZM34.2462 17.5153C33.9298 17.7678 33.9386 17.7735 34.3408 17.5774C34.7633 17.3713 34.8982 17.2402 34.6907 17.2378C34.6385 17.2372 34.4384 17.362 34.2462 17.5153ZM60.3526 17.9712C60.3854 18.1226 60.5469 18.2648 60.7113 18.2871C60.876 18.3093 60.8939 18.289 60.7514 18.2422C60.609 18.1951 60.5524 18.0959 60.6256 18.0217C60.6989 17.9474 60.6542 17.8437 60.526 17.7911C60.3977 17.7388 60.3199 17.8197 60.3526 17.9712ZM27.8141 17.6078C27.8806 17.6783 27.7246 17.7335 27.4677 17.7305C27.2108 17.7275 27.0562 17.6687 27.1243 17.5997C27.1927 17.5308 27.3484 17.4754 27.4707 17.4768C27.5929 17.4782 27.7473 17.5372 27.8141 17.6078ZM58.8582 18.0037C58.7715 18.0915 58.8208 18.1648 58.9675 18.1665C59.1143 18.1682 59.2354 18.0969 59.2364 18.0081C59.2374 17.9192 59.1884 17.846 59.1271 17.8453C59.0658 17.8446 58.945 17.9158 58.8582 18.0037ZM65.2212 18.3515C64.6986 18.5743 64.2701 18.8255 64.2691 18.9097C64.2681 18.994 64.7238 18.8379 65.2818 18.563C65.8397 18.2881 66.2966 18.0329 66.297 17.9959C66.2981 17.8968 66.2561 17.9106 65.2212 18.3515ZM61.2704 18.2874C61.2803 18.4757 61.3396 18.5147 61.4215 18.3869C61.4957 18.2712 61.4883 18.1317 61.4052 18.0771C61.3221 18.0225 61.2615 18.1171 61.2704 18.2874ZM10.0568 18.3279C9.87976 18.4612 9.78355 18.6022 9.84261 18.6412C9.90192 18.68 10.0905 18.5716 10.2617 18.3999C10.6322 18.0287 10.5106 17.9861 10.0568 18.3279ZM88.4397 19.2768C88.1234 19.5293 88.1321 19.535 88.5343 19.3389C88.9568 19.1327 89.0917 19.0017 88.8842 18.9993C88.832 18.9987 88.6319 19.1235 88.4397 19.2768ZM62.7511 19.3412C62.5229 19.4326 62.4909 19.4957 62.6714 19.4994C62.8365 19.5026 63.0425 19.4334 63.1293 19.3456C63.325 19.1473 63.2378 19.1462 62.7511 19.3412ZM61.3626 19.4866C60.88 19.6134 60.8826 19.6204 61.4238 19.6375C61.7359 19.6473 61.9918 19.5827 61.9929 19.4939C61.9939 19.4051 61.9662 19.3372 61.9316 19.343C61.897 19.3489 61.6408 19.4134 61.3626 19.4866ZM25.8697 19.255C26.0396 19.3675 26.2425 19.4194 26.3205 19.3706C26.3987 19.3217 26.2598 19.2298 26.0119 19.1662C25.6537 19.0745 25.6245 19.0926 25.8697 19.255ZM7.67326 19.9654C7.60105 20.0387 7.70195 20.1004 7.89785 20.1027C8.09375 20.105 8.19606 20.0456 8.12557 19.9706C8.05508 19.8958 7.95393 19.8341 7.90098 19.8335C7.84804 19.8328 7.74547 19.8922 7.67326 19.9654ZM25.3168 20.1761C25.129 20.3662 26.0782 20.9081 26.3902 20.7888C26.5287 20.7358 26.708 20.7626 26.7889 20.8483C26.9421 21.011 27.8888 20.9632 28.1597 20.7792C28.2456 20.7207 27.9997 20.7061 27.6129 20.7463C27.0954 20.8004 26.8429 20.7382 26.6572 20.5105C26.5185 20.3404 26.2967 20.2427 26.1645 20.2933C26.032 20.344 25.9248 20.3083 25.9259 20.2143C25.9283 20.0086 25.5082 19.9822 25.3168 20.1761ZM2.7318 20.5002C2.73076 20.589 2.83858 20.772 2.97141 20.9068C3.10424 21.0416 3.21374 21.0792 3.21478 20.9904C3.21581 20.9015 3.108 20.7186 2.97517 20.5838C2.84233 20.449 2.73283 20.4113 2.7318 20.5002ZM6.86137 20.5886C6.9579 20.7009 6.94747 20.8825 6.83776 20.9922C6.53722 21.2933 6.50505 21.6086 6.78569 21.5012C6.92221 21.449 6.97085 21.3651 6.89402 21.3146C6.8172 21.2641 6.88591 21.1237 7.04668 21.0027C7.26876 20.8353 7.2606 20.7346 7.01247 20.5836C6.75633 20.4276 6.72379 20.4287 6.86137 20.5886ZM8.39583 20.6469C8.30908 20.7347 8.3584 20.8079 8.50514 20.8097C8.65187 20.8114 8.77298 20.7401 8.77402 20.6513C8.77505 20.5624 8.72598 20.4892 8.66471 20.4885C8.60344 20.4877 8.48259 20.559 8.39583 20.6469Z" fill="#8B9CEE"/>
</svg>
