<svg width="277" height="22" viewBox="0 0 277 22" fill="none" xmlns="http://www.w3.org/2000/svg">
<path fill-rule="evenodd" clip-rule="evenodd" d="M245.316 0.899068C245.078 0.946046 244.72 1.09694 244.52 1.23466C244.321 1.37238 244.158 1.40619 244.159 1.30977C244.16 1.18767 243.797 1.17617 242.959 1.27189C242.298 1.34739 241.6 1.37351 241.409 1.33009C241.218 1.28652 240.896 1.3343 240.694 1.43597C240.406 1.58106 240.379 1.56928 240.57 1.38155C240.781 1.17515 240.747 1.17201 240.325 1.35802C240.055 1.47684 239.836 1.51999 239.836 1.45377C239.837 1.38756 239.663 1.41234 239.449 1.50887C239.235 1.60524 238.994 1.64621 238.914 1.59972C238.833 1.55323 237.285 1.93176 235.474 2.44081C233.662 2.94986 231.659 3.50771 231.021 3.68039C229.778 4.01708 225.204 6.05384 224.549 6.56214C224.17 6.85591 224.127 6.8454 223.585 6.32527C223.273 6.02572 222.355 5.41851 221.545 4.9757C220.735 4.5329 220.137 4.16089 220.216 4.14889C220.296 4.13689 219.865 3.819 219.26 3.44238C217.953 2.62939 216.538 2.2028 214.767 2.08753C214.054 2.04112 213.372 1.94917 213.249 1.8833C212.963 1.72845 209.595 1.93251 207.606 2.22514C206.756 2.35013 205.271 2.65703 204.306 2.90714C203.341 3.15726 202.38 3.35994 202.17 3.3575C201.96 3.35506 201.788 3.4301 201.787 3.5241C201.786 3.6181 201.684 3.65874 201.56 3.61417C201.278 3.51285 197.862 4.27136 196.394 4.76129C195.79 4.96248 195.155 5.13713 194.982 5.14933C194.809 5.16169 194.299 5.35734 193.85 5.58439C193.4 5.81143 192.883 5.99536 192.7 5.99323C192.517 5.99111 191.546 6.34906 190.542 6.78884L188.716 7.58815L187.817 7.01443C187.322 6.69903 186.752 6.30489 186.55 6.13875C186.348 5.97261 186.276 5.94674 186.39 6.08132C186.57 6.29307 186.531 6.29489 186.106 6.09529C185.835 5.96858 185.673 5.83262 185.745 5.79324C185.914 5.70135 185.134 4.97365 184.152 4.30642C183.213 3.66827 182.444 3.48504 180.758 3.49756C180.045 3.50283 179.316 3.44685 179.137 3.37305C178.942 3.2926 178.74 3.34097 178.634 3.4935C178.535 3.63353 178.334 3.70452 178.186 3.65127C178.038 3.59802 177.838 3.62429 177.742 3.70958C177.645 3.79488 177.376 3.82114 177.141 3.76785C176.907 3.71473 176.555 3.73761 176.358 3.81882C176.008 3.96303 173.591 4.46713 172.889 4.54215C172.126 4.62356 169.236 5.39626 168.032 5.8405C167.333 6.09841 166.678 6.27912 166.576 6.24223C166.473 6.20534 166.304 5.90083 166.199 5.56541C166.068 5.14489 165.638 4.75334 164.813 4.30406C164.155 3.94557 163.524 3.66475 163.41 3.68007C163.297 3.69523 163.288 3.58867 163.39 3.44304C163.507 3.27657 163.461 3.21675 163.266 3.28184C162.936 3.39187 162.258 2.50431 162.551 2.34473C162.706 2.25997 162.191 2.18386 161.699 2.21933C161.586 2.22738 161.562 2.13568 161.647 2.01536C161.745 1.875 161.512 1.75276 160.995 1.67389C160.552 1.60639 160.111 1.47834 160.016 1.38952C159.92 1.30069 159.661 1.20544 159.439 1.17783C159.218 1.15005 158.819 1.07159 158.553 1.0034C157.191 0.654316 151.234 1.53913 148.431 2.50684C147.598 2.79467 146.537 3.15448 146.074 3.30658C144.253 3.90516 137.33 7.2727 138.66 6.9128C138.899 6.84822 138.669 7.01434 138.15 7.28161C137.631 7.54903 137.174 7.82235 137.135 7.88924C137.095 7.95614 136.963 7.99078 136.84 7.96641C136.717 7.94188 136.538 8.03365 136.442 8.17016C136.346 8.30666 135.827 8.66615 135.289 8.96873C134.75 9.27146 134.308 9.62684 134.306 9.75847C134.301 10.2129 133.582 9.90607 132.742 9.09124C132.279 8.64165 131.733 8.17575 131.53 8.05612C131.326 7.93632 131.161 7.77077 131.162 7.6884C131.163 7.60587 131.021 7.55496 130.848 7.57507C130.675 7.59535 130.389 7.46474 130.214 7.28502C129.692 6.7514 128.21 5.5004 127.836 5.27863C127.645 5.16527 127.35 5.07106 127.18 5.06908C127.01 5.06711 126.872 4.9807 126.873 4.87701C126.874 4.77349 126.79 4.73551 126.685 4.79276C126.58 4.85001 126.321 4.81373 126.11 4.71241C125.82 4.57336 125.723 4.58257 125.718 4.74969C125.712 4.9336 125.668 4.93228 125.458 4.74133C125.316 4.61337 124.782 4.5133 124.252 4.51553C123.618 4.51833 123.432 4.4753 123.697 4.38696C123.945 4.30424 123.291 4.22232 121.96 4.16952C120.786 4.12306 119.691 4.13552 119.528 4.19726C119.365 4.25917 118.91 4.33577 118.518 4.36771C117.763 4.42903 117.496 4.47615 115.216 4.94938C113.376 5.33145 110.344 6.24288 109.866 6.55778C109.663 6.69191 109.328 6.79962 109.122 6.79723C108.916 6.79483 108.118 7.13089 107.348 7.54384C106.578 7.95695 106.142 8.15168 106.379 7.97676C106.805 7.66269 106.802 7.66234 106.17 7.95559C105.818 8.11883 105.598 8.31527 105.681 8.39216C105.764 8.46904 105.66 8.49303 105.451 8.44553C105.241 8.3977 104.488 8.69632 103.772 9.11151C103.058 9.52559 102.864 9.68826 103.342 9.47317L104.211 9.08221L103.508 9.51759C103.122 9.757 102.742 9.91604 102.664 9.87087C102.585 9.8257 102.282 9.90648 101.99 10.0504C101.489 10.2975 101.462 10.2904 101.506 9.9241C101.588 9.24002 99.2478 6.35924 98.6037 6.35174C98.4637 6.35012 98.1037 6.07343 97.804 5.73671C96.9325 4.75821 95.628 4.07236 94.4779 3.98774C93.7353 3.93323 93.5367 3.96403 93.737 4.10269C93.9397 4.24315 93.5481 4.2751 92.2255 4.22643C90.381 4.15844 88.566 4.3641 88.5628 4.64173C88.5618 4.72878 88.4299 4.75293 88.2695 4.69533C88.1091 4.63758 88.0666 4.5056 88.1753 4.40203C88.2839 4.29831 88.0582 4.3632 87.6741 4.5461C87.29 4.72884 86.3582 5.03992 85.6032 5.23708C84.8484 5.43424 84.2301 5.64381 84.2294 5.70276C84.2287 5.76171 83.6105 5.99147 82.8551 6.21318C81.6336 6.57193 80.0601 7.29293 79.1278 7.92124C78.5884 8.28469 75.7153 9.73197 75.2507 9.8742C74.981 9.95683 75.0357 9.86185 75.3957 9.62261L75.9743 9.23813L75.1796 9.62042C74.7425 9.83081 74.3801 10.081 74.3738 10.1764C74.3554 10.4645 72.9973 11.2193 71.8449 11.5823C71.2493 11.77 70.7605 12.0324 70.759 12.1657C70.7574 12.2989 70.4713 12.4274 70.1233 12.451C69.7099 12.4791 69.5449 12.5752 69.6468 12.7281C69.7329 12.8569 69.627 12.9713 69.412 12.9822C69.1969 12.9933 68.891 13.0176 68.7323 13.0365C68.5737 13.0553 68.3142 13.0786 68.1556 13.0884C67.9971 13.0982 68.0609 13.1789 68.2975 13.2677C68.6684 13.4069 68.6604 13.4288 68.2407 13.4262C67.9728 13.4243 67.6518 13.3308 67.5273 13.2184C67.3023 13.015 67.2541 12.9265 67.1891 12.5992C67.1703 12.505 67.0249 12.4711 66.8659 12.5242C66.7068 12.5773 66.5583 12.4889 66.5363 12.328C66.514 12.167 66.4665 11.9623 66.4307 11.873C66.3948 11.7838 66.3363 11.6377 66.3002 11.5484C66.2641 11.4592 66.2506 11.3319 66.2704 11.2654C66.2899 11.1991 66.1762 11.1432 66.0177 11.1413C65.8593 11.1395 65.7309 11.0345 65.7324 10.9082C65.7339 10.7817 65.2764 10.3331 64.7162 9.91117C64.1556 9.48936 63.7657 9.10685 63.8492 9.06114C63.933 9.01543 63.6571 8.71049 63.236 8.3835C62.0877 7.49159 60.1349 6.38001 59.9212 6.49656C59.8177 6.55302 59.7345 6.48066 59.7362 6.33563C59.7426 5.7807 58.0464 4.94104 56.1628 4.56683C54.3375 4.20411 52.2713 4.19411 52.2672 4.54765C52.2662 4.63195 52.1466 4.65802 52.0017 4.60594C51.8566 4.55369 51.5642 4.6023 51.3523 4.71387C51.1402 4.82528 50.7073 4.91506 50.3905 4.91331C50.0531 4.91148 49.8499 5.00248 49.8999 5.13309C49.9707 5.3166 49.907 5.31828 49.5397 5.14214C49.1762 4.96782 49.0935 4.9667 49.0915 5.13644C49.0902 5.25095 49.0084 5.29813 48.9097 5.24126C48.7246 5.13459 44.9994 6.10967 44.381 6.42681C44.1897 6.52473 43.6844 6.70138 43.2579 6.81934C42.8313 6.93729 42.0496 7.27112 41.5208 7.5612C40.992 7.85145 40.4546 8.08991 40.3266 8.09117C40.1987 8.09258 38.6606 8.89476 36.9087 9.87373C35.1565 10.8529 33.5876 11.7249 33.4224 11.8119C29.8547 13.6882 28.8331 14.1901 28.4999 14.23C28.2801 14.2563 28.0561 14.3445 28.0025 14.4261C27.9485 14.5077 27.7781 14.5729 27.6237 14.5711C27.469 14.5693 27.4165 14.5021 27.507 14.4219C27.5976 14.3417 27.5738 14.2507 27.4544 14.2194C27.3349 14.1883 26.8889 13.7953 26.4632 13.3461C26.0372 12.897 25.5677 12.5439 25.4197 12.5616C25.2715 12.5792 24.9772 12.471 24.7657 12.321C24.4952 12.1292 24.4873 12.0857 24.7398 12.1739C25.2556 12.3545 25.1859 12.0371 24.6533 11.7817C24.4067 11.6633 24.028 11.3775 23.8118 11.1464C23.4618 10.772 22.2562 10.0345 20.3002 8.9978C18.8749 8.24239 16.646 8.15571 14.5941 8.77567C14.0546 8.93868 13.6137 9.0282 13.6143 8.97458C13.615 8.92112 13.0616 9.11756 12.385 9.41142C11.708 9.70527 10.6673 10.1199 10.0717 10.3328C9.47609 10.5457 8.98723 10.7931 8.98504 10.8828C8.98284 10.9726 8.71592 11.1353 8.39143 11.2446C8.06724 11.3539 7.89066 11.526 7.99953 11.6269C8.11068 11.7301 8.0688 11.7644 7.90413 11.7051C7.51686 11.5659 6.79258 12.0183 6.23618 12.7474C5.98899 13.0712 5.51516 13.4142 5.18335 13.5095C4.85153 13.6048 4.64966 13.723 4.73436 13.772C4.81935 13.8209 4.57366 14.1149 4.18806 14.4256C3.80276 14.7361 3.54453 15.0432 3.61406 15.108C3.68389 15.1728 3.52959 15.2133 3.27136 15.1982C3.01285 15.1831 2.74412 15.2789 2.67373 15.4114C2.56033 15.6254 2.58395 15.6257 2.88601 15.4139C3.175 15.2113 3.19996 15.2196 3.05129 15.4694C2.95521 15.6309 2.87598 15.83 2.87503 15.9116C2.87408 15.9931 2.73592 16.0582 2.56828 16.0563C2.40065 16.0543 2.35669 15.9698 2.47079 15.8686C2.60381 15.7509 2.55108 15.727 2.32493 15.8026C2.1306 15.8674 2.03977 16.023 2.1233 16.1482C2.20711 16.2735 2.14227 16.3744 1.97953 16.3725C1.81651 16.3706 1.76266 16.4426 1.85956 16.5326C1.95646 16.6226 1.90175 16.6946 1.73815 16.6927C1.57426 16.6908 1.24024 16.9014 0.995532 17.1606C0.455077 17.733 0.436038 17.859 0.90939 17.7306C1.10821 17.6767 1.06384 17.7264 0.810737 17.841C0.557918 17.9557 0.410455 18.1512 0.483043 18.2754C0.559586 18.4064 0.486137 18.4551 0.308278 18.3912C0.125257 18.3252 0.0176545 18.4127 0.0415982 18.6077C0.0637023 18.7876 0.248635 18.9368 0.452561 18.9391C0.656486 18.9415 0.822372 19.0194 0.821291 19.1122C0.82021 19.2051 1.15939 19.0956 1.57483 18.869C2.39499 18.4216 2.92887 18.4633 2.20369 18.9182C1.64653 19.2677 1.81327 19.693 2.39338 19.4012C2.60375 19.2951 2.71804 19.1532 2.64681 19.0858C2.57557 19.0183 2.65484 18.9648 2.82247 18.9667C2.99011 18.9687 3.1266 19.0473 3.12551 19.1413C3.12441 19.2353 3.25568 19.2682 3.41734 19.2143C3.579 19.1603 3.63763 19.0478 3.54729 18.964C3.45723 18.8803 3.52945 18.8134 3.70774 18.8155C4.01162 18.819 3.98137 18.9427 3.4718 19.7819C3.38633 19.9227 3.52296 19.8907 3.8011 19.705L4.27636 19.3875L4.07674 19.7082C3.96724 19.8846 3.7721 20.0676 3.64365 20.1149C3.51519 20.1623 3.60991 20.3649 3.85417 20.5651L4.29846 20.9293L4.84307 20.5687L5.38769 20.208L5.22101 20.5695C5.08685 20.8598 5.17501 20.9324 5.66899 20.9382C6.19435 20.9443 6.25581 21.0099 6.08895 21.3873C5.98184 21.6302 5.998 21.7765 6.12521 21.7122C6.25271 21.6478 6.56192 21.6877 6.81295 21.801C7.20383 21.9772 7.21975 21.9701 6.92385 21.7519C6.65052 21.5502 6.67157 21.3992 7.02477 21.0262C7.27005 20.7672 7.46739 20.5189 7.46301 20.4745C7.45891 20.43 7.70295 20.4018 8.0053 20.412C8.30766 20.4221 8.48975 20.3696 8.40996 20.2955C8.33016 20.2214 8.04572 20.1571 7.77787 20.1527C7.50051 20.148 7.41557 20.0948 7.58025 20.0292C7.85287 19.9206 7.99379 19.7179 8.14452 19.2176C8.17988 19.1 8.37089 18.9496 8.56928 18.8834C8.88218 18.779 9.08112 18.4918 9.16582 18.0215C9.17904 17.9497 9.31861 17.9375 9.47638 17.9942C9.63416 18.051 9.76457 17.984 9.76618 17.8456C9.76779 17.7072 9.9065 17.5954 10.0741 17.5974C10.2418 17.5993 10.3082 17.535 10.2216 17.4545C10.1346 17.3739 10.2621 17.2678 10.504 17.2186C10.8113 17.1563 10.7064 17.3518 10.1583 17.8639C9.40343 18.5697 8.98374 19.6065 9.52627 19.4255C9.67029 19.3774 9.72542 19.2441 9.64869 19.1292C9.57196 19.0144 9.88672 18.5277 10.348 18.0477C10.9184 17.4546 11.0937 17.1213 10.8951 17.0069C10.6968 16.8926 10.7531 16.8085 11.071 16.7438C11.3401 16.6891 11.464 16.715 11.3627 16.8047C11.2631 16.8931 11.3809 16.9211 11.635 16.8696C12.0367 16.788 12.2286 16.488 12.118 16.1151C12.0961 16.0415 12.1911 16.0219 12.329 16.0717C12.5887 16.165 13.1105 15.8776 14.5139 14.8679C14.966 14.5427 15.4675 14.2941 15.6286 14.3155C15.7896 14.3368 15.974 14.1867 16.0381 13.9822C16.1206 13.7189 16.0489 13.6431 15.7925 13.7225C15.5933 13.7843 15.532 13.7737 15.6562 13.6993C16.0153 13.4838 16.8162 13.4779 17.2946 13.6875C17.5365 13.7934 17.6388 13.8152 17.5225 13.7362C17.4059 13.6571 17.4727 13.4786 17.6711 13.3394C17.9947 13.1122 17.9725 13.1094 17.4528 13.3112C17.0966 13.4497 17.1527 13.3818 17.5989 13.1347C18.077 12.8701 18.395 12.7951 18.5334 12.9141C18.6606 13.0238 18.7458 12.977 18.7508 12.7949C18.756 12.5951 18.9026 12.5277 19.1896 12.5931C19.4568 12.6537 19.6216 12.5973 19.6234 12.4444C19.625 12.3085 19.7625 12.2465 19.9289 12.3064C20.0956 12.3663 20.1893 12.5344 20.1375 12.68C20.0856 12.8256 20.2376 13.0635 20.4756 13.2089C20.7132 13.3543 21.1641 13.7214 21.4775 14.0247C22.761 15.2671 23.1181 15.5557 23.9909 16.0554C25.7513 17.0635 27.2706 18.1031 27.1106 18.1903C27.0219 18.2388 27.1081 18.2802 27.3022 18.2825C27.4987 18.2848 27.5619 18.3695 27.4449 18.4731C27.2999 18.6015 27.397 18.6267 27.7556 18.5538C28.1657 18.4705 28.2089 18.4928 27.9578 18.6584C27.7238 18.8125 27.7349 18.9756 27.9994 19.2683C28.1982 19.4881 28.3745 19.7389 28.3916 19.8256C28.431 20.027 29.04 20.1549 29.0422 19.9623C29.0431 19.8831 28.8551 19.675 28.6247 19.4998C28.394 19.3248 28.2019 19.1224 28.1978 19.0505C28.1853 18.839 29.8816 19.0697 30.7213 19.3935C31.6293 19.7438 32.2125 19.8276 32.2151 19.608C32.2161 19.5219 32.348 19.4986 32.5084 19.5561C32.6687 19.6139 32.7256 19.727 32.6345 19.8077C32.5437 19.8882 32.6701 19.9134 32.9156 19.8636C33.1613 19.8136 33.2913 19.7071 33.2044 19.6264C33.1177 19.546 33.2565 19.4825 33.5128 19.4855C33.7692 19.4884 33.9179 19.4343 33.8432 19.3649C33.7685 19.2957 34.3853 18.9939 35.2139 18.6944C36.0424 18.3949 36.7645 18.0776 36.8191 17.9894C37.1089 17.5203 37.2205 17.4385 37.4548 17.5228C37.596 17.5735 37.7133 17.4697 37.7154 17.2921C37.7174 17.1144 37.8695 16.9189 38.0531 16.8578C38.2784 16.7825 38.3085 16.8191 38.146 16.9703C37.8845 17.2137 39.7089 16.322 40.717 15.714C42.2238 14.8048 47.3882 12.4836 47.4947 12.6675C47.5582 12.7774 47.7357 12.8257 47.889 12.7745C48.0651 12.7158 48.06 12.607 47.8748 12.4789C47.6508 12.3238 47.7816 12.2948 48.4302 12.3558C49.1205 12.4207 49.341 12.3603 49.6151 12.0307C49.8003 11.8082 50.1166 11.6634 50.318 11.7092C50.5194 11.755 50.771 11.7156 50.877 11.6217C50.9978 11.5146 50.8215 11.4681 50.4034 11.497C50.037 11.5223 49.6074 11.6993 49.4488 11.8902C49.1426 12.2588 48.8549 12.3254 48.5984 12.0872C48.5123 12.0072 48.9097 11.7482 49.4814 11.5115C50.2708 11.1847 50.428 11.0466 50.1334 10.9382C49.8729 10.8421 49.8585 10.7959 50.0889 10.7968C50.2776 10.7977 50.5118 10.8725 50.6095 10.9633C50.7201 11.0658 50.9471 11.0407 51.2118 10.8963C51.4455 10.7688 51.8319 10.709 52.0709 10.7634C52.3097 10.8177 52.4685 10.7874 52.4235 10.6961C52.3784 10.6046 52.4401 10.5252 52.5606 10.5195C52.6814 10.5138 53.1831 10.3974 53.6759 10.2608C54.1683 10.1241 54.4906 10.084 54.3916 10.1717C54.2819 10.2688 54.5789 10.3164 55.1507 10.2933C56.211 10.2504 57.0996 10.085 57.1023 9.92997C57.1032 9.8728 57.5014 9.81508 57.9873 9.80168C58.6823 9.78247 58.8494 9.83562 58.7722 10.0518C58.7159 10.2099 58.3187 10.3572 57.8366 10.3987C56.4153 10.5214 56.6048 10.8431 58.0547 10.7684L59.3316 10.7027L60.2209 12.3527C60.7099 13.2603 61.2352 13.9612 61.3879 13.9101C61.5406 13.8593 61.6642 13.931 61.6626 14.0694C61.661 14.2078 61.8495 14.3234 62.0817 14.3261C62.3135 14.3288 62.6425 14.4801 62.8123 14.6621C62.9822 14.8442 63.2448 14.9521 63.3958 14.9017C63.547 14.8513 63.6696 14.8871 63.6685 14.9811C63.6674 15.0751 63.764 15.1447 63.8828 15.1356C64.4986 15.0882 64.7829 15.1907 64.632 15.4057C64.5392 15.5379 64.6027 15.6476 64.7732 15.6496C64.9435 15.6516 65.0064 15.7623 64.913 15.8956C64.8192 16.0289 64.8848 16.2363 65.058 16.3564C65.2314 16.4765 65.2766 16.633 65.1582 16.7043C65.0401 16.7757 65.0973 16.7865 65.2858 16.7283C65.6597 16.6129 67.1476 17.3722 66.8577 17.5301C66.76 17.5836 66.9249 17.5774 67.224 17.5168C67.5463 17.4514 67.6976 17.4685 67.5957 17.5588C67.5014 17.6425 67.6737 17.7139 67.9787 17.7175C68.284 17.721 68.5344 17.6669 68.5352 17.5972C68.5376 17.3899 69.0398 17.4581 69.5111 17.7297C69.7526 17.8688 70.0201 17.9809 70.1048 17.9789C70.7067 17.9633 70.8469 18.0017 70.6914 18.1396C70.5916 18.2281 70.6999 18.2594 70.9387 18.2108C71.2066 18.1564 71.3187 17.9796 71.2415 17.7317C71.1746 17.5156 71.238 17.3401 71.3823 17.3418C71.5269 17.3435 71.7282 17.2265 71.8298 17.082C71.9842 16.862 71.942 16.8515 71.5733 17.0179C71.2797 17.1503 71.133 17.1574 71.1344 17.0386C71.1355 16.9408 71.4734 16.8171 71.8851 16.7641C72.4477 16.6915 72.538 16.6303 72.248 16.5179C71.9963 16.4203 72.1263 16.4059 72.6219 16.4761C73.0875 16.5421 73.4673 16.5074 73.6035 16.3867C73.7586 16.2493 73.703 16.228 73.4199 16.3166C73.1794 16.3916 73.1124 16.3845 73.2554 16.2991C73.3885 16.2199 73.6486 16.1535 73.8332 16.1516C74.0182 16.1497 74.134 16.0534 74.0909 15.9375C74.0476 15.8217 74.178 15.7602 74.3806 15.8008C74.5829 15.8415 74.9218 15.7614 75.1331 15.6229C75.4327 15.4264 75.4696 15.4238 75.2998 15.6106C75.1541 15.7709 75.2906 15.7509 75.7112 15.55C76.4731 15.1864 76.5007 15.1184 75.8364 15.2434C75.5586 15.2956 75.6908 15.18 76.1303 14.9864C76.5696 14.7929 76.844 14.5554 76.74 14.4587C76.6359 14.362 76.6818 14.3301 76.8419 14.3877C77.002 14.4453 77.6079 14.2335 78.1883 13.9169C78.7685 13.6002 79.2424 13.4195 79.2413 13.5151C79.2402 13.6107 78.6544 13.9929 77.9397 14.3641C77.225 14.7354 76.7014 15.0743 76.7758 15.1174C76.8505 15.1602 77.2266 15.0241 77.6118 14.8149C78.6961 14.2255 79.2355 14.0142 79.2336 14.1796C79.2326 14.2627 78.7433 14.5525 78.1458 14.8237C77.5487 15.0949 76.7943 15.4569 76.47 15.6286C76.1453 15.8001 75.7548 15.9401 75.6021 15.9398C75.4492 15.9394 74.883 16.1509 74.3433 16.4097C73.8039 16.6685 73.1772 16.8781 72.9502 16.8755C72.6541 16.872 72.5945 16.9734 72.7386 17.2352C72.918 17.5611 72.8888 17.5755 72.4617 17.3707C72.0417 17.1692 72.0079 17.1771 72.1803 17.4356C72.3154 17.6378 72.2718 17.6919 72.0409 17.6087C71.8389 17.5361 71.7041 17.5893 71.7023 17.7421C71.6999 17.9443 71.9357 17.9117 72.8564 17.582C73.4928 17.3543 74.0144 17.0961 74.0154 17.0082C74.0164 16.9202 74.2121 16.9417 74.4501 17.0559C74.8334 17.2398 74.8248 17.2892 74.3731 17.4876C73.9199 17.6866 73.9438 17.6906 74.5855 17.5245C74.9828 17.4215 75.8615 17.0919 76.5385 16.7919C77.3832 16.4176 77.7683 16.3228 77.7663 16.4898C77.7648 16.6235 77.4268 16.8522 77.0152 16.9979C76.6039 17.1437 76.3333 17.3011 76.4142 17.3479C76.4952 17.3945 77.646 16.9573 78.9712 16.376C81.869 15.1052 82.1794 14.9438 81.2382 15.1963C80.5438 15.3825 80.5489 15.3708 81.3679 14.8944C81.8366 14.6217 82.3676 14.4186 82.5479 14.443C82.7285 14.4674 83.2355 14.2735 83.6744 14.012C84.1136 13.7506 84.3715 13.6446 84.2475 13.7764C84.048 13.9886 84.0826 13.9893 84.5505 13.7827C85.0607 13.5573 85.0605 13.5463 84.5375 13.4595C83.7541 13.3296 83.7522 12.9966 84.5352 13.0899C84.9405 13.1381 85.3381 13.0576 85.59 12.8762C85.936 12.6269 85.9359 12.6135 85.5879 12.7825C85.3646 12.891 84.9888 12.9774 84.7529 12.9747C84.4366 12.971 84.4872 12.8869 84.9465 12.6539C85.2884 12.4802 85.7112 12.3397 85.8855 12.3417C86.06 12.3438 86.1111 12.2604 85.9994 12.1565C85.8612 12.0283 85.9236 12.0136 86.1938 12.1108C86.4127 12.1896 86.8133 12.2656 87.0843 12.2799C87.481 12.301 87.5208 12.2459 87.2886 11.9971C87.0852 11.7789 87.104 11.6197 87.3522 11.4562C87.5459 11.3288 87.7708 11.2629 87.8523 11.3097C87.9339 11.3567 88.1846 11.2512 88.4099 11.0752C88.6349 10.8992 88.9253 10.7934 89.055 10.8401C89.1847 10.8867 89.5072 10.7439 89.7719 10.523C90.0364 10.3018 90.3762 10.1653 90.527 10.2195C90.8116 10.3218 90.83 10.2986 90.9503 9.69092C91.0198 9.34089 90.9913 9.33523 90.339 9.56637C89.95 9.70415 89.6558 9.73513 89.6569 9.63839C89.658 9.54472 89.8864 9.423 90.1642 9.36792C90.442 9.31268 90.8333 9.15603 91.033 9.0196C91.3501 8.80346 91.3714 8.8113 91.1986 9.08C91.0413 9.32418 91.1022 9.36769 91.4902 9.28886C91.9104 9.20362 91.9353 9.24009 91.6653 9.54563C91.3821 9.86571 91.3915 9.8739 91.7582 9.62634C91.9824 9.47485 92.2566 9.4031 92.3674 9.4669C92.4781 9.5307 92.4884 9.46265 92.3901 9.31549C92.2738 9.14098 92.4205 8.9881 92.8121 8.87555C93.2118 8.76051 93.4121 8.75881 93.4108 8.87008C93.4097 8.96198 93.2792 9.03573 93.1208 9.03389C92.9624 9.03205 92.8319 9.10757 92.8308 9.20157C92.8297 9.29557 92.95 9.33218 93.098 9.28286C93.2461 9.23338 93.4476 9.26787 93.5462 9.35931C93.6445 9.45075 93.6204 9.52445 93.4922 9.52296C93.364 9.52163 93.2711 10.4474 93.2853 11.58C93.3158 13.9581 93.3574 14.2215 93.6859 14.1119C93.8184 14.0678 93.9255 14.1449 93.9239 14.2833C93.9223 14.4218 94.0506 14.5366 94.209 14.5385C94.3674 14.5403 94.4958 14.6476 94.4943 14.7768C94.4927 14.9173 94.8952 15.059 95.4958 15.1291C96.0482 15.1939 96.4282 15.3106 96.34 15.3887C96.2521 15.4667 96.3173 15.5322 96.485 15.5341C96.6526 15.5361 96.7617 15.592 96.7275 15.6581C96.693 15.7243 96.8418 15.9623 97.0581 16.1869C97.2742 16.4115 97.4289 16.6314 97.4016 16.6755C97.3743 16.7196 97.5141 16.7608 97.7119 16.7671C97.91 16.7735 98.0427 16.859 98.007 16.9571C97.9713 17.0551 98.1315 17.2261 98.3627 17.3372C98.6205 17.4608 98.7839 17.4739 98.7851 17.371C98.7862 17.2786 98.6547 17.1647 98.4928 17.1175C98.3309 17.0706 98.3637 17.053 98.5653 17.0788C98.7669 17.1044 98.9381 17.3009 98.9456 17.5153C98.9529 17.7296 99.1133 17.8888 99.3016 17.8687C99.49 17.8488 99.6427 17.9457 99.641 18.0841C99.6394 18.2225 99.7573 18.2962 99.9027 18.2477C100.048 18.1991 100.217 18.2455 100.278 18.3509C100.339 18.4563 100.667 18.5572 101.007 18.5752C101.347 18.5932 101.554 18.542 101.467 18.4613C101.38 18.3807 101.549 18.3405 101.841 18.372C102.163 18.4068 102.343 18.3446 102.297 18.2147C102.255 18.0964 102.333 18.0403 102.47 18.0897C102.765 18.1955 104.354 17.3344 104.234 17.1335C104.19 17.0582 104.588 16.838 105.119 16.6442C105.65 16.4506 105.904 16.2887 105.682 16.2849C105.342 16.2788 105.341 16.2567 105.678 16.1412C105.897 16.0662 105.985 15.9195 105.872 15.8151C105.72 15.6734 105.546 15.6771 105.187 15.8294C104.754 16.0132 104.747 16.0052 105.115 15.749C105.398 15.5518 105.615 15.5168 105.821 15.6355C106.027 15.7542 106.369 15.6765 106.931 15.3829C107.378 15.1495 107.742 15.0449 107.741 15.1504C107.74 15.2558 107.588 15.3403 107.403 15.3382C107.218 15.336 107.139 15.3758 107.227 15.4266C107.492 15.5789 110.917 13.7255 110.727 13.5333C110.63 13.4356 110.652 13.4089 110.777 13.4738C111.059 13.6207 112.083 13.3408 112.086 13.1161C112.087 13.0252 111.937 13.0008 111.754 13.062C111.554 13.1288 111.499 13.1036 111.617 12.9992C111.725 12.9034 112.073 12.8561 112.39 12.894C112.708 12.9321 112.905 12.905 112.828 12.834C112.752 12.763 113.167 12.4627 113.752 12.1667C114.337 11.8708 114.624 11.7717 114.391 11.9467C113.998 12.2427 114.004 12.2494 114.488 12.0431C114.774 11.9211 114.94 11.7193 114.857 11.5948C114.769 11.4626 114.832 11.4136 115.008 11.477C115.174 11.5369 115.488 11.4535 115.704 11.2916C115.92 11.1299 116.205 10.9925 116.336 10.9864C117.012 10.9555 119.21 10.2838 119.692 9.96117C119.995 9.7581 120.156 9.69989 120.05 9.83191C119.895 10.0236 119.934 10.0213 120.241 9.81992C120.452 9.68137 120.805 9.60406 121.024 9.64813C121.291 9.70163 121.348 9.65836 121.198 9.51818C121.056 9.38682 121.086 9.34921 121.277 9.41798C121.662 9.55653 122.545 9.38688 122.356 9.21071C122.278 9.13857 122.494 9.12379 122.835 9.178C123.226 9.24006 123.387 9.21318 123.271 9.10539C123.17 9.01149 123.248 8.94326 123.444 8.95379C123.64 8.96431 124.292 8.9189 124.891 8.85272C125.881 8.74357 125.935 8.71189 125.472 8.51122C125.002 8.30772 125.013 8.29783 125.608 8.38891C125.964 8.44345 126.254 8.55231 126.253 8.6308C126.253 8.70913 126.349 8.75629 126.468 8.73555C126.741 8.68785 126.827 8.83584 126.821 9.34538C126.817 9.68858 126.676 9.7509 125.88 9.76119C124.978 9.77282 124.986 9.77792 126.095 9.90227C126.923 9.99527 127.044 10.0387 126.525 10.0572C126.129 10.0715 125.544 10.1462 125.227 10.2235C124.767 10.3352 124.837 10.3533 125.573 10.3121C126.992 10.2327 127.073 10.3545 127.422 13.1079C127.436 13.2192 127.685 13.3129 127.975 13.3162C128.266 13.3196 128.503 13.4001 128.501 13.4952C128.5 13.5902 128.791 13.648 129.148 13.6239C129.704 13.5859 129.836 13.6828 130.077 14.305C130.338 14.9832 130.477 15.0668 132.222 15.5954C133.248 15.9062 134.055 16.1903 134.015 16.2268C133.975 16.2634 133.956 16.3479 133.973 16.4147C133.99 16.4814 133.99 16.7177 133.974 16.9397C133.958 17.1616 134.017 17.2537 134.107 17.1444C134.215 17.0121 134.429 16.9958 134.748 17.0955C135.012 17.178 135.357 17.2589 135.515 17.2753C135.673 17.2917 135.766 17.4037 135.72 17.524C135.603 17.8373 137.723 17.5236 138.098 17.1723C138.652 16.6538 138.51 16.4723 137.825 16.823C137.322 17.0804 137.16 17.1069 137.211 16.924C137.277 16.6812 137.991 16.2607 139.406 15.6299L140.112 15.3151L139.418 15.8617C138.947 16.2316 138.835 16.4304 139.07 16.4771C139.26 16.515 139.342 16.6116 139.252 16.6918C139.161 16.772 139.14 16.8383 139.205 16.839C139.378 16.841 142.023 14.98 142.025 14.8557C142.025 14.7978 142.482 14.488 143.038 14.1672C143.596 13.8465 144.053 13.4934 144.056 13.3823C144.059 13.2713 144.187 13.1819 144.341 13.1837C144.496 13.1855 144.842 12.9532 145.111 12.6677C145.381 12.3822 146.07 11.9214 146.643 11.644C147.216 11.3665 147.892 11.029 148.145 10.8942C148.397 10.7592 148.739 10.6504 148.905 10.6524C149.306 10.657 150.898 9.50884 150.779 9.30118C150.727 9.21175 150.781 9.19363 150.898 9.26073C151.242 9.45889 151.839 9.08496 151.693 8.76279C151.599 8.55397 151.758 8.43953 152.231 8.37574C152.601 8.32594 152.904 8.29376 152.904 8.30442C152.904 8.31508 153.469 8.16918 154.16 7.98015C154.851 7.79113 155.366 7.60766 155.304 7.57221C155.108 7.45929 153.919 7.67352 153.918 7.82211C153.917 7.90044 153.782 7.96315 153.618 7.96125C153.417 7.95891 153.423 7.85205 153.636 7.63388C153.81 7.4558 154.075 7.35406 154.225 7.40797C154.375 7.46189 154.498 7.42473 154.499 7.3254C154.501 7.22607 154.652 7.19909 154.837 7.26553C155.055 7.34398 155.116 7.30092 155.01 7.14252C154.915 6.99959 155.01 6.90055 155.239 6.90322C155.455 6.90573 155.564 6.96757 155.481 7.04075C155.224 7.26906 156.092 7.19484 156.681 6.9381C157.221 6.70306 157.218 6.70011 156.593 6.86196C156.228 6.95656 155.944 6.96489 155.945 6.8809C155.946 6.79854 156.276 6.68867 156.68 6.63667C157.083 6.58466 157.341 6.47589 157.254 6.39476C157.167 6.31363 157.228 6.2032 157.389 6.1492C157.551 6.09535 157.684 6.14633 157.685 6.26264C157.687 6.43242 157.736 6.43186 157.935 6.25973C158.118 6.10163 158.232 6.15787 158.369 6.47347C158.571 6.93925 157.852 7.55648 157.572 7.1578C157.46 6.99787 157.425 6.99779 157.405 7.15731C157.391 7.26828 157.064 7.35524 156.677 7.35074C156.29 7.34624 155.88 7.42547 155.766 7.52671C155.63 7.64756 155.697 7.67209 155.964 7.59798C156.187 7.53597 155.849 7.73781 155.211 8.04651C154.574 8.35503 154.205 8.61048 154.392 8.61395C154.579 8.61741 154.904 8.52735 155.114 8.41382C155.538 8.18551 156.334 7.99835 157.257 7.90976C157.713 7.86596 157.995 7.99508 158.403 8.43353C158.937 9.0067 158.936 9.01849 158.383 9.23964C158.074 9.363 157.983 9.4658 158.181 9.46811C158.379 9.47041 158.459 9.54516 158.359 9.63429C158.258 9.72341 158.07 9.75821 157.94 9.71147C157.81 9.66489 157.632 9.8615 157.545 10.1485C157.457 10.4355 157.055 11.1722 156.65 11.7855C155.985 12.7941 155.876 13.5105 156.467 12.9864C156.597 12.8716 156.639 12.719 156.562 12.6472C156.485 12.5754 156.566 12.5183 156.744 12.5204C156.921 12.5225 156.986 12.45 156.888 12.3593C156.785 12.2641 157.021 12.2776 157.447 12.3918C157.852 12.5002 158.182 12.6542 158.181 12.7342C158.18 12.814 158.069 12.8393 157.933 12.7904C157.796 12.7412 157.787 13.0061 157.913 13.3864C158.038 13.7631 158.146 14.1166 158.152 14.1721C158.174 14.3676 160.067 15.4666 160.388 15.4703C160.567 15.4724 160.846 15.6028 161.007 15.7602C161.264 16.0097 161.338 16.0157 161.593 15.8074C161.845 15.6008 161.885 15.6055 161.886 15.8416C161.888 16.2603 162.436 16.3643 163.048 16.0623C163.575 15.8027 163.594 15.806 163.478 16.1322C163.291 16.6572 163.879 16.5439 164.319 15.9698C164.581 15.6291 164.745 15.5454 164.813 15.7185C164.894 15.9288 165.01 15.9072 165.422 15.6047C165.788 15.3363 165.838 15.1976 165.599 15.1118C165.38 15.0328 165.346 15.0649 165.498 15.2067C165.661 15.3574 165.618 15.3808 165.353 15.2858C165.089 15.1908 165.046 15.2142 165.208 15.3649C165.364 15.5097 165.327 15.5388 165.094 15.4548C164.852 15.3678 164.839 15.2716 165.051 15.1319C165.217 15.0225 165.286 14.8948 165.205 14.848C165.124 14.8013 165.289 14.6645 165.571 14.5442C166.038 14.345 166.049 14.3504 165.686 14.6032C165.333 14.8491 165.358 14.882 165.899 14.8883C166.235 14.8923 166.511 14.8228 166.512 14.734C166.513 14.6451 166.708 14.5747 166.946 14.5775C167.184 14.5802 167.379 14.5155 167.38 14.4334C167.382 14.2072 169.069 13.3347 169.275 13.4532C169.374 13.5101 169.417 13.4836 169.371 13.3942C169.325 13.3049 169.457 13.0646 169.663 12.8604C170.014 12.5138 170 12.5002 169.458 12.656C169.139 12.7477 168.786 12.982 168.672 13.1765C168.423 13.6045 167.713 14.0169 167.468 13.8757C167.255 13.7528 167.986 12.9598 168.232 13.0476C168.326 13.0815 168.73 12.8676 169.13 12.5725C169.529 12.2774 169.961 12.0351 170.089 12.0341C170.218 12.0331 170.247 12.0991 170.155 12.1808C169.932 12.3783 170.486 12.5673 170.891 12.4321C171.119 12.3559 171.11 12.2891 170.86 12.199C170.6 12.1057 170.68 11.9454 171.17 11.5831C171.534 11.3138 171.94 11.1324 172.073 11.1801C172.205 11.2279 172.315 11.1899 172.316 11.0959C172.317 11.0019 172.447 10.9264 172.606 10.9282C173.134 10.9344 172.898 11.2838 172.313 11.3626C171.995 11.4054 171.735 11.4986 171.734 11.5698C171.733 11.6411 171.654 11.8316 171.558 11.9931C171.425 12.2167 171.452 12.2346 171.669 12.0677C171.834 11.9407 172.107 11.9034 172.318 11.979C172.547 12.0616 172.61 12.0438 172.488 11.9306C172.382 11.8321 172.584 11.6051 172.936 11.4263C173.797 10.9891 174.273 11.0172 173.583 11.4646C173.075 11.7938 173.093 11.7922 173.817 11.4439C174.249 11.236 174.538 11.0055 174.458 10.9315C174.379 10.8576 174.579 10.7076 174.903 10.5983C175.577 10.3711 175.707 10.0767 175.078 10.2046C174.784 10.2643 174.713 10.2126 174.841 10.0311C174.96 9.86015 174.908 9.81044 174.687 9.88443C174.467 9.95763 174.412 9.90966 174.528 9.74576C174.661 9.55542 174.574 9.51952 174.166 9.5965C173.275 9.76445 173.177 9.81839 173.396 10.0198C173.792 10.3831 173.716 10.5981 173.231 10.4903C172.803 10.3952 172.798 10.4162 173.185 10.7028C173.586 11.0005 173.58 11.0055 173.086 10.7808C172.612 10.565 172.604 10.5226 173.014 10.3602C173.265 10.2607 173.387 10.1318 173.286 10.0736C173.185 10.0152 172.939 10.0413 172.739 10.1313C172.488 10.2449 172.32 10.2424 172.192 10.1237C172.09 10.0293 172.08 9.94389 172.168 9.93378C172.257 9.92366 172.427 9.90561 172.546 9.89359C173.179 9.82956 175.48 8.86183 175.013 8.85638C174.875 8.85478 174.586 8.94236 174.371 9.05083C174.059 9.20888 174.023 9.20797 174.189 9.04645C174.304 8.93536 174.942 8.6971 175.606 8.51698C176.271 8.3367 176.921 8.08937 177.051 7.96732C177.181 7.84526 177.441 7.79902 177.628 7.86452C177.882 7.95308 177.88 7.92028 177.623 7.73717C177.343 7.53847 177.382 7.44104 177.827 7.23413C178.13 7.09309 178.419 7.04945 178.47 7.13727C178.52 7.22492 178.843 7.31186 179.186 7.33039C179.529 7.34892 179.74 7.42567 179.655 7.50125C179.569 7.57666 179.312 7.59579 179.083 7.5437C178.848 7.49041 178.743 7.52019 178.841 7.6118C178.938 7.70128 178.803 7.8181 178.541 7.87111C178.157 7.94917 178.139 7.99791 178.448 8.12523C178.725 8.23943 178.662 8.26034 178.22 8.20141C177.839 8.15062 177.463 8.23201 177.218 8.41798C177.002 8.58184 176.617 8.71352 176.361 8.71055C176.106 8.70758 175.895 8.81028 175.894 8.93868C175.892 9.11504 176.021 9.13496 176.421 9.01993C176.712 8.9361 176.951 8.90285 176.95 8.94581C176.95 8.98877 177.755 8.8098 178.741 8.54797C180.861 7.98453 182.149 7.77031 182.146 7.98156C182.146 8.06409 181.878 8.12865 181.552 8.12486C181.226 8.12106 181.035 8.18878 181.128 8.27531C181.231 8.37052 181.559 8.38 181.961 8.29923C182.465 8.198 182.624 8.22246 182.622 8.40076C182.62 8.53029 182.447 8.5966 182.236 8.54859C181.732 8.43402 181.741 8.68288 182.25 8.92706C182.535 9.0638 182.635 9.46231 182.594 10.3068C182.543 11.3802 182.589 11.4894 183.069 11.4432C183.43 11.4084 183.549 11.4643 183.442 11.6179C183.337 11.7664 183.426 11.8148 183.7 11.759C183.929 11.7126 184.049 11.5904 183.966 11.4877C183.883 11.385 183.972 11.423 184.163 11.572C184.478 11.8165 184.577 11.8198 185.182 11.6057C185.84 11.3724 185.852 11.3786 185.845 11.9578C185.839 12.4987 185.886 12.5335 186.42 12.3799C186.868 12.2514 186.984 12.2608 186.924 12.4205C186.881 12.5349 186.651 12.6756 186.412 12.7333C186.119 12.8042 186.219 12.8444 186.722 12.858C187.379 12.8757 187.46 12.9421 187.426 13.4308C187.404 13.7348 187.488 13.9497 187.613 13.908C187.738 13.8665 187.839 13.9216 187.837 14.0305C187.836 14.1393 187.916 14.1843 188.015 14.1304C188.113 14.0766 188.359 14.1278 188.562 14.2443C189.006 14.5005 191.185 14.5987 191.439 14.3738C191.538 14.2856 191.74 14.2565 191.887 14.3094C192.034 14.3621 192.156 14.2445 192.158 14.0478C192.162 13.6955 192.153 13.6946 191.511 13.9836C191.153 14.1448 191.344 13.9984 191.937 13.6582C192.53 13.3178 193.112 13.0954 193.231 13.1638C193.35 13.2322 193.311 13.3372 193.145 13.397C192.979 13.4569 192.752 13.6402 192.641 13.8042C192.481 14.0412 192.542 14.0817 192.941 14.0007C193.313 13.9252 193.265 14.0022 192.755 14.2986C192.377 14.5184 191.964 14.6616 191.839 14.6165C191.714 14.5716 191.506 14.6333 191.375 14.7539C191.246 14.8745 190.944 15.0122 190.706 15.0598C190.393 15.1224 190.433 15.1516 190.849 15.1649C191.539 15.1869 192.887 14.7306 193.464 14.2796C193.83 13.9934 193.824 13.9418 193.414 13.8487C192.991 13.7525 192.995 13.7141 193.461 13.4328C193.743 13.2623 194.097 13.1668 194.246 13.2205C194.395 13.2743 194.707 13.1702 194.938 12.9892C195.178 12.8019 195.541 12.7017 195.782 12.7566C196.29 12.872 196.315 12.7544 195.885 12.2788C195.707 12.0828 195.664 11.9774 195.789 12.0446C196.087 12.2051 196.836 11.8648 196.622 11.6662C196.527 11.5774 196.256 11.5989 195.977 11.7173C195.552 11.8976 195.54 11.8905 195.873 11.6576C196.101 11.4979 196.141 11.3545 195.974 11.2944C195.822 11.2396 195.631 11.2856 195.549 11.3962C195.443 11.5402 195.395 11.5425 195.381 11.4048C195.347 11.0936 195.844 11.0212 196.221 11.2822C196.645 11.576 197.803 11.3239 197.481 11.0078C197.372 10.8999 197.57 10.9578 197.923 11.1365C198.522 11.44 198.531 11.4744 198.062 11.6603C197.71 11.7998 197.453 11.8078 197.202 11.6873C196.736 11.4638 196.815 11.886 197.303 12.2238C197.491 12.3542 197.552 12.5115 197.439 12.5733C197.326 12.6351 197.467 12.6382 197.753 12.5802C198.082 12.5133 198.222 12.3642 198.136 12.1724C198.061 12.0061 198.117 11.8309 198.261 11.7828C198.405 11.7347 198.522 11.766 198.521 11.8524C198.519 12.0783 200.186 11.7211 200.967 11.3283C201.324 11.1489 202.09 10.8818 202.669 10.7348C203.249 10.5879 203.724 10.4006 203.724 10.3187C203.725 10.237 203.896 10.2084 204.103 10.2556C204.31 10.3026 204.936 10.1732 205.495 9.96794C206.054 9.76268 207.054 9.4671 207.718 9.31104C208.382 9.15514 208.925 8.97716 208.926 8.91595C208.927 8.80629 207.605 9.01364 205.896 9.39111C204.931 9.60408 204.734 9.63748 204.291 9.66156C204.123 9.67076 204.051 9.73824 204.13 9.81185C204.209 9.88529 203.89 10.0673 203.422 10.2165C202.954 10.3656 202.571 10.4422 202.571 10.3867C202.572 10.3313 202.182 10.4366 201.704 10.6208C201.227 10.805 200.837 10.9103 200.838 10.8549C200.838 10.7996 200.512 10.9544 200.112 11.199C199.712 11.4435 199.458 11.5294 199.546 11.3899C199.647 11.2301 199.542 11.134 199.262 11.1308C199.018 11.1279 198.817 11.195 198.816 11.28C198.815 11.3649 198.621 11.3417 198.385 11.2283C197.858 10.9757 197.795 10.6285 198.317 10.8542C198.933 11.1208 199.343 11.0206 200.854 10.2339C202.067 9.60223 202.394 9.50525 202.744 9.67311C202.977 9.78485 203.251 9.83053 203.354 9.7747C203.456 9.71871 203.381 9.67116 203.187 9.6689C202.993 9.66664 202.915 9.59241 203.015 9.50408C203.115 9.41576 203.522 9.38028 203.92 9.42545C204.519 9.49349 204.586 9.46745 204.307 9.27424C204.044 9.09238 204.068 8.98766 204.413 8.7993C204.657 8.66645 205.049 8.55988 205.285 8.56263C206.054 8.57158 206.629 8.38702 206.429 8.19555C206.321 8.09253 206.455 8.11201 206.725 8.23889C207.148 8.43732 207.375 8.43109 208.365 8.19305C208.997 8.04097 209.514 7.86899 209.515 7.81053C209.516 7.69909 213.004 7.12088 214.683 6.95385C215.361 6.88647 215.604 6.91014 215.469 7.03036C215.334 7.15009 215.522 7.16973 216.072 7.09326C217.636 6.87548 218.024 7.07141 217.882 8.00725C217.852 8.19832 217.965 8.40397 218.133 8.46406C218.299 8.524 218.433 8.65978 218.43 8.76554C218.426 8.88115 218.313 8.8598 218.147 8.71233C217.918 8.50905 217.869 8.52222 217.865 8.78982C217.856 9.41159 218.206 10.3283 218.454 10.3312C218.591 10.3328 218.715 10.2071 218.727 10.0517C218.747 9.8119 218.785 9.81848 218.979 10.095C219.104 10.2741 219.154 10.4715 219.088 10.5334C219.023 10.5953 219.329 10.7789 219.768 10.9414C220.702 11.2873 221.012 11.507 220.813 11.6835C220.734 11.7535 220.968 11.8153 221.334 11.8209C221.731 11.8269 221.864 11.8776 221.664 11.9463C221.423 12.0292 221.475 12.1658 221.849 12.4307C222.42 12.8363 222.982 12.92 223.021 12.6053C223.035 12.4945 223.175 12.6055 223.331 12.8522C223.488 13.0989 223.735 13.2611 223.88 13.2125C224.026 13.164 224.141 13.4498 224.136 13.8474C224.122 15.0374 224.631 15.434 225.297 14.7525C225.479 14.5663 225.507 14.4539 225.361 14.5029C225.214 14.5519 225.106 14.3445 225.121 14.042L225.149 13.4923L225.783 13.916C226.471 14.3751 226.317 14.7843 225.345 15.0766C225.07 15.1594 224.938 15.2804 225.051 15.3454C225.164 15.4105 225.475 15.365 225.742 15.2445C226.009 15.1239 226.305 15.0261 226.399 15.0272C226.494 15.0283 226.547 14.9867 226.517 14.9349C226.418 14.7649 234.269 10.6623 234.52 10.7526C234.654 10.801 234.931 10.731 235.134 10.5972C235.718 10.2121 240.042 8.64413 240.505 8.64952C240.735 8.6522 240.999 8.54672 241.091 8.41502C241.183 8.28332 241.374 8.21705 241.516 8.26797C241.657 8.31871 241.773 8.27904 241.775 8.17972C241.776 8.08039 241.895 8.04189 242.04 8.09397C242.185 8.14622 242.484 8.09089 242.703 7.97101C243.169 7.71686 244.023 7.5593 245.322 7.48767C245.831 7.45968 246.703 7.38147 247.258 7.31411C249.114 7.08858 249.141 7.10457 249.034 8.34788C248.98 8.96752 249.01 9.7117 249.1 10.0014C249.24 10.4539 249.382 10.5296 250.105 10.5381C250.735 10.5454 250.905 10.6083 250.779 10.7882C250.661 10.955 250.796 11.0307 251.217 11.0356C251.551 11.0395 251.838 11.1519 251.857 11.2853C251.918 11.7364 251.958 11.7937 252.388 12.0534C252.624 12.1961 253.131 12.5378 253.514 12.8128C254.162 13.2773 254.933 13.3937 254.493 12.9605C254.385 12.8543 254.555 12.8976 254.87 13.0568C255.185 13.216 255.602 13.348 255.797 13.3503C255.992 13.3526 256.063 13.4333 255.954 13.5298C255.833 13.6366 256.024 13.627 256.441 13.5049C256.818 13.395 257.379 13.2962 257.688 13.2857C257.997 13.2753 258.876 12.8943 259.642 12.4393C260.408 11.9843 261.035 11.6622 261.034 11.7238C261.03 12.0452 261.946 11.358 262.244 10.8163C262.556 10.2485 262.667 10.1958 263.403 10.2695C263.85 10.3143 264.302 10.2743 264.408 10.1809C264.52 10.0811 264.463 10.0563 264.269 10.1209C264.06 10.1909 263.999 10.1456 264.103 9.99705C264.229 9.81777 264.471 9.79814 265.139 9.91365C265.888 10.0429 266.033 10.0179 266.168 9.73584C266.29 9.48301 266.384 9.45761 266.577 9.62575C266.779 9.80174 266.905 9.78963 267.22 9.56442C267.566 9.31759 267.654 9.31362 267.968 9.53097C268.547 9.93232 268.068 10.893 267.202 11.0671C266.804 11.1471 266.558 11.2863 266.655 11.3765C266.752 11.4666 266.896 11.5411 266.975 11.5421C267.055 11.543 267.056 11.4845 266.978 11.4122C266.9 11.3399 267.217 11.2045 267.683 11.1116C268.192 11.0101 268.595 11.0032 268.694 11.0944C268.784 11.1779 268.978 11.2058 269.126 11.1563C269.274 11.107 269.395 11.1431 269.394 11.2368C269.392 11.3387 269.773 11.3774 270.344 11.3332C271.22 11.2653 271.327 11.3055 271.693 11.8422C272.232 12.6322 272.82 12.9094 272.87 12.3976C272.903 12.0653 272.927 12.0576 273.048 12.3396C273.228 12.7562 273.76 12.9519 274.046 12.7061C274.192 12.5797 274.268 12.6173 274.268 12.8177C274.269 13.0603 274.35 13.0836 274.679 12.9353C275.006 12.7876 275.126 12.8172 275.272 13.0824C275.372 13.2651 275.381 13.4807 275.29 13.5612C275.054 13.77 275.417 14.2407 275.732 14.1355C275.877 14.0872 275.922 13.9791 275.832 13.8954C275.679 13.7532 276.099 13.6767 276.674 13.7422C276.812 13.758 276.836 13.6397 276.727 13.4794C276.619 13.319 276.533 12.2266 276.536 11.0518C276.54 9.87708 276.435 8.95192 276.303 8.99609C276.17 9.04026 275.867 8.83498 275.628 8.53983C275.389 8.24485 274.938 7.78232 274.626 7.51216C274.314 7.24201 273.979 6.92928 273.882 6.81702C273.786 6.70493 273.526 6.61096 273.306 6.6084C273.085 6.60583 272.905 6.52669 272.906 6.43269C272.907 6.3387 273.058 6.31524 273.24 6.38068C273.449 6.4563 273.493 6.42789 273.359 6.30308C273.197 6.15243 273.051 6.14944 272.738 6.29069C272.432 6.4291 272.33 6.42857 272.332 6.28838C272.333 6.18567 271.941 5.88034 271.461 5.60985C270.946 5.31956 270.673 5.03743 270.795 4.9211C270.909 4.81275 270.903 4.77277 270.781 4.83225C270.659 4.8919 270.284 4.75669 269.946 4.53195C268.568 3.61475 263.63 4.23197 258.623 5.94694C257.637 6.28469 257.058 6.38406 256.538 6.30484C255.943 6.21392 255.85 6.24289 256.003 6.47194C256.106 6.62561 256.07 6.70644 255.923 6.65353C255.777 6.60111 255.654 6.43233 255.649 6.2785C255.629 5.64138 255.426 5.23681 254.972 4.93189C254.708 4.7542 254.492 4.53702 254.493 4.44932C254.494 4.36146 254.365 4.28808 254.207 4.28624C254.048 4.2844 253.92 4.17549 253.922 4.04434C253.923 3.9132 253.615 3.688 253.236 3.54387C252.857 3.39974 252.206 2.98527 251.788 2.62278C251.37 2.26014 250.681 1.87382 250.257 1.76421C249.833 1.6546 249.163 1.44118 248.768 1.29009C247.983 0.988742 246.001 0.764411 245.316 0.899068ZM212.096 2.11685C212 2.16936 211.751 2.17228 211.544 2.12319C211.315 2.06899 211.383 2.03151 211.719 2.02766C212.023 2.02425 212.192 2.06434 212.096 2.11685ZM212.223 3.90483C212.024 3.94757 211.922 4.0391 211.996 4.10845C212.071 4.17781 211.783 4.19304 211.358 4.14237C210.66 4.0593 210.64 4.03839 211.153 3.93226C211.466 3.86742 211.917 3.81726 212.154 3.82083C212.446 3.82521 212.469 3.85244 212.223 3.90483ZM210.421 4.26117C210.42 4.35 210.362 4.42201 210.292 4.4212C210.222 4.42038 210.085 4.34611 209.989 4.25614C209.892 4.16617 209.95 4.09416 210.117 4.09611C210.285 4.09807 210.422 4.17234 210.421 4.26117ZM164.333 3.94974C164.333 3.98462 164.533 4.05884 164.778 4.11467C165.034 4.17273 165.15 4.14694 165.05 4.05435C164.883 3.89879 164.335 3.81892 164.333 3.94974ZM95.1142 4.30884C95.018 4.36134 94.7693 4.36426 94.5622 4.31517C94.3329 4.26098 94.4017 4.22349 94.7373 4.21965C95.041 4.21624 95.2105 4.25633 95.1142 4.30884ZM216.594 5.785C216.694 5.87758 216.578 5.90337 216.323 5.84532C215.825 5.73211 215.735 5.61525 216.149 5.62007C216.298 5.6218 216.499 5.69601 216.594 5.785ZM249.284 6.47207C249.28 6.86711 249.146 6.94762 248.408 6.9996C247.906 7.03511 247.41 6.97215 247.234 6.85058C247.067 6.73491 246.494 6.65427 245.962 6.67165C245.429 6.68903 245.066 6.63861 245.155 6.55953C245.244 6.48061 245.561 6.45474 245.86 6.50199C246.158 6.5494 246.403 6.52431 246.404 6.4463C246.406 6.29997 247.895 6.0298 248.785 6.01447C249.155 6.00812 249.288 6.13017 249.284 6.47207ZM214.002 5.91813C214.099 6.0081 213.969 6.07927 213.712 6.07628C213.456 6.0733 213.327 5.99911 213.426 5.91143C213.525 5.82374 213.656 5.75257 213.716 5.75327C213.776 5.75398 213.905 5.82816 214.002 5.91813ZM214.139 6.50106C211.248 6.90692 210.742 6.93059 212.122 6.59566C212.678 6.46079 213.367 6.35833 213.652 6.36811C213.938 6.3779 214.234 6.29671 214.311 6.1876C214.4 6.06022 214.833 6.01922 215.521 6.07311C216.513 6.15088 216.412 6.18217 214.139 6.50106ZM247.481 6.73779C247.678 6.785 248.002 6.78877 248.201 6.74617C248.399 6.70374 248.238 6.66519 247.842 6.66058C247.446 6.65597 247.283 6.69075 247.481 6.73779ZM145.852 6.4885C145.17 6.88552 144.418 7.20805 144.18 7.20528C143.941 7.20251 143.824 7.24508 143.92 7.29998C144.015 7.35487 143.777 7.55918 143.391 7.75418C143.005 7.94901 142.783 8.16288 142.899 8.22948C143.014 8.29592 142.963 8.32456 142.785 8.29276C142.606 8.26113 142.055 8.48488 141.559 8.79005C141.042 9.10854 140.657 9.2454 140.656 9.11148C140.655 8.98305 141.013 8.66707 141.452 8.40921C141.891 8.15136 142.087 7.9905 141.888 8.0515C141.23 8.25383 141.513 8.0003 142.761 7.27148C143.439 6.87539 144.313 6.52131 144.703 6.48451C145.094 6.44754 145.737 6.24052 146.134 6.02416C147.386 5.34126 147.147 5.73375 145.852 6.4885ZM244.647 6.80512C244.581 6.82955 244.266 6.953 243.948 7.07965C243.412 7.29261 243.399 7.28906 243.768 7.03184C243.987 6.87884 244.302 6.75538 244.467 6.75731C244.632 6.75923 244.714 6.78069 244.647 6.80512ZM180.145 6.72597C180.143 6.89636 179.589 6.96163 179.426 6.81049C179.328 6.71905 179.45 6.64664 179.696 6.64952C179.943 6.65239 180.145 6.68672 180.145 6.72597ZM93.1528 6.2883C92.9141 6.37161 92.5245 6.4375 92.2868 6.43474C91.9029 6.43027 91.9031 6.41299 92.2887 6.27824C92.5273 6.19492 92.9169 6.12903 93.1546 6.1318C93.5385 6.13627 93.5383 6.15355 93.1528 6.2883ZM142.407 6.7558C142.407 6.78648 142.113 6.94653 141.755 7.11164L141.103 7.41177L141.656 7.05476C142.176 6.71934 142.409 6.62659 142.407 6.7558ZM177.832 7.43545C177.461 7.56488 177.471 7.58826 177.902 7.59537C178.179 7.59989 178.407 7.53098 178.408 7.44216C178.41 7.24512 178.378 7.24474 177.832 7.43545ZM211.819 7.83331C211.514 7.94154 211.685 7.95984 212.395 7.89509C213.639 7.7818 213.874 7.69263 212.949 7.6851C212.566 7.68209 212.058 7.7487 211.819 7.83331ZM237.865 8.52479C237.556 8.64718 237.243 8.71234 237.169 8.66948C237.011 8.57881 237.757 8.30062 238.155 8.30154C238.304 8.30198 238.174 8.40239 237.865 8.52479ZM55.7721 6.60624C55.5737 6.64884 55.2496 6.64507 55.052 6.59786C54.8546 6.55082 55.0169 6.51604 55.413 6.52065C55.809 6.52526 55.9707 6.56381 55.7721 6.60624ZM236.87 8.76874C236.869 8.85757 236.731 8.92865 236.564 8.9267C236.396 8.92475 236.339 8.8514 236.438 8.76372C236.537 8.67603 236.675 8.60495 236.745 8.60576C236.815 8.60658 236.872 8.67992 236.87 8.76874ZM114.627 7.53245C114.746 7.6427 114.705 7.67615 114.529 7.61288C114.364 7.55329 114.145 7.62263 114.044 7.76698C113.943 7.91118 113.78 7.98343 113.683 7.92722C113.586 7.87116 113.671 7.71628 113.873 7.58328C114.313 7.29313 114.365 7.28954 114.627 7.53245ZM159.224 8.01115C158.968 8.1508 158.235 8.15051 158.236 8.01081C158.237 7.93538 158.492 7.8873 158.801 7.90399C159.111 7.92068 159.301 7.96893 159.224 8.01115ZM175.23 8.18939C175.23 8.2653 174.643 8.52741 173.927 8.77171C173.211 9.01617 172.625 9.27861 172.624 9.35484C172.623 9.43123 172.773 9.44363 172.957 9.38245C173.163 9.3133 173.211 9.341 173.083 9.45499C172.786 9.71822 172.136 9.67431 171.938 9.37754C171.841 9.23266 171.89 9.16846 172.053 9.22688C172.209 9.28297 172.338 9.2155 172.339 9.07709C172.341 8.93868 172.526 8.82744 172.75 8.83005C172.975 8.83266 173.202 8.77393 173.256 8.69945C173.331 8.59597 174.419 8.2347 175.16 8.06758C175.2 8.05868 175.231 8.11348 175.23 8.18939ZM202.018 8.42656C202.018 8.46144 201.816 8.53097 201.569 8.58108C201.312 8.63317 201.197 8.6047 201.299 8.51446C201.47 8.36283 202.02 8.29574 202.018 8.42656ZM206.836 8.60072C207.031 8.71346 207.262 8.76575 207.351 8.71704C207.441 8.66832 207.282 8.57618 206.999 8.51215C206.589 8.41984 206.556 8.43786 206.836 8.60072ZM207.777 8.60117C207.776 8.69517 207.906 8.72882 208.065 8.67575C208.224 8.62268 208.354 8.54731 208.355 8.50807C208.355 8.46882 208.226 8.43533 208.067 8.43349C207.909 8.43165 207.779 8.50718 207.777 8.60117ZM140.698 8.07384C140.249 8.24434 140.135 8.36837 140.355 8.44749C140.596 8.5343 140.581 8.61326 140.296 8.74159C139.988 8.88063 139.911 8.8337 139.925 8.51517C139.942 8.13465 140.474 7.81618 141.091 7.81786C141.245 7.81836 141.068 7.93357 140.698 8.07384ZM233.124 8.94772C233.123 8.98115 232.895 9.10577 232.616 9.22448C232.157 9.41992 232.147 9.41415 232.508 9.16217C232.888 8.89748 233.125 8.8148 233.124 8.94772ZM235.765 9.27551C235.221 9.57252 235.364 9.79403 235.943 9.55024C236.231 9.42874 235.889 9.61956 235.183 9.97396C233.97 10.5822 233.102 10.7876 233.106 10.4652C233.107 10.3861 232.957 10.3713 232.773 10.4324C232.565 10.5021 232.519 10.4737 232.651 10.3572C232.766 10.2545 232.963 10.207 233.086 10.2516C233.21 10.2962 233.611 10.1589 233.976 9.94651C234.342 9.73416 234.773 9.60801 234.934 9.66611C235.113 9.73021 235.157 9.66531 235.047 9.50089C234.929 9.32393 235.013 9.23171 235.29 9.23493C235.522 9.23763 235.714 9.15506 235.715 9.05137C235.716 8.94785 235.805 8.91367 235.913 8.97566C236.02 9.03764 235.954 9.17255 235.765 9.27551ZM179.979 8.59113C179.751 8.79298 180.133 8.79742 180.699 8.59951C181.073 8.46899 181.065 8.44694 180.646 8.43979C180.378 8.43538 180.078 8.50344 179.979 8.59113ZM92.3669 8.04174C92.0962 8.21465 91.6938 8.30317 91.4312 8.24745C91.1778 8.19378 91.0684 8.21157 91.1876 8.2871C91.5373 8.50842 90.2075 9.18671 89.8039 8.99302C89.5498 8.87134 89.4737 8.97173 89.5055 9.38561C89.5293 9.6915 89.4263 9.92662 89.2773 9.90808C89.128 9.88955 88.9456 9.96463 88.8715 10.0749C88.6944 10.339 89.708 10.1492 90.0289 9.85803C90.157 9.74177 90.4173 9.65079 90.6073 9.65591C90.7974 9.66087 90.5618 9.85293 90.0839 10.0826C89.6059 10.3122 89.2571 10.5785 89.3084 10.6741C89.36 10.7698 89.0934 10.6811 88.7161 10.4767C88.3388 10.2725 87.8937 10.1037 87.7272 10.1018C87.1906 10.0956 85.8876 10.7469 86.0797 10.9252C86.192 11.0297 86.4761 10.9482 86.7985 10.7187C87.0916 10.5102 87.3334 10.4304 87.3355 10.5414C87.3377 10.6526 87.4769 10.745 87.6445 10.7469C87.8122 10.7489 87.8712 10.6777 87.7754 10.5887C87.6757 10.4961 87.7912 10.4702 88.0455 10.5281C88.6741 10.6711 88.3311 10.8885 87.25 11.0328C86.7419 11.1005 86.3237 11.2241 86.3204 11.3072C86.3083 11.6022 85.8858 11.8195 85.1962 11.8853C84.6601 11.9366 84.537 11.8954 84.668 11.7089C84.7971 11.5248 84.7036 11.4908 84.2833 11.5686C83.7524 11.6668 83.7513 11.6614 84.2538 11.4495C84.543 11.3274 84.7846 11.1666 84.7909 11.0919C84.797 11.0172 84.9147 10.9749 85.0522 10.9978C85.2845 11.0366 86.0134 10.4598 86.0392 10.2167C86.0454 10.1577 86.1694 10.0501 86.3143 9.97762C86.4675 9.90122 86.4902 9.92975 86.3685 10.0456C86.0125 10.3847 86.6372 10.272 87.5212 9.83757C88.1545 9.52641 88.2202 9.44964 87.7858 9.52712C87.3453 9.60583 87.2884 9.58643 87.5456 9.44486C88.0188 9.18465 88.6397 9.42448 88.2158 9.70367C88.0129 9.83748 87.9992 9.95006 88.1782 10.0145C88.3328 10.0701 88.563 10.0248 88.6896 9.91368C88.9137 9.71712 88.9734 9.61137 89.1884 9.0285C89.2506 8.85994 89.5578 8.74867 89.9533 8.75102C90.379 8.75371 90.7044 8.62197 90.867 8.38142C91.0218 8.15256 91.2772 8.04343 91.5254 8.09978C91.7483 8.15051 92.0034 8.08839 92.0922 7.96181C92.1809 7.83524 92.3861 7.73312 92.548 7.735C92.7098 7.73689 92.6284 7.87485 92.3669 8.04174ZM152.51 8.57669C152.268 8.65933 152.228 8.75077 152.405 8.81437C152.563 8.87129 152.768 8.81003 152.86 8.67833C153.054 8.40163 153.036 8.39658 152.51 8.57669ZM178.967 8.90241C178.706 8.99339 178.67 9.05644 178.876 9.06046C179.065 9.06394 179.3 8.99513 179.399 8.90744C179.622 8.70942 179.523 8.70826 178.967 8.90241ZM180.568 8.90602C180.478 8.98542 180.665 9.01553 180.982 8.97271C181.656 8.88186 181.742 8.77319 181.146 8.76625C180.918 8.76359 180.658 8.82646 180.568 8.90602ZM226.781 9.35848C226.781 9.39191 226.552 9.51653 226.274 9.63524C225.815 9.83068 225.805 9.82491 226.166 9.57293C226.545 9.30824 226.783 9.22556 226.781 9.35848ZM110.991 8.17226C110.991 8.20569 110.762 8.33031 110.484 8.44903C110.025 8.64446 110.015 8.63869 110.376 8.38671C110.755 8.12202 110.993 8.03934 110.991 8.17226ZM143.251 8.53725C143.25 8.56503 142.826 8.79641 142.308 9.05124L141.367 9.51469L142.219 8.99964C143.013 8.51962 143.252 8.4124 143.251 8.53725ZM56.1163 7.79376C56.216 7.88635 56.1002 7.91214 55.8445 7.85408C55.3469 7.74087 55.2569 7.62401 55.6711 7.62883C55.8203 7.63057 56.0205 7.70477 56.1163 7.79376ZM178.011 9.27782C177.891 9.44457 177.861 9.61996 177.943 9.66744C178.204 9.81779 178.438 9.57903 178.332 9.27105C178.234 8.98886 178.218 8.98916 178.011 9.27782ZM180.733 9.2113C180.552 9.2431 180.402 9.35023 180.401 9.44939C180.399 9.58167 180.486 9.58251 180.724 9.45235C180.903 9.35477 181.214 9.31252 181.416 9.35832C181.618 9.40428 181.865 9.36952 181.964 9.28119C182.137 9.12797 181.437 9.08832 180.733 9.2113ZM231.674 9.72653C231.674 9.7535 231.19 10.0204 230.6 10.3197C230.009 10.619 229.716 10.7207 229.948 10.5457C230.6 10.0553 231.676 9.54435 231.674 9.72653ZM234.409 9.87079C234.31 9.95847 234.367 10.0318 234.534 10.0338C234.702 10.0357 234.84 9.96464 234.841 9.87581C234.842 9.78699 234.786 9.71365 234.716 9.71283C234.646 9.71202 234.508 9.7831 234.409 9.87079ZM54.9224 7.9808C54.8333 8.05972 54.6887 8.08291 54.6009 8.0323C54.513 7.98169 54.2339 8.02819 53.9803 8.13557C53.5834 8.30362 53.5691 8.29586 53.8778 8.07913C54.2499 7.81791 55.2079 7.72778 54.9224 7.9808ZM115.13 8.94537C114.509 9.19271 113.951 9.36971 113.889 9.33862C113.693 9.2399 114.542 8.76763 115.153 8.63647C116.263 8.39758 116.256 8.49635 115.13 8.94537ZM177.321 9.33423C177.119 9.40344 177.071 9.54244 177.205 9.66708C177.376 9.82575 177.477 9.79447 177.596 9.5463C177.685 9.36205 177.737 9.21228 177.712 9.21328C177.687 9.21445 177.511 9.26877 177.321 9.33423ZM46.7548 7.90189C46.7532 8.03739 44.3477 8.98744 43.9149 9.02343C43.6473 9.04552 43.4561 9.13859 43.4896 9.22992C43.5231 9.32125 43.3281 9.36938 43.0563 9.33682C42.7844 9.30442 42.5094 9.27166 42.4453 9.26412C42.2085 9.23617 43.447 8.58218 44.0087 8.43834C44.5797 8.29218 44.5799 8.29396 44.0278 8.53435C43.4713 8.77646 43.4713 8.77905 44.0249 8.77887C44.3323 8.77889 45.0353 8.56901 45.5868 8.31247C46.5626 7.85879 46.7561 7.79077 46.7548 7.90189ZM109.443 8.87352C109.178 9.03309 109.059 9.22505 109.177 9.30009C109.295 9.37528 109.245 9.38762 109.066 9.32787C108.886 9.26811 108.578 9.32559 108.381 9.45558C108.184 9.58557 108.132 9.69319 108.266 9.69475C108.399 9.69631 108.187 9.82047 107.794 9.97064C107.4 10.1208 106.978 10.2244 106.856 10.2009C106.734 10.1773 106.509 10.3388 106.355 10.5598C106.043 11.0084 105.687 11.1188 105.975 10.6776C106.256 10.2464 106.687 9.99362 106.968 10.0948C107.108 10.145 107.224 10.1176 107.225 10.0338C107.226 9.94997 107.779 9.58862 108.455 9.23095C109.709 8.56729 110.311 8.34961 109.443 8.87352ZM138.923 9.08243C138.922 9.17126 138.864 9.24327 138.794 9.24246C138.724 9.24164 138.588 9.16737 138.491 9.0774C138.394 8.98743 138.452 8.91542 138.62 8.91737C138.788 8.91932 138.924 8.9936 138.923 9.08243ZM175.084 9.49217C174.991 9.5738 175.034 9.68284 175.178 9.73459C175.321 9.78634 175.514 9.7209 175.607 9.58921C175.789 9.32965 175.357 9.24951 175.084 9.49217ZM198.099 9.75231C196.657 10.4834 194.485 11.3048 194.344 11.1733C194.247 11.0834 194.339 11.0316 194.548 11.0584C194.758 11.0853 194.895 11.0106 194.852 10.8925C194.81 10.7743 194.908 10.7252 195.07 10.7835C195.232 10.8415 195.365 10.819 195.366 10.7333C195.367 10.6477 195.976 10.3596 196.719 10.0934C198.03 9.62374 198.661 9.46794 198.099 9.75231ZM110.98 9.10382C110.582 9.28397 110.256 9.48968 110.255 9.56106C110.254 9.63261 110.165 9.73899 110.058 9.79767C109.95 9.8565 109.893 9.79268 109.93 9.65598C110.017 9.33926 110.975 8.75551 111.389 8.76727C111.562 8.77236 111.378 8.92367 110.98 9.10382ZM170.599 9.8228C170.202 10.0227 169.618 10.2376 169.3 10.3007C168.957 10.3687 169.133 10.223 169.737 9.94053C170.918 9.38764 171.666 9.28554 170.599 9.8228ZM140 9.54595C140.405 9.3641 140.411 9.37983 140.053 9.69484C139.768 9.94513 139.589 9.98988 139.433 9.84915C139.312 9.74033 139.223 9.57857 139.234 9.48986C139.245 9.40115 139.32 9.42318 139.401 9.53897C139.521 9.71078 139.63 9.71205 140 9.54595ZM261.635 11.1972C261.494 11.3954 261.221 11.5347 261.028 11.5064C260.532 11.4343 259.567 11.9469 259.785 12.1665C259.885 12.2668 259.871 12.2993 259.754 12.2387C259.512 12.1136 258.431 12.6499 258.428 12.8963C258.427 12.9851 258.253 13.0558 258.042 13.0534C257.83 13.0509 257.659 12.9431 257.66 12.8137C257.662 12.6844 257.771 12.6173 257.902 12.6645C258.033 12.7118 258.412 12.4981 258.745 12.1898C259.077 11.8814 259.601 11.5872 259.909 11.5361C260.233 11.4823 260.389 11.3619 260.277 11.2506C260.172 11.1447 260.187 11.1112 260.312 11.1762C260.436 11.2411 260.811 11.1909 261.144 11.0647C261.925 10.768 261.936 10.7711 261.635 11.1972ZM113.569 9.41485C113.567 9.59106 112.122 10.1191 112.118 9.94522C112.117 9.87655 111.997 9.92281 111.852 10.0482C111.707 10.1735 111.372 10.2914 111.107 10.3101C110.842 10.3289 110.669 10.3197 110.724 10.29C110.778 10.2603 110.908 10.2492 111.013 10.2651C111.117 10.2812 111.48 10.1009 111.82 9.8647C112.224 9.5835 112.6 9.47173 112.906 9.54119C113.218 9.61219 113.305 9.58396 113.167 9.4562C113.054 9.35086 113.098 9.26642 113.266 9.26837C113.434 9.27032 113.57 9.3362 113.569 9.41485ZM178.982 10.2085C178.601 10.2892 178.362 10.3966 178.45 10.447C178.537 10.4975 178.978 10.4312 179.429 10.2998C180.337 10.0355 180.062 9.9793 178.982 10.2085ZM258.197 11.1721C258.02 11.2892 257.937 11.4336 258.014 11.493C258.092 11.5524 258.068 11.5634 257.963 11.5176C257.857 11.4718 257.5 11.5573 257.169 11.7077C256.837 11.8581 256.949 11.7505 257.418 11.4686C258.243 10.9726 258.852 10.7405 258.197 11.1721ZM42.9596 9.05576C42.5986 9.30774 42.6086 9.31351 43.0678 9.11808C43.3466 8.99937 43.5747 8.87474 43.5751 8.84131C43.5767 8.70839 43.3392 8.79108 42.9596 9.05576ZM228.483 11.6594C227.779 12.051 227.142 12.3706 227.068 12.3698C226.902 12.3678 228.135 11.6111 228.92 11.2338C230.007 10.7107 229.766 10.9461 228.483 11.6594ZM53.1569 9.23454C52.978 9.33212 52.8942 9.50544 52.9704 9.61988C53.0468 9.73416 52.9717 9.87365 52.8037 9.92968C52.6172 9.9918 52.5666 9.93387 52.6738 9.78118C52.8012 9.59949 52.7219 9.55657 52.3858 9.6247C52.1308 9.67649 51.993 9.78473 52.08 9.86537C52.1666 9.94585 52.0927 10.0101 51.9155 10.008C51.7384 10.006 51.6782 10.0828 51.7813 10.1788C51.8942 10.2835 51.7565 10.3304 51.4369 10.2959C51.1443 10.2644 50.9321 10.323 50.9655 10.4261C50.9989 10.5293 50.8109 10.5935 50.5476 10.5688C50.284 10.5439 49.623 10.6874 49.0782 10.8873C48.5334 11.0874 47.9418 11.2025 47.7631 11.1429C47.5846 11.0835 47.5352 11.0961 47.6535 11.1713C47.9209 11.3408 47.0126 11.914 46.6709 11.7911C46.253 11.6409 46.3992 11.357 46.8428 11.458C47.1134 11.5194 47.207 11.4745 47.1101 11.3293C46.9428 11.0789 47.9593 10.7166 48.3126 10.9005C48.4372 10.9655 48.4417 10.9219 48.3227 10.8034C48.0473 10.5298 49.0053 10.1198 49.6492 10.2359C49.9379 10.2879 50.3678 10.1491 50.7553 9.8787C51.1038 9.63546 51.2988 9.53258 51.1886 9.64986C51.0786 9.7673 51.4912 9.68552 52.1056 9.46815C53.3321 9.03435 53.6555 8.96252 53.1569 9.23454ZM122.78 10.0252C122.542 10.1085 122.476 10.1782 122.635 10.18C122.793 10.1819 123.118 10.1152 123.356 10.0319C123.595 9.94861 123.661 9.87895 123.502 9.87711C123.344 9.87526 123.019 9.94191 122.78 10.0252ZM113.669 10.4218C113.05 10.691 112.579 10.9818 112.621 11.0677C112.664 11.1538 112.569 11.1774 112.41 11.1205C112.056 10.9931 112.679 10.3922 113.16 10.3978C113.34 10.3999 113.65 10.2945 113.849 10.1636C114.047 10.0326 114.342 9.927 114.502 9.92887C114.663 9.93074 114.288 10.1525 113.669 10.4218ZM120.385 10.1094C120.098 10.3644 120.94 10.5041 121.696 10.3268C122.302 10.1847 122.294 10.1795 121.577 10.2495C121.115 10.2947 120.763 10.2469 120.695 10.1299C120.616 9.99243 120.524 9.98652 120.385 10.1094ZM169.992 10.6151C169.924 10.6366 169.414 10.8668 168.857 11.1269L167.845 11.5997L168.697 11.0846C169.166 10.8014 169.676 10.5711 169.831 10.5729C169.987 10.5747 170.059 10.5936 169.992 10.6151ZM123.134 10.3619C121.63 10.5105 118.383 11.42 118.194 11.7457C118.09 11.9251 118.18 11.916 118.561 11.7082C118.838 11.5567 119.184 11.4754 119.329 11.5276C119.474 11.5797 119.594 11.5454 119.595 11.4514C119.596 11.3574 119.694 11.2901 119.813 11.302C120.324 11.3533 120.7 11.2742 121.303 10.9896C121.657 10.8228 122.455 10.6441 123.079 10.5924C123.702 10.5407 124.286 10.4328 124.377 10.3528C124.467 10.2728 124.501 10.2147 124.451 10.224C124.402 10.2331 123.81 10.2952 123.134 10.3619ZM91.0337 10.5207C89.7404 11.0056 89.7052 11.0389 90.2631 11.2417C90.6199 11.3712 90.7719 11.3831 90.6525 11.2722C90.5431 11.1708 90.9409 10.8483 91.5511 10.5438C92.9011 9.87031 92.7824 9.86489 91.0337 10.5207ZM170.301 10.9629C170.301 10.9969 169.812 11.2146 169.215 11.4465L168.13 11.8685L169.133 11.384C170.121 10.9067 170.302 10.8413 170.301 10.9629ZM263.334 12.1458C263.073 12.2368 263.036 12.2998 263.243 12.3038C263.431 12.3073 263.667 12.2385 263.766 12.1508C263.989 11.9528 263.889 11.9516 263.334 12.1458ZM50.3314 9.98959C50.2324 10.0773 50.0219 10.1475 49.8635 10.1457C49.705 10.1438 49.6563 10.0706 49.7553 9.98288C49.8543 9.89519 50.0648 9.82496 50.2232 9.8268C50.3816 9.82864 50.4303 9.9019 50.3314 9.98959ZM56.092 10.0566C55.993 10.1443 55.7577 10.2131 55.5691 10.2097C55.3629 10.2056 55.3993 10.1426 55.6599 10.0516C56.2156 9.85746 56.3152 9.85862 56.092 10.0566ZM109.494 11.2555C108.977 11.5469 108.436 11.7435 108.294 11.692C107.988 11.5822 106.869 12.0925 107.049 12.2597C107.116 12.3227 106.964 12.3718 106.71 12.3688C106.412 12.3654 106.677 12.145 107.454 11.7501C108.118 11.413 108.779 11.1795 108.923 11.2314C109.168 11.3194 109.6 11.0791 109.696 10.8017C109.719 10.7354 109.754 10.6405 109.775 10.5912C109.795 10.5418 109.952 10.5517 110.124 10.6135C110.319 10.6836 110.083 10.924 109.494 11.2555ZM73.1021 10.6618C72.7952 10.7878 72.6107 10.9293 72.6919 10.9761C72.7735 11.0229 73.0769 10.9182 73.3664 10.7433C73.9835 10.371 73.8847 10.3406 73.1021 10.6618ZM91.6912 10.936C91.2891 11.1039 91.1235 11.2686 91.2951 11.3302C91.4569 11.3885 91.8032 11.2576 92.0644 11.0392C92.6282 10.568 92.5949 10.5589 91.6912 10.936ZM117.729 11.0953C117.627 11.1856 117.742 11.2141 117.999 11.162C118.499 11.0604 118.592 10.9456 118.178 10.9408C118.028 10.9391 117.827 11.0086 117.729 11.0953ZM40.9649 10.3479C40.964 10.4272 40.7499 10.5353 40.4894 10.5883C40.093 10.6688 40.0754 10.6449 40.3822 10.4428C40.8003 10.1675 40.9674 10.1402 40.9649 10.3479ZM195.062 12.0685C195.062 12.1077 194.931 12.1831 194.772 12.2362C194.613 12.2892 194.484 12.2556 194.485 12.1616C194.486 12.0676 194.616 11.9921 194.775 11.9939C194.933 11.9957 195.062 12.0292 195.062 12.0685ZM85.4636 11.0446C85.3614 11.1352 85.1792 11.1738 85.0587 11.1304C84.9379 11.0871 84.838 11.1562 84.8365 11.2841C84.8348 11.4279 84.9537 11.4658 85.1476 11.3831C85.3199 11.3096 85.6496 11.219 85.8799 11.1814C86.1691 11.1346 86.1983 11.0774 85.974 10.9968C85.7953 10.9325 85.5657 10.9541 85.4636 11.0446ZM196.355 12.3353C196.256 12.423 196.378 12.4971 196.624 12.5C196.871 12.5029 197.074 12.4326 197.075 12.3437C197.076 12.2549 196.955 12.1808 196.806 12.1791C196.657 12.1773 196.454 12.2477 196.355 12.3353ZM116.638 11.5759C116.833 11.6969 117.2 11.8156 117.454 11.8394C117.707 11.8631 117.828 11.8326 117.721 11.7714C117.615 11.7102 117.442 11.658 117.336 11.6555C117.231 11.6528 116.95 11.5844 116.714 11.5033C116.365 11.3839 116.351 11.3977 116.638 11.5759ZM145.228 11.9018C145.227 11.9906 145.089 12.0617 144.921 12.0597C144.753 12.0578 144.697 11.9844 144.796 11.8967C144.895 11.8091 145.033 11.738 145.103 11.7388C145.173 11.7396 145.229 11.8129 145.228 11.9018ZM39.2262 11.2333C39.021 11.3685 38.7888 11.4419 38.7101 11.3966C38.6314 11.3512 38.7348 11.2037 38.9401 11.0685C39.1453 10.9332 39.3775 10.8598 39.4562 10.9052C39.5349 10.9505 39.4315 11.0981 39.2262 11.2333ZM88.0696 11.6518C87.8191 11.7886 87.6136 11.9461 87.6129 12.0018C87.6123 12.0577 87.7683 12.018 87.9596 11.9136C88.4038 11.6713 88.8682 11.6712 88.5948 11.9137C88.4688 12.0252 88.5137 12.0554 88.7083 11.9905C88.885 11.9317 88.9577 11.7758 88.8699 11.6444C88.6709 11.3462 88.6291 11.3467 88.0696 11.6518ZM145.223 12.2883C145.223 12.3231 145.021 12.3927 144.775 12.4428C144.518 12.4949 144.402 12.4664 144.504 12.3762C144.675 12.2245 145.225 12.1574 145.223 12.2883ZM194.295 12.9239C194.372 12.9952 194.187 13.0612 193.884 13.0704C193.581 13.0797 193.259 13.0183 193.168 12.934C193.077 12.8498 193.262 12.7839 193.579 12.7876C193.896 12.7913 194.218 12.8527 194.295 12.9239ZM83.3797 11.8839C83.2516 12.0019 82.6502 12.3333 82.0437 12.6202C81.3809 12.9335 81.0637 13.1863 81.2496 13.2531C81.4341 13.3193 81.2626 13.4493 80.8247 13.5752C79.6816 13.9037 79.3025 13.5544 80.1344 12.9387C80.4988 12.6688 80.8604 12.4845 80.938 12.529C81.0152 12.5737 80.7626 12.7977 80.3765 13.0271C79.1341 13.7647 80.6685 13.2061 82.123 12.3912C83.4568 11.6439 83.7824 11.5124 83.3797 11.8839ZM96.1618 12.1687C96.0684 12.2963 96.0006 12.2572 95.9889 12.0689C95.9785 11.8986 96.0476 11.8041 96.1426 11.8588C96.2376 11.9135 96.2464 12.053 96.1618 12.1687ZM138.596 12.4534C138.595 12.5327 138.381 12.6409 138.12 12.6939C137.724 12.7744 137.706 12.7504 138.013 12.5484C138.431 12.273 138.598 12.2457 138.596 12.4534ZM227.437 13.9013C226.966 14.106 226.516 14.2364 226.437 14.1911C226.358 14.1457 226.679 13.9411 227.151 13.7365C227.622 13.5316 228.073 13.4014 228.151 13.4467C228.23 13.492 227.909 13.6965 227.437 13.9013ZM51.4467 11.7075C50.907 11.9425 50.9104 11.9455 51.5348 11.7836C51.8925 11.6909 52.1853 11.5812 52.1858 11.54C52.1872 11.4165 52.0373 11.4504 51.4467 11.7075ZM102.589 12.2939C102.39 12.4248 102.089 12.5304 101.92 12.5284C101.751 12.5264 101.865 12.421 102.174 12.2942C102.9 11.9961 103.041 11.9961 102.589 12.2939ZM85.3075 12.0742C85.3071 12.1084 84.9814 12.2516 84.5837 12.3925C84.1859 12.5334 83.8612 12.5854 83.8621 12.5082C83.863 12.4308 84.1562 12.2921 84.5139 12.1998C85.2981 11.9976 85.3084 11.996 85.3075 12.0742ZM137.441 12.717C137.439 12.8505 136.879 12.9196 136.752 12.8018C136.67 12.7255 136.791 12.665 137.022 12.6677C137.252 12.6704 137.441 12.6926 137.441 12.717ZM156.882 13.0066C156.783 13.0943 156.839 13.1676 157.007 13.1696C157.175 13.1715 157.313 13.1004 157.314 13.0116C157.315 12.9228 157.259 12.8494 157.189 12.8486C157.119 12.8478 156.981 12.9189 156.882 13.0066ZM276.27 14.3962C276.269 14.485 276.398 14.5592 276.557 14.5611C276.715 14.5629 276.846 14.4918 276.847 14.4029C276.848 14.3141 276.719 14.2399 276.56 14.2381C276.402 14.2362 276.272 14.3074 276.27 14.3962ZM113.509 12.9994L112.514 13.4787L113.526 13.1179C114.083 12.9195 114.593 12.7394 114.659 12.7175C114.725 12.6958 114.718 12.6425 114.642 12.5991C114.567 12.5556 114.057 12.7357 113.509 12.9994ZM83.4006 12.5391C83.3142 12.6627 82.96 12.801 82.614 12.8467C82.0269 12.924 82.0331 12.9093 82.7085 12.6249C83.581 12.2577 83.5998 12.2554 83.4006 12.5391ZM137.554 13.3229C137.453 13.4673 137.248 13.5414 137.099 13.4879C136.938 13.4298 136.968 13.2985 137.174 13.1628C137.599 12.8829 137.803 12.9688 137.554 13.3229ZM75.5089 12.4382C75.5086 12.4689 75.2152 12.629 74.8566 12.7941L74.205 13.0942L74.7579 12.7372C75.2775 12.4018 75.5104 12.309 75.5089 12.4382ZM166.955 13.7699C166.856 13.8576 166.935 13.9312 167.129 13.9335C167.323 13.9358 167.403 13.9803 167.308 14.0325C167.047 14.1745 166.486 13.9271 166.68 13.7556C166.772 13.674 166.912 13.6079 166.991 13.6088C167.071 13.6098 167.054 13.6823 166.955 13.7699ZM136.161 14.3862C135.674 14.7023 135.4 14.7915 135.402 14.6329C135.405 14.373 136.572 13.6896 136.795 13.8175C136.865 13.8581 136.58 14.114 136.161 14.3862ZM46.657 13.137C46.296 13.389 46.306 13.3947 46.7652 13.1993C47.2475 12.9938 47.4014 12.863 47.1643 12.8602C47.1047 12.8595 46.8763 12.984 46.657 13.137ZM110.655 13.9912C110.091 14.3189 110.069 14.3703 110.505 14.3395C110.786 14.3197 111.121 14.1472 111.25 13.9562C111.549 13.5143 111.468 13.519 110.655 13.9912ZM35.7501 13.5311C35.2679 13.7767 34.8723 14.0573 34.8712 14.1549C34.87 14.2526 34.7173 14.3306 34.5318 14.3285C34.3463 14.3263 33.9824 14.413 33.7233 14.5209C33.4639 14.6291 33.552 14.5608 33.9183 14.3694C34.6377 13.9939 34.811 13.7528 34.2255 13.9425C33.9768 14.023 33.9877 13.9763 34.2598 13.7927C34.4776 13.6459 34.7559 13.5619 34.8787 13.6059C35.0012 13.6502 35.318 13.5053 35.5828 13.2843C35.8472 13.0632 36.1904 12.9278 36.3453 12.9835C36.4999 13.0393 36.2323 13.2857 35.7501 13.5311ZM188.446 15.1508C188.443 15.3729 188.508 15.4645 188.589 15.3544C188.67 15.2443 188.672 15.0626 188.594 14.9506C188.515 14.8387 188.449 14.9287 188.446 15.1508ZM16.4782 14.7257C15.1791 15.487 13.8884 16.289 13.6105 16.5078L13.1052 16.9058L14.0114 16.5125C14.5097 16.2962 14.9872 15.9855 15.0726 15.8221C15.1687 15.6379 15.3607 15.5729 15.5782 15.6511C15.787 15.7262 15.8555 15.7091 15.7475 15.6088C15.648 15.5164 15.9013 15.3082 16.3106 15.1463C16.7198 14.9843 17.1712 14.6898 17.3138 14.4915C17.4564 14.2932 17.6939 14.1325 17.8413 14.1342C18.1521 14.1378 17.9154 14.7458 17.5566 14.8655C17.4235 14.9098 17.3879 15.0551 17.4768 15.1886C17.6078 15.3849 17.7573 15.361 18.2641 15.0624C18.6084 14.8596 19.1176 14.6475 19.3959 14.591C19.7797 14.5131 19.8564 14.3836 19.7138 14.0547C19.591 13.7716 19.6294 13.6583 19.8242 13.7284C19.9886 13.7875 20.1984 13.7281 20.291 13.5964C20.4808 13.3256 20.0356 13.2616 19.7463 13.5182C19.6159 13.6337 19.4474 13.6323 19.1993 13.5134C18.932 13.3851 18.2397 13.6936 16.4782 14.7257ZM102.848 14.8006C102.847 14.8894 102.709 14.9605 102.541 14.9585C102.373 14.9566 102.317 14.8832 102.416 14.7955C102.515 14.7078 102.653 14.6368 102.723 14.6376C102.793 14.6384 102.849 14.7117 102.848 14.8006ZM188.594 15.7411C188.782 15.7864 188.864 15.9269 188.775 16.0535C188.519 16.419 189.66 16.3449 190.291 15.9549L190.844 15.6132L190.048 15.8898C189.335 16.138 189.253 16.1397 189.256 15.9057C189.258 15.76 189.036 15.6479 188.755 15.6517C188.478 15.6554 188.405 15.6956 188.594 15.7411ZM19.1434 14.0148C19.061 14.0878 19.1631 14.1507 19.3705 14.1544C19.8503 14.1632 19.0428 14.4651 18.545 14.463C18.2999 14.4619 18.2129 14.0159 18.4322 13.8854C18.583 13.7957 19.2528 13.9177 19.1434 14.0148ZM33.4302 14.2098C33.4298 14.2405 33.1364 14.4006 32.7779 14.5657L32.1262 14.8658L32.6792 14.5088C33.1987 14.1734 33.4317 14.0806 33.4302 14.2098ZM133.087 15.4756C133.086 15.5644 133.029 15.6364 132.959 15.6356C132.889 15.6348 132.752 15.5605 132.655 15.4706C132.559 15.3806 132.617 15.3086 132.784 15.3105C132.952 15.3125 133.088 15.3868 133.087 15.4756ZM140.284 15.9435C140.283 15.9769 140.055 16.1015 139.776 16.2202C139.317 16.4157 139.307 16.4099 139.668 16.1579C140.048 15.8932 140.285 15.8105 140.284 15.9435ZM79.784 15.6224C79.778 15.6889 79.4195 15.8789 78.9869 16.0444L78.2001 16.3452L78.9033 15.9223C79.6425 15.4777 79.801 15.4238 79.784 15.6224ZM30.8247 15.3179C30.8243 15.3528 30.6224 15.4224 30.3758 15.4725C30.1188 15.5246 30.0036 15.4961 30.1055 15.4058C30.2764 15.2542 30.8262 15.1871 30.8247 15.3179ZM77.7733 15.8888C77.7731 15.9075 77.5992 16.0013 77.3869 16.0972C77.0982 16.2274 77.0012 16.2176 77.0031 16.0586C77.0044 15.9416 77.1784 15.8478 77.3898 15.8502C77.6009 15.8527 77.7735 15.8701 77.7733 15.8888ZM34.9688 15.868C34.5353 16.2305 34.2089 16.3328 33.8513 16.2185C33.7793 16.1955 33.5114 16.3195 33.2561 16.4942C32.804 16.8036 32.8003 16.8024 33.1146 16.4477C33.2921 16.2473 33.541 16.1209 33.6681 16.1664C33.7949 16.2122 34.2016 16.0735 34.5716 15.8584C35.4307 15.3593 35.5735 15.3627 34.9688 15.868ZM104.271 16.3319C104.27 16.3654 104.042 16.49 103.763 16.6087C103.304 16.8041 103.294 16.7984 103.655 16.5464C104.035 16.2817 104.272 16.199 104.271 16.3319ZM16.4599 15.6791C15.9955 15.9546 16.1233 16.091 16.6739 15.9072C16.8873 15.8361 17.0147 15.7033 16.957 15.6122C16.8962 15.5165 16.6868 15.5446 16.4599 15.6791ZM39.0568 15.9172C39.0201 16.051 38.8158 16.2485 38.6028 16.3562C38.289 16.5148 38.2643 16.5066 38.4723 16.3126C38.6135 16.181 38.7479 16.019 38.7709 15.9527C38.854 15.7125 38.8885 15.6714 39.0052 15.6727C39.0703 15.6735 39.0935 15.7836 39.0568 15.9172ZM76.6151 16.4012C76.613 16.5771 75.0353 17.1968 74.8026 17.1132C74.463 16.9908 75.6465 16.3145 76.1891 16.3209C76.4239 16.3236 76.6156 16.3597 76.6151 16.4012ZM105.96 16.7252C105.941 16.7969 105.939 16.9102 105.957 16.977C105.975 17.0438 105.871 17.0971 105.726 17.0954C105.58 17.0937 105.223 17.1395 104.932 17.1972C104.449 17.2931 104.44 17.2758 104.839 16.9942C105.244 16.7085 105.238 16.7021 104.761 16.9054C104.479 17.0257 104.311 17.161 104.389 17.2059C104.467 17.2507 104.264 17.4924 103.938 17.7429C103.612 17.9935 103.433 18.1995 103.541 18.2007C103.648 18.202 103.429 18.3511 103.053 18.5321L102.369 18.8611L103.237 18.5474C104.652 18.0355 106.66 16.8337 106.31 16.7078C106.137 16.6457 105.98 16.6536 105.96 16.7252ZM40.5689 16.4582C40.2079 16.7102 40.2179 16.7159 40.677 16.5205C40.9558 16.4018 41.184 16.2772 41.1844 16.2437C41.1859 16.1108 40.9485 16.1935 40.5689 16.4582ZM5.92367 16.3323C5.9184 16.7847 5.67936 16.7303 5.55419 16.2483C5.50842 16.0724 5.57403 15.9297 5.69961 15.9312C5.82548 15.9326 5.92622 16.1131 5.92367 16.3323ZM70.1265 17.0041C70.0275 17.0918 70.1488 17.1659 70.3957 17.1688C70.6425 17.1717 70.8435 17.2763 70.8421 17.4011C70.8399 17.5846 70.7056 17.5911 70.1431 17.4353C69.6274 17.2923 69.5257 17.1903 69.751 17.0421C70.1124 16.804 70.3832 16.7766 70.1265 17.0041ZM133.926 17.6671C133.92 18.2091 135.344 18.6499 135.799 18.2467C135.92 18.139 135.724 18.1146 135.241 18.1768C134.679 18.2493 134.496 18.2111 134.498 18.0227C134.5 17.8851 134.372 17.7261 134.214 17.6693C134.056 17.6126 133.927 17.6115 133.926 17.6671ZM31.7722 16.7948C31.86 16.9262 31.8345 17.0663 31.7153 17.1061C31.5962 17.1457 31.4816 17.0378 31.4606 16.866C31.4151 16.4944 31.5511 16.4634 31.7722 16.7948ZM30.9816 17.0069C31.0178 17.1149 30.985 17.1323 30.9083 17.0453C30.8318 16.9583 30.5613 16.9295 30.3072 16.981C29.9913 17.0451 29.9151 17.0132 30.0656 16.8798C30.3258 16.6493 30.8875 16.727 30.9816 17.0069ZM75.2882 17.6163C74.9794 17.7387 74.7909 17.8725 74.8696 17.9137C74.9481 17.9548 75.2632 17.8554 75.5702 17.6928C76.2302 17.3428 76.0803 17.3023 75.2882 17.6163ZM5.60617 17.0296C5.51716 17.0783 5.2853 17.026 5.09101 16.9133C4.8106 16.7504 4.84394 16.7324 5.25336 16.8247C5.53665 16.8888 5.69546 16.9809 5.60617 17.0296ZM39.1156 17.572C38.7546 17.8239 38.7646 17.8297 39.2237 17.6343C39.7061 17.4288 39.86 17.298 39.6229 17.2952C39.5633 17.2945 39.3348 17.419 39.1156 17.572ZM68.9402 18.0711C68.9779 18.2226 69.1626 18.3651 69.3505 18.3876C69.5386 18.4102 69.559 18.3899 69.3962 18.3428C69.2334 18.2955 69.1686 18.1962 69.2522 18.1221C69.3357 18.0479 69.2845 17.9441 69.1379 17.8914C68.9913 17.8388 68.9025 17.9196 68.9402 18.0711ZM31.7677 17.6538C31.8438 17.7244 31.6657 17.7794 31.3722 17.776C31.0787 17.7726 30.9019 17.7135 30.9796 17.6446C31.0577 17.5757 31.2355 17.5206 31.3751 17.5223C31.5148 17.5239 31.6913 17.5831 31.7677 17.6538ZM67.233 18.1012C67.1341 18.1888 67.1906 18.2622 67.3582 18.2641C67.5258 18.2661 67.6641 18.195 67.6651 18.1062C67.6661 18.0174 67.6099 17.944 67.5399 17.9432C67.47 17.9424 67.332 18.0135 67.233 18.1012ZM74.5026 18.4596C73.906 18.6815 73.4169 18.932 73.4159 19.0161C73.4149 19.1004 73.9352 18.9451 74.5722 18.6712C75.2091 18.3972 75.7306 18.1427 75.731 18.1057C75.7322 18.0066 75.6842 18.0204 74.5026 18.4596ZM69.9891 18.3889C70.0008 18.5772 70.0686 18.6163 70.162 18.4887C70.2465 18.373 70.2378 18.2335 70.1428 18.1788C70.0478 18.1241 69.9787 18.2186 69.9891 18.3889ZM11.483 18.3445C11.281 18.4775 11.1713 18.6184 11.2389 18.6575C11.3067 18.6964 11.522 18.5882 11.7173 18.4169C12.1398 18.0462 12.0009 18.0034 11.483 18.3445ZM101.029 19.4233C100.668 19.6753 100.678 19.6811 101.137 19.4856C101.619 19.2801 101.773 19.1493 101.536 19.1465C101.477 19.1458 101.248 19.2703 101.029 19.4233ZM71.6825 19.4452C71.4219 19.5361 71.3854 19.5992 71.5916 19.6032C71.7803 19.6067 72.0156 19.5379 72.1145 19.4502C72.3378 19.2522 72.2381 19.251 71.6825 19.4452ZM70.0964 19.5882C69.5453 19.7143 69.5484 19.7212 70.1667 19.7393C70.5232 19.7495 70.8155 19.6854 70.8165 19.5966C70.8175 19.5078 70.7858 19.4399 70.7462 19.4456C70.7067 19.4514 70.4142 19.5155 70.0964 19.5882ZM29.5492 19.2978C29.7434 19.4106 29.9753 19.4629 30.0643 19.4141C30.1536 19.3654 29.9948 19.2733 29.7115 19.2093C29.3021 19.1169 29.2687 19.135 29.5492 19.2978ZM8.76279 19.978C8.68042 20.0512 8.79579 20.1131 9.01959 20.1157C9.24339 20.1184 9.36017 20.0591 9.27952 19.9841C9.19887 19.9091 9.08321 19.8472 9.02272 19.8465C8.96223 19.8458 8.84517 19.905 8.76279 19.978ZM28.9191 20.218C28.7049 20.4079 29.79 20.9513 30.1463 20.8325C30.3045 20.7798 30.5093 20.8068 30.6019 20.8927C30.7772 21.0556 31.8586 21.0094 32.1678 20.8258C32.2658 20.7675 31.9848 20.7525 31.5431 20.7921C30.9519 20.8453 30.6634 20.7826 30.4509 20.5547C30.2921 20.3843 30.0386 20.2863 29.8876 20.3367C29.7364 20.3871 29.6138 20.3513 29.6149 20.2573C29.6173 20.0515 29.1374 20.0244 28.9191 20.218ZM3.11857 20.5047C3.11753 20.5935 3.241 20.7767 3.39297 20.9117C3.54494 21.0467 3.6701 21.0845 3.67113 20.9957C3.67217 20.9069 3.5487 20.7237 3.39673 20.5887C3.24476 20.4536 3.1196 20.4158 3.11857 20.5047ZM7.83632 20.6C7.94679 20.7124 7.93517 20.894 7.81002 21.0035C7.46718 21.3041 7.43096 21.6193 7.75138 21.5124C7.90726 21.4604 7.96268 21.3766 7.87483 21.326C7.78698 21.2754 7.86524 21.1351 8.04871 21.0143C8.30213 20.8474 8.29265 20.7466 8.00893 20.5952C7.71606 20.4388 7.67889 20.4398 7.83632 20.6ZM9.58938 20.6607C9.49042 20.7484 9.54689 20.8218 9.71452 20.8237C9.88216 20.8257 10.0204 20.7546 10.0214 20.6658C10.0225 20.577 9.96628 20.5036 9.89629 20.5028C9.82629 20.502 9.68835 20.5731 9.58938 20.6607Z" fill="#E580A6"/>
</svg>
